<svg width="22" height="20" viewBox="0 0 22 20" fill="none" xmlns="http://www.w3.org/2000/svg">
<g id="Group">
<path id="Vector" d="M10.75 18.75V9.75M10.75 9.75L13.75 13.083M10.75 9.75L7.75 13.083" stroke="#393A3B" stroke-width="1.5" stroke-linecap="round" stroke-linejoin="round"/>
<path id="Vector_2" d="M19.25 4.75V10.75C19.25 14.521 19.25 16.407 18.078 17.578C16.906 18.749 15.021 18.75 11.25 18.75H10.25M2.25 4.75V10.75C2.25 14.521 2.25 16.407 3.422 17.578C4.126 18.283 5.09 18.564 6.566 18.676M10.75 0.75H2.75C1.807 0.75 1.336 0.75 1.043 1.043C0.75 1.336 0.75 1.807 0.75 2.75C0.75 3.693 0.75 4.164 1.043 4.457C1.336 4.75 1.807 4.75 2.75 4.75H18.75C19.693 4.75 20.164 4.75 20.457 4.457C20.75 4.164 20.75 3.693 20.75 2.75C20.75 1.807 20.75 1.336 20.457 1.043C20.164 0.75 19.693 0.75 18.75 0.75H14.75" stroke="#393A3B" stroke-width="1.5" stroke-linecap="round"/>
</g>
</svg>
