<svg width="25" height="25" viewBox="0 0 25 25" fill="none" xmlns="http://www.w3.org/2000/svg">
<g id="iconName=CalendarIcon">
<path id="Vector" d="M14.5424 18.0527C13.8404 18.0527 13.247 17.8103 12.7622 17.3255C12.2775 16.8408 12.0351 16.2474 12.0351 15.5454C12.0351 14.8433 12.2775 14.2499 12.7622 13.7652C13.247 13.2804 13.8404 13.038 14.5424 13.038C15.2445 13.038 15.8379 13.2804 16.3226 13.7652C16.8074 14.2499 17.0497 14.8433 17.0497 15.5454C17.0497 16.2474 16.8074 16.8408 16.3226 17.3255C15.8379 17.8103 15.2445 18.0527 14.5424 18.0527ZM5.01464 22.0644C4.46303 22.0644 3.99099 21.8681 3.59851 21.4757C3.20603 21.0832 3.00946 20.6108 3.00879 20.0585V6.01756C3.00879 5.46595 3.20536 4.99391 3.59851 4.60143C3.99166 4.20895 4.4637 4.01238 5.01464 4.01171H6.01757V2.00586H8.02342V4.01171H16.0468V2.00586H18.0527V4.01171H19.0556C19.6072 4.01171 20.0796 4.20828 20.4727 4.60143C20.8659 4.99458 21.0621 5.46662 21.0614 6.01756V20.0585C21.0614 20.6101 20.8652 21.0825 20.4727 21.4757C20.0803 21.8688 19.6079 22.065 19.0556 22.0644H5.01464ZM5.01464 20.0585H19.0556V10.0293H5.01464V20.0585ZM5.01464 8.02341H19.0556V6.01756H5.01464V8.02341Z" fill="#393A3B"/>
</g>
</svg>
