<svg width="21" height="20" viewBox="0 0 21 20" fill="none" xmlns="http://www.w3.org/2000/svg">
<g id="iconName=CinemaMovieIcon" clip-path="url(#clip0_338_3384)">
<path id="Vector" d="M19.269 0L15.339 0.78L18.079 4.32L20.049 3.92L19.269 0ZM12.399 1.36L10.429 1.75L13.179 5.28L15.139 4.89L12.399 1.36ZM7.49903 2.32L5.52903 2.73L8.27903 6.26L10.239 5.87L7.49903 2.32ZM2.58903 3.32L1.60903 3.51C1.35143 3.5608 1.10638 3.66195 0.887955 3.80765C0.669526 3.95334 0.482005 4.14073 0.336146 4.35905C0.190288 4.57737 0.0889605 4.82234 0.0379747 5.07991C-0.0130111 5.33748 -0.0126524 5.60257 0.0390303 5.86L0.42903 7.82L5.32903 6.85L2.58903 3.32ZM18.429 9.82V17.82H2.42903V9.82H18.429ZM20.429 7.82H0.42903V17.82C0.42903 18.3504 0.639744 18.8591 1.01482 19.2342C1.38989 19.6093 1.8986 19.82 2.42903 19.82H18.429C19.539 19.82 20.429 18.93 20.429 17.82V7.82Z" fill="#393A3B"/>
</g>
<defs>
<clipPath id="clip0_338_3384">
<rect width="20.429" height="19.82" fill="white"/>
</clipPath>
</defs>
</svg>
