<svg width="24" height="24" viewBox="0 0 24 24" fill="none" xmlns="http://www.w3.org/2000/svg">
<g id="iconName=ClockIcon">
<path id="Union" d="M12.5928 23.2588C12.6014 23.2601 12.6077 23.2657 12.6104 23.2764L12.627 23.7031L12.623 23.7207L12.6113 23.7363L12.5068 23.8105L12.4951 23.8145L12.4795 23.8105L12.376 23.7363L12.3662 23.7236L12.3613 23.7031L12.3779 23.2754L12.3818 23.2656C12.3872 23.259 12.3956 23.2574 12.4062 23.2607L12.4766 23.2959L12.4912 23.2998L12.5107 23.2959L12.582 23.2607L12.5928 23.2588ZM12.1426 23.1475L12.3271 23.2393L12.3369 23.249L12.3398 23.2617L12.3232 23.6914L12.3193 23.7021L12.3086 23.71L12.1084 23.8037L12.0928 23.8057C12.0821 23.8017 12.0768 23.7932 12.0762 23.7812L12.1104 23.167L12.1162 23.1533C12.119 23.1492 12.1231 23.1457 12.1279 23.1445C12.1329 23.1434 12.1382 23.1449 12.1426 23.1475ZM12.8584 23.1455C12.868 23.1482 12.8746 23.1554 12.8779 23.167L12.9121 23.7812L12.9082 23.7959C12.9015 23.8044 12.8915 23.807 12.8789 23.8037L12.6777 23.71L12.6699 23.7031L12.665 23.6914L12.6465 23.2617L12.6504 23.25L12.6602 23.2402L12.8447 23.1475L12.8584 23.1455ZM12 2C17.523 2 22 6.477 22 12C22 17.523 17.523 22 12 22C6.477 22 2 17.523 2 12C2 6.477 6.477 2 12 2ZM12 4C9.87827 4 7.84306 4.84248 6.34277 6.34277C4.84248 7.84306 4 9.87827 4 12C4 14.1217 4.84248 16.1569 6.34277 17.6572C7.84306 19.1575 9.87827 20 12 20C14.1217 20 16.1569 19.1575 17.6572 17.6572C19.1575 16.1569 20 14.1217 20 12C20 9.87827 19.1575 7.84306 17.6572 6.34277C16.1569 4.84248 14.1217 4 12 4ZM12 6C12.2449 6.00003 12.481 6.09021 12.6641 6.25293C12.8471 6.41565 12.9645 6.63963 12.9932 6.88281L13 7V11.5859L15.707 14.293C15.8864 14.4729 15.9903 14.7148 15.998 14.9688C16.0057 15.2225 15.9169 15.4697 15.749 15.6602C15.581 15.8507 15.3466 15.97 15.0938 15.9941C14.8408 16.0182 14.5877 15.9455 14.3867 15.79L14.293 15.707L11.293 12.707C11.1375 12.5515 11.0376 12.3489 11.0088 12.1309L11 12V7C11 6.73478 11.1054 6.4805 11.293 6.29297C11.4805 6.10543 11.7348 6 12 6Z" fill="#393A3B"/>
</g>
</svg>
