<svg width="25" height="25" viewBox="0 0 25 25" fill="none" xmlns="http://www.w3.org/2000/svg">
<g id="iconName=DiplomaIcon">
<path id="Vector" d="M18.9503 12.6488C18.1974 12.5384 17.4635 12.3244 16.7693 12.0128C18.9105 10.13 21.14 8.35 23.4503 6.67883L23.6003 6.57383L23.6903 6.40883C24.1068 5.53109 24.2202 4.53989 24.0125 3.59078C23.8048 2.64167 23.2878 1.78838 22.5428 1.16483C21.8529 0.526611 20.976 0.127217 20.0417 0.0256552C19.1074 -0.0759069 18.1652 0.125749 17.3543 0.60083L17.1653 0.800331C14.9203 3.91764 12.4603 6.87433 9.80327 9.64883C6.97265 12.1696 3.955 14.4722 0.77627 16.5368L0.18527 16.9088V17.2538C-0.0379142 18.1899 -0.0597218 19.1627 0.121291 20.1079C0.302305 21.053 0.68201 21.9489 1.23527 22.7363C1.66045 23.1791 2.1766 23.5244 2.74812 23.7484C3.31965 23.9724 3.93297 24.0698 4.54577 24.0338C5.06982 24.0613 5.59189 23.9508 6.05988 23.7133C6.52787 23.4759 6.92539 23.1199 7.21277 22.6808C7.58027 22.2188 10.3103 18.7688 13.2203 15.6188C13.6223 16.3148 13.9343 17.1233 14.1113 17.9813C14.2999 19.5462 14.0942 21.1333 13.5128 22.5983L16.0403 19.5338L18.0353 21.0338C17.9793 19.333 17.6844 17.6485 17.1593 16.0298C16.7917 15.36 16.3294 14.7467 15.7868 14.2088C16.3958 14.7278 17.0933 15.1733 17.8448 15.5198C19.2548 16.0268 20.8283 16.3778 22.4588 16.5278L21.0353 14.6288L24.0353 12.0338C22.6892 12.4661 21.2836 12.6843 19.8698 12.6803C19.5458 12.6803 19.2248 12.6693 18.9068 12.6473L18.9503 12.6488ZM18.2753 1.80383C18.6683 1.61112 19.1005 1.51154 19.5383 1.51283C20.2973 1.51283 20.9873 1.80683 21.5018 2.28683C21.9791 2.67014 22.3225 3.19487 22.4829 3.78564C22.6433 4.37641 22.6122 5.0028 22.3943 5.57483C21.6653 6.03533 18.8753 8.15033 16.1753 10.5353C16.0985 9.78326 15.7407 9.0879 15.1733 8.58833C14.9192 8.37087 14.6225 8.2089 14.3022 8.11281C13.9819 8.01672 13.6451 7.98862 13.3133 8.03033C15.0614 6.03164 16.7172 3.95397 18.2753 1.80383ZM4.08527 17.7488C4.2007 17.6688 4.3378 17.6259 4.47827 17.6258L4.53827 17.6288H4.64027C4.90877 17.7068 5.14127 17.8418 5.33177 18.0203L4.02527 19.0988C3.86501 18.765 3.8031 18.3925 3.84677 18.0248C3.8882 17.9066 3.97289 17.8086 4.08377 17.7503L4.08527 17.7488ZM6.03527 21.7838C5.88767 22.0451 5.66513 22.256 5.39639 22.3894C5.12766 22.5229 4.82509 22.5726 4.52777 22.5323C4.11971 22.5702 3.70833 22.5172 3.32319 22.3771C2.93805 22.2371 2.58871 22.0134 2.30027 21.7223C1.72764 20.8701 1.42308 19.8661 1.42577 18.8393C1.42677 18.4623 1.46527 18.0973 1.54127 17.7443L2.60027 17.0588C2.45927 17.2688 2.35427 17.5148 2.30177 17.7803C2.21989 18.8228 2.50364 19.8613 3.10427 20.7173L3.63527 21.3773L6.18527 19.2773C6.44014 20.1113 6.38364 21.0094 6.02627 21.8048L6.03527 21.7838ZM7.32527 18.1088C6.81332 17.2121 5.99207 16.5327 5.01527 16.1978C4.90877 16.1798 4.82027 16.1738 4.73027 16.1738C4.64027 16.1738 4.55177 16.1798 4.46477 16.1888C4.2903 16.1696 4.11424 16.1696 3.93977 16.1888C6.01743 14.7754 8.01454 13.247 9.92177 11.6108C10.5188 11.7173 11.1398 11.9858 11.6183 12.4103C12.0638 12.8798 12.3383 13.5188 12.3383 14.2238L12.3353 14.3648C10.761 16.0529 9.25965 17.8075 7.83527 19.6238C7.75838 19.0823 7.57648 18.5611 7.29977 18.0893L7.32527 18.1088Z" fill="#393A3B"/>
</g>
</svg>
