<svg width="25" height="25" viewBox="0 0 25 25" fill="none" xmlns="http://www.w3.org/2000/svg">
<g id="iconName=DocumentIcon">
<path id="Vector" d="M4.01172 4.01171C4.01172 3.47973 4.22305 2.96953 4.59922 2.59336C4.97539 2.21719 5.48558 2.00586 6.01757 2.00586H14.041C14.3069 2.00592 14.562 2.11162 14.75 2.29972L19.7647 7.31434C19.9528 7.50239 20.0585 7.75744 20.0585 8.02341V20.0585C20.0585 20.5905 19.8472 21.1007 19.471 21.4769C19.0949 21.853 18.5847 22.0644 18.0527 22.0644H6.01757C5.48558 22.0644 4.97539 21.853 4.59922 21.4769C4.22305 21.1007 4.01172 20.5905 4.01172 20.0585V4.01171ZM17.6375 8.02341L14.041 4.42692V8.02341H17.6375ZM12.0351 4.01171H6.01757V20.0585H18.0527V10.0293H13.038C12.7721 10.0293 12.517 9.9236 12.3289 9.73551C12.1408 9.54743 12.0351 9.29233 12.0351 9.02634V4.01171ZM8.02342 13.038C8.02342 12.772 8.12909 12.5169 8.31717 12.3289C8.50526 12.1408 8.76035 12.0351 9.02635 12.0351H15.0439C15.3099 12.0351 15.565 12.1408 15.7531 12.3289C15.9412 12.5169 16.0468 12.772 16.0468 13.038C16.0468 13.304 15.9412 13.5591 15.7531 13.7472C15.565 13.9353 15.3099 14.041 15.0439 14.041H9.02635C8.76035 14.041 8.50526 13.9353 8.31717 13.7472C8.12909 13.5591 8.02342 13.304 8.02342 13.038ZM8.02342 17.0497C8.02342 16.7837 8.12909 16.5286 8.31717 16.3406C8.50526 16.1525 8.76035 16.0468 9.02635 16.0468H15.0439C15.3099 16.0468 15.565 16.1525 15.7531 16.3406C15.9412 16.5286 16.0468 16.7837 16.0468 17.0497C16.0468 17.3157 15.9412 17.5708 15.7531 17.7589C15.565 17.947 15.3099 18.0527 15.0439 18.0527H9.02635C8.76035 18.0527 8.50526 17.947 8.31717 17.7589C8.12909 17.5708 8.02342 17.3157 8.02342 17.0497Z" fill="#393A3B"/>
</g>
</svg>
