<svg width="24" height="24" viewBox="0 0 24 24" fill="none" xmlns="http://www.w3.org/2000/svg">
<g id="iconName=DocumentCheckIcon">
<path id="Vector" fill-rule="evenodd" clip-rule="evenodd" d="M16.5 20.25H7.5C6.90326 20.25 6.33097 20.0129 5.90901 19.591C5.48705 19.169 5.25 18.5967 5.25 18V6C5.25 5.40326 5.48705 4.83097 5.90901 4.40901C6.33097 3.98705 6.90326 3.75 7.5 3.75H11.6355C11.9311 3.75006 12.2238 3.80838 12.4969 3.92163C12.77 4.03488 13.0181 4.20083 13.227 4.41L18.0915 9.273C18.513 9.6948 18.7499 10.2667 18.75 10.863V18C18.75 18.5967 18.5129 19.169 18.091 19.591C17.669 20.0129 17.0967 20.25 16.5 20.25ZM19.6815 7.6815C20.0996 8.09945 20.4312 8.59567 20.6574 9.14182C20.8837 9.68797 21.0001 10.2733 21 10.8645V18C21 19.1935 20.5259 20.3381 19.682 21.182C18.8381 22.0259 17.6935 22.5 16.5 22.5H7.5C6.30653 22.5 5.16193 22.0259 4.31802 21.182C3.47411 20.3381 3 19.1935 3 18V6C3 4.80653 3.47411 3.66193 4.31802 2.81802C5.16193 1.97411 6.30653 1.5 7.5 1.5H11.6355C12.2267 1.49993 12.812 1.61634 13.3582 1.84257C13.9043 2.0688 14.4006 2.40043 14.8185 2.8185L19.6815 7.6815ZM16.275 11.475C16.3636 11.3568 16.4281 11.2223 16.4648 11.0792C16.5015 10.9361 16.5096 10.7872 16.4887 10.6409C16.4678 10.4946 16.4183 10.3539 16.343 10.2268C16.2678 10.0997 16.1682 9.98864 16.05 9.9C15.9318 9.81136 15.7973 9.74686 15.6542 9.7102C15.5111 9.67353 15.3622 9.66541 15.2159 9.68631C15.0696 9.7072 14.9289 9.75669 14.8018 9.83197C14.6747 9.90724 14.5636 10.0068 14.475 10.125L11.2035 14.487L9.42 12.705C9.20674 12.5063 8.92467 12.3981 8.63322 12.4032C8.34176 12.4084 8.06369 12.5264 7.85757 12.7326C7.65145 12.9387 7.53338 13.2168 7.52824 13.5082C7.5231 13.7997 7.63128 14.0817 7.83 14.295L10.53 16.995C10.6439 17.1089 10.781 17.197 10.9319 17.2534C11.0829 17.3097 11.2442 17.333 11.4049 17.3216C11.5656 17.3102 11.722 17.2645 11.8635 17.1874C12.005 17.1104 12.1283 17.0038 12.225 16.875L16.275 11.475Z" fill="#393A3B"/>
</g>
</svg>
