<svg width="24" height="24" viewBox="0 0 24 24" fill="none" xmlns="http://www.w3.org/2000/svg">
<g id="iconName=EditThinIcon">
<path id="Union" d="M12.0001 2.5C12.2762 2.50006 12.5001 2.72389 12.5001 3C12.5001 3.27611 12.2762 3.49994 12.0001 3.5H5.00012C4.60232 3.5 4.22087 3.65818 3.93958 3.93945C3.65827 4.22076 3.50012 4.60218 3.50012 5V19C3.50012 19.3978 3.65827 19.7792 3.93958 20.0605C4.22087 20.3418 4.60232 20.5 5.00012 20.5H19.0001C19.3979 20.5 19.7794 20.3418 20.0607 20.0605C20.3419 19.7792 20.5001 19.3978 20.5001 19V12C20.5001 11.7239 20.724 11.5 21.0001 11.5C21.2762 11.5001 21.5001 11.7239 21.5001 12V19C21.5001 19.663 21.2365 20.2987 20.7677 20.7676C20.2989 21.2364 19.6631 21.5 19.0001 21.5H5.00012C4.33711 21.5 3.70138 21.2364 3.23254 20.7676C2.7637 20.2987 2.50012 19.663 2.50012 19V5C2.50012 4.33696 2.7637 3.70126 3.23254 3.23242C3.70138 2.76361 4.33711 2.5 5.00012 2.5H12.0001ZM19.8751 1.50391C20.5702 1.50397 21.2371 1.78004 21.7286 2.27148C22.2201 2.76301 22.4962 3.42992 22.4962 4.125C22.4962 4.82013 22.2201 5.48694 21.7286 5.97852L12.7159 14.9932C12.4192 15.2896 12.0521 15.5064 11.6495 15.624L8.77649 16.4639C8.60448 16.514 8.42175 16.5171 8.24817 16.4727C8.07457 16.4282 7.91593 16.3376 7.78918 16.2109C7.66252 16.0842 7.57194 15.9255 7.52747 15.752C7.48312 15.5785 7.4862 15.3965 7.53625 15.2246V15.2236L8.3761 12.3506L8.42493 12.2012C8.54977 11.8574 8.74917 11.5444 9.00891 11.2852L18.0216 2.27148C18.5132 1.78003 19.18 1.50393 19.8751 1.50391ZM19.8751 2.50391C19.4452 2.50393 19.0327 2.67459 18.7286 2.97852L9.71594 11.9932C9.58249 12.1264 9.47546 12.2833 9.40051 12.4551L9.33606 12.6318L8.49622 15.5029L11.3693 14.6641C11.5502 14.6112 11.7192 14.5249 11.8673 14.4102L12.0089 14.2852L21.0216 5.27148C21.3256 4.96744 21.4962 4.55492 21.4962 4.125C21.4962 3.69513 21.3255 3.28251 21.0216 2.97852C20.7176 2.67461 20.305 2.50397 19.8751 2.50391Z" fill="#393A3B"/>
</g>
</svg>
