<svg width="24" height="24" viewBox="0 0 24 24" fill="none" xmlns="http://www.w3.org/2000/svg">
<g id="iconName=EyeIcon">
<path id="Union" d="M11.9998 4C17.1158 4 21.1967 7.19421 22.9315 11.6357C23.0228 11.8697 23.0228 12.1303 22.9315 12.3643C21.1967 16.8058 17.1158 20 11.9998 20C6.88388 19.9999 2.80288 16.8058 1.06818 12.3643C0.976853 12.1304 0.976853 11.8696 1.06818 11.6357C2.80288 7.19423 6.88388 4.00006 11.9998 4ZM11.9998 6C7.92553 6.00006 4.61888 8.44383 3.08087 12C4.61888 15.5562 7.92553 17.9999 11.9998 18C16.074 18 19.3797 15.556 20.9178 12C19.3797 8.44401 16.074 6 11.9998 6ZM11.9998 8C13.0606 8 14.0778 8.42178 14.8279 9.17188C15.5781 9.92202 15.9998 10.9391 15.9998 12C15.9998 13.0609 15.5781 14.078 14.8279 14.8281C14.0778 15.5782 13.0606 16 11.9998 16C10.939 16 9.9218 15.5782 9.17169 14.8281C8.42159 14.078 7.99982 13.0608 7.99982 12C7.99982 10.9392 8.42159 9.92201 9.17169 9.17188C9.9218 8.42177 10.939 8.00004 11.9998 8ZM11.9998 10C11.4694 10 10.9608 10.2109 10.5858 10.5859C10.2107 10.961 9.99982 11.4696 9.99982 12C9.99982 12.5304 10.2107 13.039 10.5858 13.4141C10.9608 13.7891 11.4694 14 11.9998 14C12.5302 14 13.0388 13.7891 13.4139 13.4141C13.789 13.039 13.9998 12.5304 13.9998 12C13.9998 11.4696 13.789 10.961 13.4139 10.5859C13.0388 10.2109 12.5302 10 11.9998 10Z" fill="#393A3B"/>
</g>
</svg>
