<svg width="24" height="24" viewBox="0 0 24 24" fill="none" xmlns="http://www.w3.org/2000/svg">
<g id="iconName=HandshakeIcon">
<path id="Vector" d="M13.5682 2.0498C15.067 1.8651 16.5853 2.18544 17.8817 2.95996L18.3514 3.24023L18.3572 3.24316C18.5436 3.35554 18.7606 3.40381 18.9754 3.38184L19.0672 3.36816L20.0115 3.17773L20.0037 3.09082C19.9539 2.54104 20.3593 2.05412 20.909 2.00391C21.4589 1.95392 21.9457 2.35941 21.9959 2.90918L22.9959 13.9092C23.0213 14.189 22.9276 14.4673 22.7381 14.6748C22.5487 14.8821 22.2806 15 21.9998 15H21.1209C21.1208 15.8277 20.7921 16.6218 20.2068 17.207C19.6215 17.7922 18.8275 18.1211 17.9998 18.1211C17.8529 18.1211 17.7071 18.1102 17.5633 18.0898C17.5236 18.2964 17.4645 18.4991 17.3836 18.6943C17.2267 19.073 16.9967 19.4172 16.7068 19.707C16.417 19.9969 16.0728 20.2269 15.6942 20.3838C15.3155 20.5406 14.9096 20.6211 14.4998 20.6211C14.09 20.6211 13.6841 20.5406 13.3055 20.3838C13.1617 20.3242 13.0232 20.2538 12.8904 20.1738C12.735 20.5568 12.5048 20.9091 12.2068 21.207C11.6215 21.7924 10.8276 22.1211 9.99982 22.1211C9.17206 22.121 8.3781 21.7923 7.79279 21.207L1.29279 14.707C1.08307 14.4972 0.976863 14.2046 1.00372 13.9092L2.00372 2.90918C2.05394 2.35946 2.54086 1.95404 3.09064 2.00391C3.61006 2.05126 4.0003 2.48827 3.99982 3H10.8533C11.6752 2.49648 12.5995 2.16922 13.5682 2.0498ZM3.82208 5L3.0379 13.624L9.20685 19.793C9.41709 20.0032 9.7025 20.121 9.99982 20.1211C10.2972 20.1211 10.5825 20.0033 10.7928 19.793C11.0031 19.5827 11.1209 19.2974 11.1209 19C11.1209 18.7027 11.003 18.4173 10.7928 18.207L10.2928 17.707C9.90246 17.3165 9.90233 16.6834 10.2928 16.293C10.6832 15.9025 11.3163 15.9026 11.7068 16.293L13.7068 18.293C13.8109 18.397 13.9352 18.4798 14.0711 18.5361C14.207 18.5924 14.3528 18.6211 14.4998 18.6211C14.6469 18.6211 14.7926 18.5924 14.9285 18.5361C15.0646 18.4798 15.1887 18.3971 15.2928 18.293C15.3969 18.1888 15.4796 18.0648 15.5359 17.9287C15.5922 17.7928 15.6209 17.6471 15.6209 17.5C15.6209 17.353 15.5922 17.2072 15.5359 17.0713C15.4796 16.9353 15.3968 16.8111 15.2928 16.707L13.2928 14.707C12.9025 14.3165 12.9023 13.6824 13.2928 13.292C13.6831 12.9018 14.3163 12.9021 14.7068 13.292L17.2068 15.792C17.417 16.0022 17.7026 16.121 17.9998 16.1211C18.2972 16.1211 18.5825 16.0023 18.7928 15.792C19.0029 15.5818 19.1208 15.2972 19.1209 15C19.1209 14.7027 19.0029 14.4173 18.7928 14.207L14.9129 10.3262V10.3271C14.5379 9.95287 14.0296 9.74219 13.4998 9.74219C12.97 9.7423 12.4616 9.95272 12.0867 10.3271L12.0858 10.3262L11.2068 11.207C10.6215 11.7922 9.82748 12.1211 8.99982 12.1211C8.1722 12.121 7.37803 11.7922 6.79279 11.207C6.20766 10.6218 5.87885 9.82756 5.87872 9C5.87878 8.17225 6.20747 7.3773 6.79279 6.79199L8.58575 5H3.82208ZM16.8572 4.67773C15.9425 4.13091 14.871 3.90488 13.8133 4.03516C12.7555 4.16554 11.771 4.64488 11.0164 5.39746L8.20685 8.20703C7.99683 8.41724 7.87878 8.70285 7.87872 9C7.87885 9.29695 7.99703 9.58187 8.20685 9.79199C8.41704 10.0022 8.70258 10.121 8.99982 10.1211C9.29721 10.1211 9.5825 10.0023 9.79279 9.79199L10.6727 8.91211H10.6736C11.4235 8.16319 12.44 7.7423 13.4998 7.74219C14.4936 7.74219 15.4499 8.11195 16.1834 8.77539L16.327 8.91211L20.2068 12.792C20.2734 12.8585 20.3365 12.9283 20.3963 13H20.9041L20.1932 5.18066L19.4568 5.33008L19.4529 5.33105C18.7229 5.47471 17.9655 5.34133 17.3279 4.95801L16.8582 4.67871L16.8572 4.67773Z" fill="#393A3B"/>
</g>
</svg>
