<svg width="24" height="24" viewBox="0 0 24 24" fill="none" xmlns="http://www.w3.org/2000/svg">
<g clip-path="url(#clip0_1733_4200)">
<path d="M15.7969 3.02344C16.9844 3.52344 18.0195 4.21484 18.9023 5.09766C19.7852 5.98047 20.4766 7.01562 20.9766 8.20312C21.4922 9.39062 21.75 10.6562 21.75 12C21.75 13.3438 21.4922 14.6094 20.9766 15.7969C20.4766 16.9844 19.7852 18.0195 18.9023 18.9023C18.0195 19.7852 16.9844 20.4766 15.7969 20.9766C14.6094 21.4922 13.3438 21.75 12 21.75C10.6562 21.75 9.39062 21.4922 8.20312 20.9766C7.01562 20.4766 5.98047 19.7852 5.09766 18.9023C4.21484 18.0195 3.52344 16.9844 3.02344 15.7969C2.50781 14.6094 2.25 13.3438 2.25 12C2.25 10.6562 2.50781 9.39062 3.02344 8.20312C3.52344 7.01562 4.21484 5.98047 5.09766 5.09766C5.98047 4.21484 7.01562 3.52344 8.20312 3.02344C9.39062 2.50781 10.6562 2.25 12 2.25C13.3438 2.25 14.6094 2.50781 15.7969 3.02344ZM1.64062 16.3828C2.21875 17.7422 3.01953 18.9336 4.04297 19.957C5.06641 20.9805 6.25781 21.7812 7.61719 22.3594C8.99219 22.9531 10.4531 23.25 12 23.25C13.5469 23.25 15.0078 22.9531 16.3828 22.3594C17.7422 21.7812 18.9336 20.9805 19.957 19.957C20.9805 18.9336 21.7812 17.7422 22.3594 16.3828C22.9531 15.0078 23.25 13.5469 23.25 12C23.25 10.4531 22.9531 8.99219 22.3594 7.61719C21.7812 6.25781 20.9805 5.06641 19.957 4.04297C18.9336 3.01953 17.7422 2.21875 16.3828 1.64062C15.0078 1.04688 13.5469 0.75 12 0.75C10.4531 0.75 8.99219 1.04688 7.61719 1.64062C6.25781 2.21875 5.06641 3.01953 4.04297 4.04297C3.01953 5.06641 2.21875 6.25781 1.64062 7.61719C1.04688 8.99219 0.75 10.4531 0.75 12C0.75 13.5469 1.04688 15.0078 1.64062 16.3828ZM13.0547 12L16.0547 9L15 7.94531L12 10.9453L9 7.94531L7.94531 9L10.9453 12L7.94531 15L9 16.0547L12 13.0547L15 16.0547L16.0547 15L13.0547 12Z" fill="#1E1E1E"/>
</g>
<defs>
<clipPath id="clip0_1733_4200">
<rect width="24" height="24" fill="white"/>
</clipPath>
</defs>
</svg>
