<svg width="24" height="24" viewBox="0 0 24 24" fill="none" xmlns="http://www.w3.org/2000/svg">
<path d="M2.64844 2.64844C2.55469 2.74219 2.50781 2.85938 2.50781 3C2.50781 3.14062 2.55469 3.25781 2.64844 3.35156L11.2969 12L2.64844 20.6484C2.55469 20.7422 2.50781 20.8594 2.50781 21C2.50781 21.1406 2.55469 21.2578 2.64844 21.3516C2.74219 21.4453 2.85938 21.4922 3 21.4922C3.14062 21.4922 3.25781 21.4453 3.35156 21.3516L12 12.7031L20.6484 21.3516C20.7422 21.4453 20.8594 21.4922 21 21.4922C21.1406 21.4922 21.2578 21.4453 21.3516 21.3516C21.4453 21.2578 21.4922 21.1406 21.4922 21C21.4922 20.8594 21.4453 20.7422 21.3516 20.6484L12.7031 12L21.3516 3.35156C21.4453 3.25781 21.4922 3.14062 21.4922 3C21.4922 2.85938 21.4453 2.74219 21.3516 2.64844C21.2578 2.55469 21.1406 2.50781 21 2.50781C20.8594 2.50781 20.7422 2.55469 20.6484 2.64844L12 11.2969L3.35156 2.64844C3.25781 2.55469 3.14062 2.50781 3 2.50781C2.85938 2.50781 2.74219 2.55469 2.64844 2.64844Z" fill="#1E1E1E"/>
</svg>
