<svg width="24" height="24" viewBox="0 0 24 24" fill="none" xmlns="http://www.w3.org/2000/svg">
<g clip-path="url(#clip0_1733_4174)">
<path d="M0.304688 2.39062C0.304688 1.8125 0.507812 1.32031 0.914062 0.914062C1.32031 0.507812 1.8125 0.304688 2.39062 0.304688H21.6094C22.1875 0.304688 22.6797 0.507812 23.0859 0.914062C23.4922 1.32031 23.6953 1.8125 23.6953 2.39062V16.1484C23.6953 16.2109 23.6914 16.2813 23.6836 16.3594C23.6758 16.4375 23.6641 16.5156 23.6484 16.5938C23.6484 16.5938 23.6562 16.6016 23.6719 16.6172C23.7031 16.7109 23.7109 16.8047 23.6953 16.8984C23.6797 16.9922 23.6328 17.0781 23.5547 17.1562L17.1562 23.5547C17.0781 23.6328 16.9922 23.6797 16.8984 23.6953C16.8047 23.7109 16.7109 23.7031 16.6172 23.6719C16.6016 23.6562 16.5938 23.6484 16.5938 23.6484C16.5156 23.6641 16.4375 23.6758 16.3594 23.6836C16.2813 23.6914 16.2109 23.6953 16.1484 23.6953H2.39062C1.8125 23.6953 1.32031 23.4922 0.914062 23.0859C0.507812 22.6797 0.304688 22.1875 0.304688 21.6094V2.39062ZM16.2891 16.8047C16.2891 16.6641 16.3398 16.543 16.4414 16.4414C16.543 16.3398 16.6641 16.2891 16.8047 16.2891H22.6875C22.6875 16.2734 22.6914 16.25 22.6992 16.2188C22.707 16.1875 22.7109 16.1641 22.7109 16.1484V2.39062C22.7109 2.09375 22.6016 1.83594 22.3828 1.61719C22.1641 1.39844 21.9063 1.28906 21.6094 1.28906H2.39062C2.09375 1.28906 1.83594 1.39844 1.61719 1.61719C1.39844 1.83594 1.28906 2.09375 1.28906 2.39062V21.6094C1.28906 21.9063 1.39844 22.1641 1.61719 22.3828C1.83594 22.6016 2.09375 22.7109 2.39062 22.7109H16.1484C16.1641 22.7109 16.1875 22.707 16.2188 22.6992C16.25 22.6914 16.2734 22.6875 16.2891 22.6875V16.8047ZM4.80469 6.09375V5.10938H19.1953V6.09375H4.80469ZM17.2969 21.9844L21.9844 17.2969H17.2969V21.9844Z" fill="#1E1E1E"/>
</g>
<defs>
<clipPath id="clip0_1733_4174">
<rect width="24" height="24" fill="white"/>
</clipPath>
</defs>
</svg>
