<svg width="24" height="24" viewBox="0 0 24 24" fill="none" xmlns="http://www.w3.org/2000/svg">
<path d="M4.99219 4.5C4.80469 4.5 4.61719 4.53906 4.42969 4.61719C4.24219 4.69531 4.07812 4.80469 3.9375 4.94531C3.79688 5.08594 3.6875 5.24609 3.60938 5.42578C3.53125 5.60547 3.49219 5.78906 3.49219 5.97656C3.55469 6.92969 3.70312 7.85938 3.9375 8.76562C4.15625 9.67188 4.45703 10.5508 4.83984 11.4023C5.22266 12.2539 5.67969 13.0625 6.21094 13.8281C6.74219 14.5938 7.34375 15.3125 8.01562 15.9844C8.6875 16.6562 9.40625 17.2578 10.1719 17.7891C10.9375 18.3203 11.7461 18.7773 12.5977 19.1602C13.4492 19.543 14.3281 19.8438 15.2344 20.0625C16.1406 20.2969 17.0703 20.4453 18.0234 20.5078C18.2109 20.5078 18.3945 20.4688 18.5742 20.3906C18.7539 20.3125 18.9141 20.2031 19.0547 20.0625C19.1953 19.9219 19.3047 19.7578 19.3828 19.5703C19.4609 19.3828 19.5 19.1953 19.5 19.0078V15.3281L15.2109 13.6172L13.9219 15.75C13.8594 15.8594 13.7656 15.9336 13.6406 15.9727C13.5156 16.0117 13.3984 16 13.2891 15.9375C12.7109 15.6719 12.1719 15.3516 11.6719 14.9766C11.1562 14.6172 10.6758 14.2148 10.2305 13.7695C9.78516 13.3242 9.38281 12.8438 9.02344 12.3281C8.64844 11.8281 8.32812 11.2891 8.0625 10.7109C8 10.6016 7.98828 10.4844 8.02734 10.3594C8.06641 10.2344 8.14062 10.1406 8.25 10.0781L10.3828 8.78906L8.67188 4.5H4.99219ZM4.99219 3.49219H9C9.10938 3.49219 9.20312 3.52344 9.28125 3.58594C9.35938 3.64844 9.42188 3.72656 9.46875 3.82031L11.4609 8.8125C11.5078 8.92188 11.5117 9.03516 11.4727 9.15234C11.4336 9.26953 11.3594 9.35938 11.25 9.42188L9.16406 10.6875C9.64844 11.5625 10.2422 12.3516 10.9453 13.0547C11.6484 13.7578 12.4375 14.3516 13.3125 14.8359L14.5781 12.75C14.6406 12.6406 14.7305 12.5664 14.8477 12.5273C14.9648 12.4883 15.0781 12.4922 15.1875 12.5391L20.1797 14.5312C20.2734 14.5781 20.3516 14.6406 20.4141 14.7188C20.4766 14.7969 20.5078 14.8906 20.5078 15V19.0078C20.5078 19.3359 20.4414 19.6523 20.3086 19.957C20.1758 20.2617 19.9922 20.5312 19.7578 20.7656C19.5234 21 19.2539 21.1797 18.9492 21.3047C18.6445 21.4297 18.3281 21.4922 18 21.4922C18 21.4922 17.9961 21.4922 17.9883 21.4922C17.9805 21.4922 17.9766 21.4922 17.9766 21.4922C16.9609 21.4297 15.9688 21.2812 15 21.0469C14.0312 20.8125 13.0977 20.4883 12.1992 20.0742C11.3008 19.6602 10.4375 19.1719 9.60938 18.6094C8.78125 18.0469 8.01562 17.4062 7.3125 16.6875C6.59375 15.9844 5.95312 15.2188 5.39062 14.3906C4.82812 13.5625 4.33984 12.6992 3.92578 11.8008C3.51172 10.9023 3.1875 9.96875 2.95312 9C2.71875 8.03125 2.57031 7.03906 2.50781 6.02344C2.50781 6.02344 2.50781 6.01953 2.50781 6.01172C2.50781 6.00391 2.50781 6 2.50781 6C2.50781 5.67188 2.57031 5.35547 2.69531 5.05078C2.82031 4.74609 3 4.47656 3.23438 4.24219C3.46875 4.00781 3.73828 3.82422 4.04297 3.69141C4.34766 3.55859 4.66406 3.49219 4.99219 3.49219ZM14.5078 7.00781C14.5078 7.14844 14.5547 7.26562 14.6484 7.35938C14.7422 7.45312 14.8594 7.5 15 7.5C15.2031 7.5 15.3945 7.53906 15.5742 7.61719C15.7539 7.69531 15.9141 7.80469 16.0547 7.94531C16.1953 8.08594 16.3047 8.24609 16.3828 8.42578C16.4609 8.60547 16.5 8.79688 16.5 9C16.5 9.14062 16.5469 9.25781 16.6406 9.35156C16.7344 9.44531 16.8516 9.49219 16.9922 9.49219C17.1328 9.49219 17.2539 9.44531 17.3555 9.35156C17.457 9.25781 17.5078 9.14062 17.5078 9C17.5078 8.67188 17.4414 8.35547 17.3086 8.05078C17.1758 7.74609 16.9922 7.47656 16.7578 7.24219C16.5234 7.00781 16.2539 6.82422 15.9492 6.69141C15.6445 6.55859 15.3281 6.49219 15 6.49219C14.8594 6.49219 14.7422 6.54297 14.6484 6.64453C14.5547 6.74609 14.5078 6.86719 14.5078 7.00781ZM14.5078 3C14.5078 3.14062 14.5547 3.25781 14.6484 3.35156C14.7422 3.44531 14.8594 3.49219 15 3.49219C15.7344 3.49219 16.4375 3.63281 17.1094 3.91406C17.7812 4.19531 18.375 4.59375 18.8906 5.10938C19.4062 5.625 19.8047 6.21875 20.0859 6.89062C20.3672 7.5625 20.5078 8.26562 20.5078 9C20.5078 9.14062 20.5547 9.25781 20.6484 9.35156C20.7422 9.44531 20.8594 9.49219 21 9.49219C21.1406 9.49219 21.2578 9.44531 21.3516 9.35156C21.4453 9.25781 21.4922 9.14062 21.4922 9C21.4922 8.14062 21.3281 7.3125 21 6.51562C20.6719 5.71875 20.2031 5.01562 19.5938 4.40625C18.9844 3.79688 18.2812 3.32812 17.4844 3C16.6875 2.67188 15.8594 2.50781 15 2.50781C14.8594 2.50781 14.7422 2.55469 14.6484 2.64844C14.5547 2.74219 14.5078 2.85938 14.5078 3Z" fill="#1E1E1E"/>
</svg>
