<svg width="24" height="24" viewBox="0 0 24 24" fill="none" xmlns="http://www.w3.org/2000/svg">
<g clip-path="url(#clip0_1733_4183)">
<path d="M22.6175 0.97249C22 1.03374 7.46129 2.51374 3.92754 6.04874C2.17879 7.79749 1.10629 10.4287 0.985038 13.2675C0.861288 16.165 1.77129 18.8087 3.48129 20.5187C5.08879 22.1262 7.52004 23.0262 10.2125 23.0262C10.385 23.0262 10.5588 23.0225 10.7325 23.015C13.5713 22.8937 16.2025 21.8212 17.9513 20.0725C21.485 16.5387 22.9663 1.99999 23.0275 1.38249L23.0725 0.92749L22.6175 0.97249ZM21.1063 9.20499C20.065 14.5975 18.7913 18.1725 17.4213 19.5412C15.8275 21.135 13.315 22.1537 10.7 22.265C8.16379 22.3712 5.85004 21.6387 4.28504 20.2437L14.3425 10.1862L13.8125 9.65624L3.75504 19.7137C2.36004 18.1487 1.62629 15.835 1.73379 13.2987C1.84504 10.685 2.86379 8.17249 4.45754 6.57749C5.82754 5.20874 9.40129 3.93374 14.7938 2.89249C18.0675 2.25999 21.1063 1.89249 22.2313 1.76749C22.105 2.89249 21.7375 5.93124 21.1063 9.20499Z" fill="#1E1E1E"/>
</g>
<defs>
<clipPath id="clip0_1733_4183">
<rect width="24" height="24" fill="white"/>
</clipPath>
</defs>
</svg>
