<svg width="22" height="24" viewBox="0 0 22 24" fill="none" xmlns="http://www.w3.org/2000/svg">
<g clip-path="url(#clip0_1733_4149)">
<path d="M15.2326 11.5738C12.0879 11.5738 9.52832 8.97814 9.52832 5.78631C9.52832 2.5944 12.0879 0 15.2326 0C18.3772 0 20.9368 2.59569 20.9368 5.7876C20.9368 8.97943 18.3785 11.5751 15.2326 11.5751V11.5738ZM15.2326 0.775972C12.5098 0.775972 10.2932 3.02374 10.2932 5.7876C10.2932 8.55137 12.5086 10.7991 15.2326 10.7991C17.9566 10.7991 20.172 8.55137 20.172 5.7876C20.172 3.02374 17.9566 0.775972 15.2326 0.775972Z" fill="#1E1E1E"/>
<path d="M5.35641 16.1781C3.29899 16.1781 1.62402 14.4799 1.62402 12.3913C1.62402 10.3026 3.29772 8.60449 5.35641 8.60449C7.41502 8.60449 9.08871 10.3026 9.08871 12.3913C9.08871 14.4799 7.41502 16.1781 5.35641 16.1781ZM5.35641 9.38175C3.71961 9.38175 2.38886 10.732 2.38886 12.3925C2.38886 14.0532 3.71969 15.4034 5.35632 15.4034C6.99304 15.4034 8.32387 14.0532 8.32387 12.3925C8.32387 10.732 6.99304 9.38175 5.35641 9.38175Z" fill="#1E1E1E"/>
<path d="M17.9044 14.0169H12.5609C10.5341 14.0169 8.84764 15.5185 8.52136 17.4817C8.34798 17.4468 8.1708 17.4287 7.99235 17.4287H2.72022C1.2199 17.4287 0 18.6677 0 20.1886V24H0.764838V20.1886C0.764838 19.0945 1.64179 18.2047 2.72022 18.2047H7.99108C8.15168 18.2047 8.30974 18.2266 8.46272 18.2641V24H9.22756V18.1723C9.22756 18.1297 9.25684 17.7261 9.25684 17.7261C9.47227 16.072 10.8706 14.7916 12.5596 14.7916H17.9031C19.7399 14.7916 21.2352 16.3087 21.2352 18.1723V24H22V18.1723C22 15.8805 20.1619 14.0156 17.9031 14.0156L17.9044 14.0169Z" fill="#1E1E1E"/>
</g>
<defs>
<clipPath id="clip0_1733_4149">
<rect width="22" height="24" fill="white"/>
</clipPath>
</defs>
</svg>
