<svg width="24" height="24" viewBox="0 0 24 24" fill="none" xmlns="http://www.w3.org/2000/svg">
<path d="M11.6484 4.64062C11.5547 4.73438 11.5078 4.85156 11.5078 4.99219C11.5078 5.13281 11.5547 5.25 11.6484 5.34375L17.7891 11.4844H4.99219C4.85156 11.4844 4.73438 11.5352 4.64062 11.6367C4.54688 11.7383 4.5 11.8594 4.5 12C4.5 12.1406 4.54688 12.2578 4.64062 12.3516C4.73438 12.4453 4.85156 12.4922 4.99219 12.4922H17.7891L11.6484 18.6328C11.5547 18.7422 11.5078 18.8633 11.5078 18.9961C11.5078 19.1289 11.5547 19.2422 11.6484 19.3359C11.7422 19.4453 11.8594 19.5 12 19.5C12.1406 19.5 12.2578 19.4453 12.3516 19.3359L19.3594 12.3516C19.4062 12.3047 19.4414 12.25 19.4648 12.1875C19.4883 12.125 19.5 12.0625 19.5 12C19.5 11.9219 19.4883 11.8555 19.4648 11.8008C19.4414 11.7461 19.4062 11.6953 19.3594 11.6484L12.3516 4.64062C12.2578 4.54688 12.1406 4.5 12 4.5C11.8594 4.5 11.7422 4.54688 11.6484 4.64062Z" fill="#1E1E1E"/>
</svg>
