<svg width="24" height="24" viewBox="0 0 24 24" fill="none" xmlns="http://www.w3.org/2000/svg">
<g clip-path="url(#clip0_1733_4139)">
<path d="M7.60246 13.445H2.14746V8.86499H7.60246V13.445ZM2.89746 12.695H6.85246V9.61499H2.89746V12.695Z" fill="#1E1E1E"/>
<path d="M12.4787 14.49V0.63501H11.7287V14.4888H9.39746V19.0688H11.7287V23.3638H12.4787V19.0688H14.8525V14.4888L12.4787 14.49ZM14.1025 18.32H10.1475V15.24H14.1025V18.32Z" fill="#1E1E1E"/>
<path d="M19.4787 4.49001V0.63501H18.7287V4.48876H16.3975V9.06876H18.7287V23.3638H19.4787V9.06876H21.8525V4.48876L19.4787 4.49001ZM21.1025 8.32001H17.1475V5.24001H21.1025V8.32001Z" fill="#1E1E1E"/>
<path d="M5.22876 0.63501H4.47876V8.86376H5.22876V0.63501Z" fill="#1E1E1E"/>
<path d="M5.22876 13.4451H4.47876V23.3651H5.22876V13.4451Z" fill="#1E1E1E"/>
</g>
<defs>
<clipPath id="clip0_1733_4139">
<rect width="24" height="24" fill="white"/>
</clipPath>
</defs>
</svg>
