<svg width="24" height="24" viewBox="0 0 24 24" fill="none" xmlns="http://www.w3.org/2000/svg">
<g clip-path="url(#clip0_1733_4214)">
<path d="M0.585938 3.82031V20.1797C0.585938 20.7578 0.785156 21.2578 1.18359 21.6797C1.58203 22.1016 2.07031 22.3125 2.64844 22.3125H21.3516C21.9297 22.3125 22.418 22.1016 22.8164 21.6797C23.2148 21.2578 23.4141 20.7578 23.4141 20.1797V3.82031C23.4141 3.24219 23.2148 2.74219 22.8164 2.32031C22.418 1.89844 21.9297 1.6875 21.3516 1.6875H2.64844C2.07031 1.6875 1.58203 1.89844 1.18359 2.32031C0.785156 2.74219 0.585938 3.24219 0.585938 3.82031ZM2.64844 2.67188H21.3516C21.6328 2.67188 21.8789 2.78125 22.0898 3C22.3008 3.21875 22.4062 3.49219 22.4062 3.82031V6.79688L12 13.0547L1.59375 6.79688V3.82031C1.59375 3.49219 1.69922 3.21875 1.91016 3C2.12109 2.78125 2.36719 2.67188 2.64844 2.67188ZM22.4062 7.96875V20.1797C22.4062 20.5078 22.3008 20.7813 22.0898 21C21.8789 21.2187 21.6328 21.3281 21.3516 21.3281H2.64844C2.36719 21.3281 2.12109 21.2187 1.91016 21C1.69922 20.7813 1.59375 20.5078 1.59375 20.1797V7.96875L12 14.2266L22.4062 7.96875Z" fill="#1E1E1E"/>
</g>
<defs>
<clipPath id="clip0_1733_4214">
<rect width="24" height="24" fill="white"/>
</clipPath>
</defs>
</svg>
