<svg width="24" height="24" viewBox="0 0 24 24" fill="none" xmlns="http://www.w3.org/2000/svg">
<g clip-path="url(#clip0_1733_4143)">
<path d="M23.0848 21.7823H0.914795V22.5323H23.0848V21.7823Z" fill="#1E1E1E"/>
<path d="M12.0723 12.4435H7.38855V16.3773H3.45479V21.061H16.0073V16.3773H12.0735L12.0723 12.4435ZM7.3873 20.311H4.20355V17.1273H7.3873V20.311ZM11.3223 20.311H8.13855V17.1273H11.3223V20.311ZM15.256 17.1273V20.311H12.0723V17.1273H15.256ZM8.1373 16.3773V13.1935H11.321V16.3773H8.1373Z" fill="#1E1E1E"/>
<path d="M5.42104 1.46729V6.15104H17.2235V10.0548H21.9073V1.46729H5.42104ZM9.35479 5.40229H6.17104V2.21854H9.35479V5.40229ZM13.2885 5.40229H10.1048V2.21854H13.2885V5.40229ZM14.0385 5.40229V2.21854H17.2223V5.40229H14.0385ZM21.1573 9.30604H17.9735V6.15229H21.1573V9.30604ZM17.9723 5.37104V2.21729H21.156V5.37104H17.9723Z" fill="#1E1E1E"/>
</g>
<defs>
<clipPath id="clip0_1733_4143">
<rect width="24" height="24" fill="white"/>
</clipPath>
</defs>
</svg>
