<svg width="24" height="24" viewBox="0 0 24 24" fill="none" xmlns="http://www.w3.org/2000/svg">
<g clip-path="url(#clip0_1733_4196)">
<path d="M7.42969 16.1484L7.14844 16.5469L6.32812 15.9844L6.60938 15.5625L7.42969 16.1484ZM15.375 16.1484L16.1719 15.5625L16.4766 15.9844L15.6562 16.5469L15.375 16.1484ZM11.3906 22.2891V23.2969C9.90625 23.2969 8.51562 23 7.21875 22.4062C5.92188 21.8125 4.78906 21.0039 3.82031 19.9805C2.85156 18.957 2.09375 17.7578 1.54688 16.3828C0.984375 15.0078 0.703125 13.5469 0.703125 12H1.71094C1.71094 13.4219 1.96094 14.7656 2.46094 16.0312C2.97656 17.2812 3.67188 18.3711 4.54688 19.3008C5.42187 20.2305 6.45312 20.9609 7.64062 21.4922C8.8125 22.0234 10.0625 22.2891 11.3906 22.2891ZM21.0938 12H22.1016C22.1016 13.5469 21.8203 15.0078 21.2578 16.3828C20.6953 17.7578 19.9336 18.957 18.9727 19.9805C18.0117 21.0039 16.8828 21.8125 15.5859 22.4062C14.2734 23 12.875 23.2969 11.3906 23.2969V22.2891C12.7344 22.2891 13.9922 22.0234 15.1641 21.4922C16.3359 20.9609 17.3633 20.2305 18.2461 19.3008C19.1289 18.3711 19.8281 17.2812 20.3438 16.0312C20.8438 14.7656 21.0938 13.4219 21.0938 12ZM11.3906 1.71094V0.703125C12.875 0.703125 14.2734 1 15.5859 1.59375C16.8828 2.1875 18.0117 2.99609 18.9727 4.01953C19.9336 5.04297 20.6953 6.24219 21.2578 7.61719C21.8203 8.99219 22.1016 10.4531 22.1016 12H21.0938C21.0938 10.5781 20.8438 9.23438 20.3438 7.96875C19.8281 6.71875 19.1289 5.62891 18.2461 4.69922C17.3633 3.76953 16.3359 3.03906 15.1641 2.50781C13.9922 1.97656 12.7344 1.71094 11.3906 1.71094ZM11.3906 0.703125V1.71094C10.0625 1.71094 8.8125 1.97656 7.64062 2.50781C6.45312 3.03906 5.42187 3.76953 4.54688 4.69922C3.67188 5.62891 2.97656 6.71875 2.46094 7.96875C1.96094 9.23438 1.71094 10.5781 1.71094 12H0.703125C0.703125 10.4531 0.984375 8.99219 1.54688 7.61719C2.09375 6.24219 2.85156 5.04297 3.82031 4.01953C4.78906 2.99609 5.92188 2.1875 7.21875 1.59375C8.51562 1 9.90625 0.703125 11.3906 0.703125ZM6.30469 8.41406H7.75781V9.42188H6.30469V8.41406ZM15.0469 8.41406H16.5V9.42188H15.0469V8.41406ZM16.1719 15.5625L15.375 16.1484C14.875 15.4453 14.2734 14.9219 13.5703 14.5781C12.8672 14.2188 12.1445 14.0391 11.4023 14.0391C10.6602 14.0391 9.9375 14.2188 9.23438 14.5781C8.53125 14.9219 7.92969 15.4453 7.42969 16.1484L6.60938 15.5625C7.21875 14.7188 7.94531 14.0859 8.78906 13.6641C9.63281 13.2422 10.5039 13.0312 11.4023 13.0312C12.3008 13.0312 13.1719 13.2422 14.0156 13.6641C14.8594 14.0859 15.5781 14.7188 16.1719 15.5625Z" fill="#1E1E1E"/>
</g>
<defs>
<clipPath id="clip0_1733_4196">
<rect width="24" height="24" fill="white"/>
</clipPath>
</defs>
</svg>
