<svg width="24" height="24" viewBox="0 0 24 24" fill="none" xmlns="http://www.w3.org/2000/svg">
<g clip-path="url(#clip0_1733_4216)">
<path d="M4.00781 1.28906H16.5938L21.0938 5.8125V7.99219H22.1016V5.39062L17.0156 0.304688H4.00781C3.42969 0.304688 2.93359 0.507812 2.51953 0.914062C2.10547 1.32031 1.89844 1.8125 1.89844 2.39062V7.99219H2.90625V2.39062C2.90625 2.09375 3.01172 1.83594 3.22266 1.61719C3.43359 1.39844 3.69531 1.28906 4.00781 1.28906ZM16.2891 17.6016H17.2969V14.1094H19.1953V13.1016H17.2969V10.8984H20.7891V9.89062H17.2969V9.60938H16.2891V17.6016ZM3.49219 9.89062V17.6016H4.5V14.1094H5.60156C6.17969 14.1094 6.67578 13.9023 7.08984 13.4883C7.50391 13.0742 7.71094 12.5781 7.71094 12C7.71094 11.4219 7.50391 10.9258 7.08984 10.5117C6.67578 10.0977 6.17969 9.89062 5.60156 9.89062H3.49219ZM4.5 10.8984H5.60156C5.89844 10.8984 6.15625 11.0078 6.375 11.2266C6.59375 11.4453 6.70312 11.7031 6.70312 12C6.70312 12.2969 6.59375 12.5547 6.375 12.7734C6.15625 12.9922 5.89844 13.1016 5.60156 13.1016H4.5V10.8984ZM9.89062 17.2969H12C12.5781 17.2969 13.0742 17.0938 13.4883 16.6875C13.9023 16.2812 14.1094 15.7891 14.1094 15.2109V12C14.1094 11.4219 13.9023 10.9258 13.4883 10.5117C13.0742 10.0977 12.5781 9.89062 12 9.89062H9.89062V17.2969ZM10.8984 10.8984V16.2891H12C12.2969 16.2891 12.5547 16.1836 12.7734 15.9727C12.9922 15.7617 13.1016 15.5078 13.1016 15.2109V12C13.1016 11.7031 12.9922 11.4453 12.7734 11.2266C12.5547 11.0078 12.2969 10.8984 12 10.8984H10.8984ZM1.89844 21.6094C1.89844 22.1875 2.10547 22.6797 2.51953 23.0859C2.93359 23.4922 3.42969 23.6953 4.00781 23.6953H19.9922C20.5703 23.6953 21.0664 23.4922 21.4805 23.0859C21.8945 22.6797 22.1016 22.1875 22.1016 21.6094V19.1953H21.0938V21.6094C21.0938 21.9063 20.9883 22.1641 20.7773 22.3828C20.5664 22.6016 20.3047 22.7109 19.9922 22.7109H4.00781C3.69531 22.7109 3.43359 22.6016 3.22266 22.3828C3.01172 22.1641 2.90625 21.9063 2.90625 21.6094V19.1953H1.89844V21.6094Z" fill="#1E1E1E"/>
</g>
<defs>
<clipPath id="clip0_1733_4216">
<rect width="24" height="24" fill="white"/>
</clipPath>
</defs>
</svg>
