<svg width="24" height="24" viewBox="0 0 24 24" fill="none" xmlns="http://www.w3.org/2000/svg">
<g clip-path="url(#clip0_1733_4169)">
<path d="M11.8849 9.41247C9.28965 9.41247 7.17798 7.30088 7.17798 4.70557C7.17798 2.11035 9.28965 0 11.8849 0C14.4802 0 16.5918 2.11167 16.5918 4.7069C16.5918 7.30212 14.4802 9.41379 11.8849 9.41379V9.41247ZM11.8849 0.775862C9.71767 0.775862 7.95384 2.5397 7.95384 4.7069C7.95384 6.87418 9.71767 8.63793 11.8849 8.63793C14.0522 8.63793 15.8159 6.87418 15.8159 4.7069C15.8159 2.53961 14.0522 0.775862 11.8849 0.775862Z" fill="#1E1E1E"/>
<path d="M18.6854 18.9646H17.9095V14.6133C17.9095 13.165 16.7315 11.987 15.2832 11.987H8.48668C7.0384 11.987 5.86033 13.165 5.86033 14.6133V18.9646H5.08456L5.08447 14.6133C5.08447 12.737 6.61038 11.2112 8.48668 11.2112H15.2832C17.1595 11.2112 18.6854 12.737 18.6854 14.6133V18.9646Z" fill="#1E1E1E"/>
<path d="M11.9302 23.3896C8.80866 23.3896 5.86808 23.003 3.65172 22.3021C0.6336 21.3478 0 20.1698 0 19.3512C0 18.5327 0.632359 17.356 3.64659 16.4016L3.88063 17.1413C1.93581 17.7568 0.775862 18.5831 0.775862 19.3512C0.775862 20.8939 5.3573 22.6137 11.9302 22.6137C18.503 22.6137 23.0844 20.8939 23.0844 19.3512C23.0844 18.5818 21.922 17.7556 19.9733 17.14L20.2073 16.4004C23.2267 17.3547 23.8603 18.5327 23.8603 19.3526C23.8603 20.1724 23.2267 21.3491 20.2087 22.3034C17.9922 23.0043 15.0517 23.3909 11.9302 23.3909V23.3896Z" fill="#1E1E1E"/>
</g>
<defs>
<clipPath id="clip0_1733_4169">
<rect width="24" height="24" fill="white"/>
</clipPath>
</defs>
</svg>
