<svg width="24" height="24" viewBox="0 0 24 24" fill="none" xmlns="http://www.w3.org/2000/svg">
<g clip-path="url(#clip0_1733_4215)">
<path d="M4.17612 15.7441C5.29612 14.5601 7.12012 14.4641 8.25612 15.5361C9.39212 16.6081 9.39212 18.4321 8.25612 19.6161C7.12012 20.8001 1.12012 23.0721 1.12012 23.0721C1.12012 23.0721 3.05612 16.9281 4.17612 15.7441Z" fill="white" stroke="#1E1E1E" stroke-width="1.54667" stroke-miterlimit="10"/>
<path d="M10.3041 6.84796C11.7281 7.40796 11.0721 11.408 9.50411 11.056C6.76811 10.448 2.46411 14.448 2.46411 14.448C2.46411 14.448 4.35211 4.52796 10.3041 6.84796Z" fill="white" stroke="#1E1E1E" stroke-width="1.54667" stroke-miterlimit="10"/>
<path d="M17.5999 14.016C17.0239 12.592 13.0399 13.328 13.4079 14.88C14.0639 17.6 10.1279 21.968 10.1279 21.968C10.1279 21.968 20.0159 19.92 17.5999 14.016Z" fill="white" stroke="#1E1E1E" stroke-width="1.54667" stroke-miterlimit="10"/>
<path d="M12.496 16.7521C12.496 16.7521 19.536 12.3521 20.08 11.8561C22.432 9.69607 23.44 0.768066 23.44 0.768066C23.44 0.768066 15.392 2.04807 13.04 4.20807C12.496 4.70407 7.96802 11.6321 7.96802 11.6321L12.496 16.7521Z" fill="white" stroke="#1E1E1E" stroke-width="1.54667" stroke-miterlimit="10"/>
<path d="M17.12 9.23202C18.2688 9.23202 19.2 8.30077 19.2 7.15202C19.2 6.00327 18.2688 5.07202 17.12 5.07202C15.9713 5.07202 15.04 6.00327 15.04 7.15202C15.04 8.30077 15.9713 9.23202 17.12 9.23202Z" fill="white" stroke="#1E1E1E" stroke-width="1.54667" stroke-miterlimit="10"/>
</g>
<defs>
<clipPath id="clip0_1733_4215">
<rect width="24" height="24" fill="white"/>
</clipPath>
</defs>
</svg>
