<svg width="24" height="24" viewBox="0 0 24 24" fill="none" xmlns="http://www.w3.org/2000/svg">
<path d="M4.38281 1.5H3V2.50781H4.38281V1.5ZM9.89062 1.5H8.50781V2.50781H9.89062V1.5ZM15.4219 1.5H14.0391V2.50781H15.4219V1.5ZM7.33594 5.57812V20.1328H12.6562V19.1484H8.32031V6.5625H21.1172V10.8281H22.125V5.57812H7.33594ZM4.38281 6.9375H3V7.92188H4.38281V6.9375ZM12.9844 11.1562C12.9219 11.2188 12.8789 11.293 12.8555 11.3789C12.832 11.4648 12.8359 11.5547 12.8672 11.6484L15.6328 21.1406C15.6484 21.2344 15.6992 21.3164 15.7852 21.3867C15.8711 21.457 15.9688 21.4922 16.0781 21.4922C16.1719 21.5078 16.2656 21.4883 16.3594 21.4336C16.4531 21.3789 16.5234 21.3047 16.5703 21.2109L18.5625 16.6406L23.2031 14.6719C23.2969 14.625 23.3711 14.5586 23.4258 14.4727C23.4805 14.3867 23.5078 14.2891 23.5078 14.1797C23.4922 14.0703 23.4531 13.9766 23.3906 13.8984C23.3281 13.8203 23.2422 13.7656 23.1328 13.7344L13.4766 11.0156C13.3984 11 13.3125 11.0039 13.2188 11.0273C13.125 11.0508 13.0469 11.0937 12.9844 11.1562ZM14.0859 12.2344L21.4922 14.3203L17.9766 15.7969C17.9141 15.8125 17.8594 15.8438 17.8125 15.8906C17.7656 15.9375 17.7344 15.9922 17.7188 16.0547L16.1953 19.5234L14.0859 12.2344ZM4.38281 12.3516H3V13.3594H4.38281V12.3516Z" fill="#1E1E1E"/>
</svg>
