<svg width="24" height="24" viewBox="0 0 24 24" fill="none" xmlns="http://www.w3.org/2000/svg">
<path d="M5.10938 3.49219C4.90625 3.49219 4.70313 3.53516 4.5 3.62109C4.29687 3.70703 4.125 3.82813 3.98438 3.98438C3.82813 4.125 3.70703 4.29297 3.62109 4.48828C3.53516 4.68359 3.49219 4.89063 3.49219 5.10938C3.55469 6.10938 3.71094 7.09375 3.96094 8.0625C4.19531 9.01563 4.51562 9.94141 4.92188 10.8398C5.32813 11.7383 5.8125 12.6016 6.375 13.4297C6.9375 14.2422 7.57031 15.0078 8.27344 15.7266C8.99219 16.4297 9.75781 17.0625 10.5703 17.625C11.3984 18.1875 12.2617 18.6719 13.1602 19.0781C14.0586 19.4844 14.9844 19.8047 15.9375 20.0391C16.9062 20.2891 17.8906 20.4453 18.8906 20.5078C19.1094 20.5078 19.3164 20.4648 19.5117 20.3789C19.707 20.293 19.875 20.1719 20.0156 20.0156C20.1719 19.875 20.293 19.7031 20.3789 19.5C20.4648 19.2969 20.5078 19.0938 20.5078 18.8906V14.9766L15.9141 13.1484L14.5547 15.4453C14.4766 15.5547 14.375 15.625 14.25 15.6562C14.125 15.6875 14.0078 15.6797 13.8984 15.6328C13.3047 15.3359 12.7344 14.9922 12.1875 14.6016C11.6563 14.2109 11.1562 13.7812 10.6875 13.3125C10.2188 12.8438 9.78906 12.3437 9.39844 11.8125C9.00781 11.2656 8.66406 10.6953 8.36719 10.1016C8.32031 9.99219 8.3125 9.875 8.34375 9.75C8.375 9.625 8.44531 9.52344 8.55469 9.44531L10.8516 8.08594L9.02344 3.49219H5.10938ZM5.10938 2.50781H9.35156C9.46094 2.50781 9.55469 2.53516 9.63281 2.58984C9.71094 2.64453 9.77344 2.71875 9.82031 2.8125L11.9297 8.10938C11.9766 8.21875 11.9805 8.33203 11.9414 8.44922C11.9023 8.56641 11.8281 8.65625 11.7188 8.71875L9.49219 10.0781C9.99219 11.0156 10.6211 11.8633 11.3789 12.6211C12.1367 13.3789 12.9844 14.0078 13.9219 14.5078L15.2812 12.2812C15.3438 12.1719 15.4336 12.0977 15.5508 12.0586C15.668 12.0195 15.7813 12.0234 15.8906 12.0703L21.1875 14.1797C21.2812 14.2266 21.3555 14.2891 21.4102 14.3672C21.4648 14.4453 21.4922 14.5391 21.4922 14.6484V18.8906C21.4922 19.2344 21.4258 19.5664 21.293 19.8867C21.1602 20.207 20.9766 20.4922 20.7422 20.7422C20.4922 20.9766 20.207 21.1602 19.8867 21.293C19.5664 21.4258 19.2344 21.4922 18.8906 21.4922C18.875 21.4922 18.8672 21.4922 18.8672 21.4922C18.8672 21.4922 18.8594 21.4922 18.8438 21.4922C17.7813 21.4297 16.7422 21.2734 15.7266 21.0234C14.6953 20.7734 13.7031 20.4336 12.75 20.0039C11.7969 19.5742 10.8828 19.0547 10.0078 18.4453C9.13281 17.8516 8.32031 17.1797 7.57031 16.4297C6.82031 15.6797 6.14844 14.8672 5.55469 13.9922C4.94531 13.1172 4.42578 12.2031 3.99609 11.25C3.56641 10.2969 3.22656 9.30469 2.97656 8.27344C2.72656 7.25781 2.57031 6.21875 2.50781 5.15625C2.50781 5.14062 2.50781 5.13281 2.50781 5.13281C2.50781 5.13281 2.50781 5.125 2.50781 5.10938C2.50781 4.76562 2.57422 4.43359 2.70703 4.11328C2.83984 3.79297 3.02344 3.50781 3.25781 3.25781C3.50781 3.02344 3.79297 2.83984 4.11328 2.70703C4.43359 2.57422 4.76562 2.50781 5.10938 2.50781Z" fill="#1E1E1E"/>
</svg>
