<svg width="24" height="24" viewBox="0 0 24 24" fill="none" xmlns="http://www.w3.org/2000/svg">
<g clip-path="url(#clip0_1733_4023)">
<path d="M14.1562 11.1562C14.8281 10.875 15.4102 10.4844 15.9023 9.98438C16.3945 9.48438 16.7891 8.89844 17.0859 8.22656C17.3828 7.55469 17.5312 6.83594 17.5312 6.07031C17.5312 5.32031 17.3828 4.60938 17.0859 3.9375C16.7891 3.26562 16.3906 2.67969 15.8906 2.17969C15.3906 1.67969 14.8125 1.28125 14.1562 0.984375C13.4844 0.703125 12.7656 0.5625 12 0.5625C11.2344 0.5625 10.5156 0.703125 9.84375 0.984375C9.1875 1.28125 8.60938 1.67969 8.10938 2.17969C7.60938 2.67969 7.21094 3.26562 6.91406 3.9375C6.61719 4.60938 6.46875 5.32031 6.46875 6.07031C6.46875 6.83594 6.61719 7.55469 6.91406 8.22656C7.21094 8.89844 7.60938 9.48438 8.10938 9.98438C8.60938 10.4844 9.1875 10.875 9.84375 11.1562C10.5156 11.4531 11.2344 11.6016 12 11.6016C12.7656 11.6016 13.4844 11.4531 14.1562 11.1562ZM12 1.3125C12.6562 1.3125 13.2734 1.4375 13.8516 1.6875C14.4297 1.9375 14.9375 2.27734 15.375 2.70703C15.8125 3.13672 16.1562 3.64062 16.4062 4.21875C16.6562 4.79688 16.7812 5.41406 16.7812 6.07031C16.7812 6.72656 16.6562 7.34375 16.4062 7.92188C16.1562 8.51562 15.8125 9.02734 15.375 9.45703C14.9375 9.88672 14.4297 10.2266 13.8516 10.4766C13.2734 10.7266 12.6562 10.8516 12 10.8516C11.3438 10.8516 10.7266 10.7266 10.1484 10.4766C9.57031 10.2266 9.0625 9.88672 8.625 9.45703C8.1875 9.02734 7.84375 8.51562 7.59375 7.92188C7.34375 7.34375 7.21875 6.72656 7.21875 6.07031C7.21875 5.41406 7.34375 4.79688 7.59375 4.21875C7.84375 3.64062 8.1875 3.13672 8.625 2.70703C9.0625 2.27734 9.57031 1.9375 10.1484 1.6875C10.7266 1.4375 11.3438 1.3125 12 1.3125ZM20.0156 23.0625V17.8828C20.0156 16.7891 19.6289 15.8555 18.8555 15.082C18.082 14.3086 17.1484 13.9219 16.0547 13.9219H7.94531C6.85156 13.9219 5.91797 14.3086 5.14453 15.082C4.37109 15.8555 3.98438 16.7891 3.98438 17.8828V23.0625H4.73438V17.8828C4.73438 16.9922 5.04688 16.2344 5.67188 15.6094C6.29688 14.9844 7.05469 14.6719 7.94531 14.6719H16.0547C16.9453 14.6719 17.7031 14.9844 18.3281 15.6094C18.9531 16.2344 19.2656 16.9922 19.2656 17.8828V23.0625H20.0156Z" fill="#1E1E1E"/>
</g>
<defs>
<clipPath id="clip0_1733_4023">
<rect width="24" height="24" fill="white"/>
</clipPath>
</defs>
</svg>
