<svg width="24" height="24" viewBox="0 0 24 24" fill="none" xmlns="http://www.w3.org/2000/svg">
<path d="M5.0625 2.0625C4.89062 2.25 4.75391 2.46094 4.65234 2.69531C4.55078 2.92969 4.5 3.17969 4.5 3.44531V20.5547C4.5 20.8203 4.55078 21.0703 4.65234 21.3047C4.75391 21.5391 4.89062 21.75 5.0625 21.9375C5.25 22.1094 5.46094 22.2461 5.69531 22.3477C5.92969 22.4492 6.17188 22.5 6.42188 22.5H18.5625C18.8281 22.5 19.0781 22.4492 19.3125 22.3477C19.5469 22.2461 19.7578 22.1094 19.9453 21.9375C20.1172 21.75 20.2539 21.5391 20.3555 21.3047C20.457 21.0703 20.5078 20.8203 20.5078 20.5547V7.5H16.1953C15.9766 7.5 15.7617 7.45703 15.5508 7.37109C15.3398 7.28516 15.1562 7.16406 15 7.00781C14.8438 6.85156 14.7227 6.66797 14.6367 6.45703C14.5508 6.24609 14.5078 6.02344 14.5078 5.78906V1.5H6.42188C6.17188 1.5 5.92969 1.55078 5.69531 1.65234C5.46094 1.75391 5.25 1.89062 5.0625 2.0625ZM21.4922 7.05469C21.4922 7.07031 21.4922 7.08203 21.4922 7.08984C21.4922 7.09766 21.4922 7.10156 21.4922 7.10156V20.5547C21.4922 20.9453 21.418 21.3203 21.2695 21.6797C21.1211 22.0391 20.9141 22.3594 20.6484 22.6406C20.3672 22.9219 20.0469 23.1367 19.6875 23.2852C19.3281 23.4336 18.9531 23.5078 18.5625 23.5078H6.42188C6.03125 23.5078 5.65625 23.4336 5.29688 23.2852C4.9375 23.1367 4.625 22.9219 4.35938 22.6406C4.07812 22.3594 3.86328 22.0391 3.71484 21.6797C3.56641 21.3203 3.49219 20.9453 3.49219 20.5547V3.44531C3.49219 3.05469 3.56641 2.67969 3.71484 2.32031C3.86328 1.96094 4.07812 1.64062 4.35938 1.35938C4.625 1.07812 4.9375 0.863281 5.29688 0.714844C5.65625 0.566406 6.03125 0.492188 6.42188 0.492188H14.9297C14.9297 0.492188 14.9336 0.492188 14.9414 0.492188C14.9492 0.492188 14.9531 0.492188 14.9531 0.492188C14.9688 0.492188 14.9805 0.492188 14.9883 0.492188C14.9961 0.492188 15 0.492188 15 0.492188C15.1094 0.492188 15.207 0.523438 15.293 0.585938C15.3789 0.648438 15.4375 0.734375 15.4688 0.84375L21.1172 6.51562C21.2266 6.53125 21.3164 6.58594 21.3867 6.67969C21.457 6.77344 21.4922 6.88281 21.4922 7.00781C21.4922 7.00781 21.4922 7.01172 21.4922 7.01953C21.4922 7.02734 21.4922 7.03906 21.4922 7.05469ZM15.4922 2.27344V5.78906C15.4922 5.88281 15.5117 5.97266 15.5508 6.05859C15.5898 6.14453 15.6406 6.22656 15.7031 6.30469C15.7656 6.36719 15.8398 6.41406 15.9258 6.44531C16.0117 6.47656 16.1016 6.49219 16.1953 6.49219H19.6875L15.4922 2.27344Z" fill="#1E1E1E"/>
</svg>
