<svg width="24" height="24" viewBox="0 0 24 24" fill="none" xmlns="http://www.w3.org/2000/svg">
<g clip-path="url(#clip0_1733_4144)">
<path d="M4.73438 15.1875H9.51562V14.4375H4.73438V15.1875ZM14.4844 15.1875H19.2656V14.4375H14.4844V15.1875ZM4.73438 19.4062H9.51562V18.6562H4.73438V19.4062ZM14.4844 19.4062H19.2656V18.6562H14.4844V19.4062ZM19.2656 4.14844H23.0859V23.1094H0.914062V4.14844H4.73438V0.890625H5.48438V4.14844H18.5156V0.890625H19.2656V4.14844ZM4.73438 4.89844H1.66406V9.98438H22.3359V4.89844H19.2656V5.17969H18.5156V4.89844H5.48438V5.17969H4.73438V4.89844ZM1.66406 22.3594H22.3359V10.7344H1.66406V22.3594Z" fill="#1E1E1E"/>
</g>
<defs>
<clipPath id="clip0_1733_4144">
<rect width="24" height="24" fill="white"/>
</clipPath>
</defs>
</svg>
