<svg width="24" height="24" viewBox="0 0 24 24" fill="none" xmlns="http://www.w3.org/2000/svg">
<g clip-path="url(#clip0_1733_4180)">
<path d="M12 23.3672L12.1641 23.2969C12.2109 23.2656 12.7109 22.9336 13.6641 22.3008C14.6172 21.668 15.6641 20.6328 16.8047 19.1953C17.3203 18.5234 17.8516 17.7266 18.3984 16.8047C18.9453 15.8984 19.4375 14.8437 19.875 13.6406C20.3125 12.4375 20.6719 11.0937 20.9531 9.60938C21.2344 8.125 21.375 6.49219 21.375 4.71094V4.33594H21C20.2031 4.33594 19.3047 4.14844 18.3047 3.77344C17.2891 3.39844 16.332 2.98828 15.4336 2.54297C14.5352 2.09766 13.7734 1.6875 13.1484 1.3125C12.5391 0.9375 12.2266 0.742188 12.2109 0.726562L12 0.609375L11.8125 0.726562C11.7969 0.726562 11.4766 0.914062 10.8516 1.28906C10.2266 1.64844 9.46484 2.04688 8.56641 2.48438C7.66797 2.92187 6.71094 3.32812 5.69531 3.70312C4.69531 4.0625 3.79688 4.24219 3 4.24219H2.625V4.61719C2.625 6.41406 2.76562 8.0625 3.04688 9.5625C3.32812 11.0469 3.6875 12.3906 4.125 13.5938C4.5625 14.7969 5.05469 15.8594 5.60156 16.7812C6.14844 17.7188 6.67969 18.5156 7.19531 19.1719C8.33594 20.625 9.38281 21.668 10.3359 22.3008C11.2891 22.9336 11.7891 23.2656 11.8359 23.2969L12 23.3672ZM3.375 4.96875C4.14063 4.92188 4.97656 4.74219 5.88281 4.42969C6.77344 4.11719 7.62891 3.76953 8.44922 3.38672C9.26953 3.00391 10 2.625 10.6406 2.25C11.2969 1.89063 11.75 1.63281 12 1.47656C12.25 1.63281 12.6953 1.89844 13.3359 2.27344C13.9766 2.64844 14.7109 3.03516 15.5391 3.43359C16.3672 3.83203 17.2266 4.1875 18.1172 4.5C19.0234 4.82812 19.8594 5.01562 20.625 5.0625C20.6094 6.75 20.4609 8.28906 20.1797 9.67969C19.8984 11.0703 19.5508 12.3281 19.1367 13.4531C18.7227 14.5781 18.2578 15.5781 17.7422 16.4531C17.2266 17.3125 16.7266 18.0625 16.2422 18.7031C15.3203 19.8594 14.4531 20.7461 13.6406 21.3633C12.8281 21.9805 12.2812 22.3672 12 22.5234C11.7188 22.3672 11.1758 21.9844 10.3711 21.375C9.56641 20.7656 8.71094 19.875 7.80469 18.7031C7.30469 18.0781 6.79688 17.3281 6.28125 16.4531C5.76562 15.5781 5.29688 14.5742 4.875 13.4414C4.45312 12.3086 4.10156 11.0391 3.82031 9.63281C3.53906 8.22656 3.39063 6.67187 3.375 4.96875ZM12 14.6953L12.5391 14.1797L7.99219 9.30469L7.45312 9.82031L12 14.6953ZM11.4609 14.1797L12.0234 14.6953L18.1875 8.08594L17.625 7.57031L11.4609 14.1797Z" fill="#1E1E1E"/>
</g>
<defs>
<clipPath id="clip0_1733_4180">
<rect width="24" height="24" fill="white"/>
</clipPath>
</defs>
</svg>
