<svg width="24" height="24" viewBox="0 0 24 24" fill="none" xmlns="http://www.w3.org/2000/svg">
<g clip-path="url(#clip0_1733_4223)">
<path d="M21.2578 0.703125C21.8047 0.703125 22.2734 0.894531 22.6641 1.27734C23.0547 1.66016 23.25 2.125 23.25 2.67188V14.4141C23.25 14.9609 23.0547 15.4297 22.6641 15.8203C22.2734 16.2109 21.8047 16.4062 21.2578 16.4062H12.375V22.5469H20.5078V23.2969H3.49219V22.5469H11.625V16.4062H2.74219C2.19531 16.4062 1.72656 16.2109 1.33594 15.8203C0.945313 15.4297 0.75 14.9609 0.75 14.4141V2.69531C0.75 2.14844 0.945313 1.67969 1.33594 1.28906C1.72656 0.898438 2.19531 0.703125 2.74219 0.703125H21.2578ZM2.74219 1.45312C2.39844 1.45312 2.10547 1.57422 1.86328 1.81641C1.62109 2.05859 1.5 2.35156 1.5 2.69531V11.4609H22.5V2.69531C22.5 2.35156 22.3789 2.05859 22.1367 1.81641C21.8945 1.57422 21.6016 1.45312 21.2578 1.45312H2.74219ZM21.2578 15.6562C21.6016 15.6562 21.8945 15.5352 22.1367 15.293C22.3789 15.0508 22.5 14.7578 22.5 14.4141V12.2109H1.5V14.4141C1.5 14.7578 1.62109 15.0508 1.86328 15.293C2.10547 15.5352 2.39844 15.6562 2.74219 15.6562H21.2578ZM12.4805 13.4414C12.6133 13.5742 12.6797 13.7422 12.6797 13.9453C12.6797 14.1328 12.6133 14.293 12.4805 14.4258C12.3477 14.5586 12.1875 14.625 12 14.625C11.8125 14.625 11.6523 14.5586 11.5195 14.4258C11.3867 14.293 11.3203 14.1328 11.3203 13.9453C11.3203 13.7422 11.3867 13.5742 11.5195 13.4414C11.6523 13.3086 11.8125 13.2422 12 13.2422C12.1875 13.2422 12.3477 13.3086 12.4805 13.4414Z" fill="#1E1E1E"/>
</g>
<defs>
<clipPath id="clip0_1733_4223">
<rect width="24" height="24" fill="white"/>
</clipPath>
</defs>
</svg>
