<svg width="24" height="24" viewBox="0 0 24 24" fill="none" xmlns="http://www.w3.org/2000/svg">
<g clip-path="url(#clip0_1733_4141)">
<path d="M12 0.632812C13.5625 0.632812 15.0391 0.929688 16.4297 1.52344C17.8047 2.11719 19.0078 2.92969 20.0391 3.96094C21.0703 4.99219 21.8828 6.19531 22.4766 7.57031C23.0703 8.96094 23.3672 10.4375 23.3672 12C23.3672 13.5625 23.0703 15.0391 22.4766 16.4297C21.8828 17.8047 21.0703 19.0078 20.0391 20.0391C19.0078 21.0703 17.8047 21.8828 16.4297 22.4766C15.0391 23.0703 13.5625 23.3672 12 23.3672C10.4375 23.3672 8.96094 23.0703 7.57031 22.4766C6.19531 21.8828 4.99219 21.0703 3.96094 20.0391C2.92969 19.0078 2.11719 17.8047 1.52344 16.4297C0.929688 15.0391 0.632812 13.5625 0.632812 12C0.632812 10.4375 0.929688 8.96094 1.52344 7.57031C2.11719 6.19531 2.92969 4.99219 3.96094 3.96094C4.99219 2.92969 6.19531 2.11719 7.57031 1.52344C8.96094 0.929688 10.4375 0.632812 12 0.632812ZM22.3594 9.65625C22.0938 8.46875 21.6406 7.375 21 6.375C20.3594 5.35938 19.582 4.48047 18.668 3.73828C17.7539 2.99609 16.7344 2.41406 15.6094 1.99219C14.4688 1.58594 13.2656 1.38281 12 1.38281C11.5781 1.38281 11.168 1.40625 10.7695 1.45312C10.3711 1.5 9.97656 1.57031 9.58594 1.66406L9.32812 3.44531L10.8516 5.20312L13.0781 4.10156L13.2656 4.21875C13.9688 4.71875 14.3828 5.04688 14.5078 5.20312C14.6328 5.35938 14.6953 5.48438 14.6953 5.57812C14.7109 5.6875 14.7891 6.08984 14.9297 6.78516C15.0703 7.48047 15.2031 8.11719 15.3281 8.69531L18.2344 10.5469L16.8516 14.3672L17.4141 15.9375C17.5391 15.9531 17.6875 15.9766 17.8594 16.0078C18.0312 16.0391 18.2109 16.0703 18.3984 16.1016C18.5859 16.1328 18.75 16.1641 18.8906 16.1953C19.0312 16.2266 19.1562 16.2578 19.2656 16.2891C19.3438 15.8984 19.4531 15.3281 19.5938 14.5781C19.7344 13.8281 19.8594 13.1562 19.9688 12.5625V12.4688L22.3594 9.65625ZM1.38281 12C1.38281 13.4219 1.64844 14.7656 2.17969 16.0312C2.71094 17.2969 3.43359 18.4062 4.34766 19.3594C5.26172 20.3125 6.33594 21.0781 7.57031 21.6562C8.80469 22.2344 10.1328 22.5547 11.5547 22.6172L9.51562 21.5156L8.48438 19.6406L10.1484 17.625L10.8984 15.4219L9.14062 14.4375L5.0625 14.9766L4.5 12.5625L3.65625 11.7422L1.38281 11.6016C1.38281 11.6641 1.38281 11.7305 1.38281 11.8008C1.38281 11.8711 1.38281 11.9375 1.38281 12ZM13.0312 22.5703C14.375 22.4453 15.6328 22.0781 16.8047 21.4688C17.9766 20.875 18.9922 20.1055 19.8516 19.1602C20.7109 18.2148 21.3906 17.1328 21.8906 15.9141C22.375 14.6797 22.6172 13.375 22.6172 12C22.6172 11.7656 22.6094 11.5352 22.5938 11.3086C22.5781 11.082 22.5547 10.8516 22.5234 10.6172L20.6719 12.8203C20.6562 12.9609 20.6133 13.2188 20.543 13.5938C20.4727 13.9688 20.3984 14.3672 20.3203 14.7891C20.2578 15.0547 20.2031 15.3086 20.1562 15.5508C20.1094 15.793 20.0703 16.0156 20.0391 16.2188C20.0234 16.3125 20.0078 16.4023 19.9922 16.4883C19.9766 16.5742 19.9609 16.6406 19.9453 16.6875C19.9297 16.7812 19.8945 16.8867 19.8398 17.0039C19.7852 17.1211 19.6875 17.1797 19.5469 17.1797C19.5312 17.1797 19.5195 17.1758 19.5117 17.168C19.5039 17.1602 19.5 17.1562 19.5 17.1562C19.5 17.1562 19.4414 17.1523 19.3242 17.1445C19.207 17.1367 19.1484 17.1328 19.1484 17.1328V17.0391C18.9609 16.9922 18.668 16.9297 18.2695 16.8516C17.8711 16.7734 17.4766 16.7031 17.0859 16.6406L16.875 16.5938L16.0547 14.3672L17.3203 10.8516L14.6484 9.16406L14.625 9C14.3906 7.85938 14.2266 7.0625 14.1328 6.60938C14.0391 6.15625 13.9844 5.85938 13.9688 5.71875C13.9062 5.65625 13.7812 5.55078 13.5938 5.40234C13.4062 5.25391 13.2109 5.10938 13.0078 4.96875L10.6641 6.14062L8.55469 3.67969L8.78906 1.875C7.80469 2.1875 6.89062 2.63281 6.04688 3.21094C5.20312 3.78906 4.45703 4.46875 3.80859 5.25C3.16016 6.03125 2.63281 6.89844 2.22656 7.85156C1.82031 8.80469 1.55469 9.80469 1.42969 10.8516L3.98438 11.0156L5.17969 12.1641L5.64844 14.1562L9.28125 13.6641L11.8125 15.0703L10.8047 17.9766L9.39844 19.7344L10.0547 20.9531L13.0312 22.5703Z" fill="#1E1E1E"/>
</g>
<defs>
<clipPath id="clip0_1733_4141">
<rect width="24" height="24" fill="white"/>
</clipPath>
</defs>
</svg>
