<svg width="24" height="24" viewBox="0 0 24 24" fill="none" xmlns="http://www.w3.org/2000/svg">
<g clip-path="url(#clip0_1733_4190)">
<path d="M12 7.99219C13.1094 7.99219 14.0547 8.38281 14.8359 9.16406C15.6172 9.94531 16.0078 10.8906 16.0078 12C16.0078 13.1094 15.6172 14.0547 14.8359 14.8359C14.0547 15.6172 13.1094 16.0078 12 16.0078C10.8906 16.0078 9.94531 15.6172 9.16406 14.8359C8.38281 14.0547 7.99219 13.1094 7.99219 12C7.99219 10.8906 8.38281 9.94531 9.16406 9.16406C9.94531 8.38281 10.8906 7.99219 12 7.99219ZM7.19531 0H16.8047C17.7891 0 18.7188 0.1875 19.5938 0.5625C20.4687 0.9375 21.2344 1.45312 21.8906 2.10938C22.5469 2.76562 23.0625 3.53125 23.4375 4.40625C23.8125 5.28125 24 6.21094 24 7.19531V16.8047C24 17.7891 23.8125 18.7188 23.4375 19.5938C23.0625 20.4687 22.5469 21.2344 21.8906 21.8906C21.2344 22.5469 20.4687 23.0625 19.5938 23.4375C18.7188 23.8125 17.7891 24 16.8047 24H7.19531C6.21094 24 5.28125 23.8125 4.40625 23.4375C3.53125 23.0625 2.76562 22.5469 2.10938 21.8906C1.45312 21.2344 0.9375 20.4687 0.5625 19.5938C0.1875 18.7188 0 17.7891 0 16.8047V7.19531C0 6.21094 0.1875 5.28125 0.5625 4.40625C0.9375 3.53125 1.45312 2.76562 2.10938 2.10938C2.76562 1.45312 3.53125 0.9375 4.40625 0.5625C5.28125 0.1875 6.21094 0 7.19531 0ZM6.84375 14.1797C7.14063 14.8672 7.53906 15.4609 8.03906 15.9609C8.53906 16.4609 9.13281 16.8594 9.82031 17.1562C10.5078 17.4531 11.2344 17.6016 12 17.6016C12.7656 17.6016 13.4922 17.4531 14.1797 17.1562C14.8672 16.8594 15.4609 16.4609 15.9609 15.9609C16.4609 15.4609 16.8594 14.8672 17.1562 14.1797C17.4531 13.4922 17.6016 12.7656 17.6016 12C17.6016 11.2344 17.4531 10.5078 17.1562 9.82031C16.8594 9.13281 16.4609 8.53906 15.9609 8.03906C15.4609 7.53906 14.8672 7.14063 14.1797 6.84375C13.4922 6.54687 12.7656 6.39844 12 6.39844C11.2344 6.39844 10.5078 6.54687 9.82031 6.84375C9.13281 7.14063 8.53906 7.53906 8.03906 8.03906C7.53906 8.53906 7.14063 9.13281 6.84375 9.82031C6.54687 10.5078 6.39844 11.2344 6.39844 12C6.39844 12.7656 6.54687 13.4922 6.84375 14.1797ZM17.6016 4.80469H19.1953V6.39844H17.6016V4.80469Z" fill="#1E1E1E"/>
</g>
<defs>
<clipPath id="clip0_1733_4190">
<rect width="24" height="24" fill="white"/>
</clipPath>
</defs>
</svg>
