<svg width="24" height="24" viewBox="0 0 24 24" fill="none" xmlns="http://www.w3.org/2000/svg">
<g clip-path="url(#clip0_1733_4164)">
<path d="M22.9219 4.24229L22.0781 4.75792C21.7344 4.17979 21.2812 3.65635 20.7188 3.1876C20.1719 2.70323 19.5508 2.29698 18.8555 1.96885C18.1602 1.64073 17.4219 1.39073 16.6406 1.21885C15.8438 1.04698 15.0312 0.976667 14.2031 1.00792C13.3906 1.03917 12.5859 1.17198 11.7891 1.40635C10.9766 1.65635 10.2109 2.02745 9.49219 2.51964C8.77344 3.01182 8.10938 3.64073 7.5 4.40635C6.90625 5.17198 6.39844 6.09385 5.97656 7.17198C5.94531 7.28135 5.90625 7.40635 5.85938 7.54698C5.8125 7.6876 5.77344 7.84385 5.74219 8.01573H12V9.0001H5.53125C5.53125 9.09385 5.52734 9.1837 5.51953 9.26964C5.51172 9.35557 5.50781 9.4376 5.50781 9.51573V13.5001C5.50781 13.5626 5.50781 13.6368 5.50781 13.7228C5.50781 13.8087 5.51562 13.9064 5.53125 14.0157H12V15.0001H5.67188C5.71875 15.2189 5.76562 15.4454 5.8125 15.6798C5.85938 15.9142 5.91406 16.1485 5.97656 16.3829C6.14844 17.0079 6.4375 17.6251 6.84375 18.2345C7.23438 18.8282 7.71094 19.3829 8.27344 19.8985C8.83594 20.4142 9.47656 20.8673 10.1953 21.2579C10.8984 21.6485 11.6484 21.9454 12.4453 22.1485C13.2266 22.3517 14.0312 22.4532 14.8594 22.4532C15.7031 22.4689 16.543 22.3439 17.3789 22.0782C18.2148 21.8126 19.0312 21.4064 19.8281 20.8595C20.625 20.3126 21.3828 19.5939 22.1016 18.7032L22.8984 19.3126C22.1172 20.297 21.2812 21.0939 20.3906 21.7032C19.5 22.297 18.5938 22.7384 17.6719 23.0274C16.75 23.3165 15.8203 23.461 14.8828 23.461C13.9609 23.461 13.0625 23.3439 12.1875 23.1095C11.3281 22.8907 10.5078 22.5626 9.72656 22.1251C8.94531 21.7032 8.23828 21.2071 7.60547 20.6368C6.97266 20.0665 6.4375 19.4454 6 18.7735C5.54688 18.086 5.21875 17.3751 5.01562 16.6407C4.9375 16.3595 4.87109 16.0821 4.81641 15.8087C4.76172 15.5353 4.71094 15.2657 4.66406 15.0001H1.00781V14.0157H4.52344C4.52344 13.9064 4.51953 13.8087 4.51172 13.7228C4.50391 13.6368 4.5 13.5626 4.5 13.5001V9.51573C4.5 9.4376 4.50391 9.35557 4.51172 9.26964C4.51953 9.1837 4.52344 9.09385 4.52344 9.0001H1.00781V8.01573H4.71094C4.75781 7.76573 4.8125 7.53917 4.875 7.33604C4.9375 7.13292 4.98438 6.96885 5.01562 6.84385H5.03906V6.82042C5.49219 5.64854 6.05469 4.64073 6.72656 3.79698C7.39844 2.95323 8.13281 2.25401 8.92969 1.69932C9.72656 1.14464 10.5703 0.73448 11.4609 0.468855C12.3672 0.187605 13.2734 0.0313546 14.1797 0.000104632C15.0703 -0.0311454 15.9531 0.0469796 16.8281 0.23448C17.7031 0.42198 18.5234 0.699323 19.2891 1.06651C20.0547 1.4337 20.75 1.89073 21.375 2.4376C22 2.96885 22.5156 3.57042 22.9219 4.24229Z" fill="#1E1E1E"/>
</g>
<defs>
<clipPath id="clip0_1733_4164">
<rect width="24" height="24" fill="white"/>
</clipPath>
</defs>
</svg>
