<svg width="24" height="24" viewBox="0 0 24 24" fill="none" xmlns="http://www.w3.org/2000/svg">
<g clip-path="url(#clip0_1733_4210)">
<path d="M22.3587 1.09367C21.1624 0.274925 19.5224 0.583675 18.7037 1.77992C17.8849 2.97742 18.1937 4.61617 19.3899 5.43492C19.7699 5.69492 20.1999 5.84617 20.6462 5.88367V8.87867C20.6462 11.0049 18.9162 12.7337 16.7912 12.7337H3.5012L3.4937 5.86367C3.53245 5.85867 3.5712 5.85492 3.6112 5.84742C4.3012 5.71742 4.89995 5.32742 5.2962 4.74742C6.11495 3.54992 5.8062 1.91117 4.60995 1.09242C3.41245 0.274925 1.77245 0.583675 0.954946 1.77992C0.136196 2.97742 0.444946 4.61617 1.6412 5.43492C1.97745 5.66492 2.35245 5.80992 2.7437 5.86742L2.75745 18.1362C2.0512 18.2362 1.38745 18.6174 0.954946 19.2512C0.136196 20.4487 0.444946 22.0874 1.6412 22.9062C2.0937 23.2162 2.60995 23.3637 3.1212 23.3637C3.9612 23.3637 4.78745 22.9637 5.2962 22.2187C6.11495 21.0212 5.8062 19.3824 4.60995 18.5637C4.2687 18.3299 3.8912 18.1912 3.50745 18.1362L3.50245 13.4849H16.7912C19.3312 13.4849 21.3962 11.4187 21.3962 8.87992V5.83992C22.0712 5.70367 22.6562 5.31742 23.0449 4.74867C23.8637 3.55117 23.5549 1.91242 22.3587 1.09367ZM1.5737 2.20367C2.1587 1.34867 3.3312 1.12742 4.1862 1.71242C5.0412 2.29742 5.26245 3.46992 4.67745 4.32492C4.3937 4.73992 3.9662 5.01867 3.47245 5.11117C2.9787 5.20367 2.4787 5.09867 2.06495 4.81492C1.20995 4.22992 0.988696 3.05742 1.5737 2.20367ZM4.67745 21.7962C4.09245 22.6512 2.91995 22.8724 2.06495 22.2874C1.20995 21.7024 0.988696 20.5299 1.5737 19.6749C2.1587 18.8199 3.3312 18.5999 4.1862 19.1837C5.0412 19.7687 5.26245 20.9412 4.67745 21.7962ZM22.4262 4.32492C22.1424 4.73992 21.7149 5.01867 21.2212 5.11117C20.7274 5.20367 20.2274 5.09867 19.8137 4.81492C18.9587 4.22992 18.7387 3.05742 19.3224 2.20242C19.9074 1.34742 21.0799 1.12617 21.9349 1.71117C22.7899 2.29617 23.0112 3.46867 22.4262 4.32492Z" fill="#1E1E1E"/>
</g>
<defs>
<clipPath id="clip0_1733_4210">
<rect width="24" height="24" fill="white"/>
</clipPath>
</defs>
</svg>
