<svg width="24" height="24" viewBox="0 0 24 24" fill="none" xmlns="http://www.w3.org/2000/svg">
<g clip-path="url(#clip0_1733_4193)">
<path d="M22.1719 1.00781C22.7031 1.02344 23.1445 1.21875 23.4961 1.59375C23.8477 1.96875 24.0156 2.41406 24 2.92969V18.6328C24 18.6328 24 18.6367 24 18.6445C24 18.6523 24 18.6562 24 18.6562C24 18.6719 23.9961 18.6914 23.9883 18.7148C23.9805 18.7383 23.9766 18.7578 23.9766 18.7734L23.0156 20.8828C22.9531 21.0078 22.8594 21.1094 22.7344 21.1875C22.6094 21.2656 22.4766 21.3125 22.3359 21.3281H22.0078V22.8516C22.0078 22.9141 22 22.9766 21.9844 23.0391C21.9688 23.1016 21.9453 23.1641 21.9141 23.2266H23.6016C23.7109 23.2266 23.8047 23.2656 23.8828 23.3438C23.9609 23.4219 24 23.5156 24 23.625C24 23.7188 23.9609 23.8047 23.8828 23.8828C23.8047 23.9609 23.7109 24 23.6016 24H0.398447C0.289072 24 0.195322 23.9609 0.117197 23.8828C0.0390723 23.8047 9.76585e-06 23.7188 9.76585e-06 23.625C9.76585e-06 23.5156 0.0390723 23.4219 0.117197 23.3438C0.195322 23.2656 0.289072 23.2266 0.398447 23.2266H1.59376V16.3359C1.59376 16.0234 1.71095 15.7539 1.94532 15.5273C2.1797 15.3008 2.46095 15.1875 2.78907 15.1875V8.64844C1.96095 8.53906 1.27735 8.17188 0.738291 7.54688C0.199229 6.92188 -0.0468652 6.21094 9.76585e-06 5.41406C0.0625098 4.60156 0.398447 3.91797 1.00782 3.36328C1.6172 2.80859 2.35157 2.53125 3.21095 2.53125C4.0547 2.53125 4.78126 2.80859 5.39064 3.36328C6.00001 3.91797 6.33595 4.60156 6.39845 5.41406C6.44532 6.21094 6.19923 6.92188 5.66017 7.54688C5.1211 8.17188 4.43751 8.53906 3.60939 8.64844V15.1875C3.93751 15.1875 4.21876 15.3008 4.45314 15.5273C4.68751 15.7539 4.8047 16.0234 4.8047 16.3359V23.2266H9.6797C9.64845 23.1641 9.62892 23.1016 9.6211 23.0391C9.61329 22.9766 9.60938 22.9141 9.60938 22.8516V21.3281H9.25782C9.1172 21.3125 8.98438 21.2656 8.85938 21.1875C8.73438 21.1094 8.64063 21.0078 8.57813 20.8828L7.64063 18.7969V18.7734C7.62501 18.7578 7.61329 18.7383 7.60548 18.7148C7.59767 18.6914 7.59376 18.6719 7.59376 18.6562C7.59376 18.6562 7.59376 18.6523 7.59376 18.6445C7.59376 18.6367 7.59376 18.6328 7.59376 18.6328V2.92969C7.57813 2.41406 7.7461 1.96875 8.09767 1.59375C8.44923 1.21875 8.89063 1.02344 9.42188 1.00781H22.1719ZM0.796885 5.60156C0.796885 6.24219 1.03126 6.78516 1.50001 7.23047C1.96876 7.67578 2.53907 7.89844 3.21095 7.89844C3.8672 7.89844 4.4297 7.67578 4.89845 7.23047C5.3672 6.78516 5.60157 6.24219 5.60157 5.60156C5.60157 4.96094 5.3672 4.41797 4.89845 3.97266C4.4297 3.52734 3.8672 3.30469 3.21095 3.30469C2.53907 3.30469 1.96876 3.52734 1.50001 3.97266C1.03126 4.41797 0.796885 4.96094 0.796885 5.60156ZM4.00782 23.2266V16.3359C4.00782 16.2266 3.96876 16.1367 3.89064 16.0664C3.81251 15.9961 3.71876 15.9609 3.60939 15.9609H2.78907C2.6797 15.9609 2.58595 15.9961 2.50782 16.0664C2.4297 16.1367 2.39063 16.2266 2.39063 16.3359V23.2266H4.00782ZM12 22.8516V21.3281H10.4063V22.8516C10.4063 22.9609 10.4453 23.0508 10.5234 23.1211C10.6016 23.1914 10.6953 23.2266 10.8047 23.2266H11.6016C11.7109 23.2266 11.8047 23.1914 11.8828 23.1211C11.9609 23.0508 12 22.9609 12 22.8516ZM12.7266 23.2266H18.8672C18.8516 23.1641 18.8359 23.1016 18.8203 23.0391C18.8047 22.9766 18.7969 22.9141 18.7969 22.8516V21.3281H12.7969V22.8516C12.7969 22.9141 12.7891 22.9766 12.7734 23.0391C12.7578 23.1016 12.7422 23.1641 12.7266 23.2266ZM21.1875 22.8516V21.3281H19.5938V22.8516C19.5938 22.9609 19.6328 23.0508 19.7109 23.1211C19.7891 23.1914 19.8828 23.2266 19.9922 23.2266H20.7891C20.8984 23.2266 20.9922 23.1914 21.0703 23.1211C21.1484 23.0508 21.1875 22.9609 21.1875 22.8516ZM22.9922 19.0078H8.60157L9.3047 20.5547H22.2891L22.9922 19.0078ZM13.9922 18.2578H17.6016V17.4844C17.6016 17.375 17.5625 17.2852 17.4844 17.2148C17.4063 17.1445 17.3125 17.1094 17.2031 17.1094H14.3906C14.2813 17.1094 14.1875 17.1445 14.1094 17.2148C14.0313 17.2852 13.9922 17.375 13.9922 17.4844V18.2578ZM23.2031 2.92969C23.2188 2.63281 23.1289 2.37109 22.9336 2.14453C22.7383 1.91797 22.4844 1.78906 22.1719 1.75781H9.42188C9.10938 1.78906 8.85548 1.91797 8.66017 2.14453C8.46485 2.37109 8.37501 2.63281 8.39063 2.92969V18.2578H13.1953V17.4844C13.1953 17.1719 13.3125 16.9023 13.5469 16.6758C13.7813 16.4492 14.0625 16.3359 14.3906 16.3359H17.2031C17.5313 16.3359 17.8125 16.4492 18.0469 16.6758C18.2813 16.9023 18.3984 17.1719 18.3984 17.4844V18.2578H23.2031V2.92969ZM22.0547 2.87109C22.2891 3.09766 22.4063 3.36719 22.4063 3.67969V4.07812C22.4063 4.39062 22.2891 4.66016 22.0547 4.88672C21.8203 5.11328 21.5313 5.22656 21.1875 5.22656H10.4063C10.0625 5.22656 9.77735 5.11328 9.55079 4.88672C9.32423 4.66016 9.21095 4.39062 9.21095 4.07812V3.67969C9.21095 3.36719 9.32813 3.09766 9.56251 2.87109C9.79688 2.64453 10.0781 2.53125 10.4063 2.53125H21.1875C21.5313 2.53125 21.8203 2.64453 22.0547 2.87109ZM21.6094 3.67969C21.6094 3.57031 21.5703 3.48047 21.4922 3.41016C21.4141 3.33984 21.3125 3.30469 21.1875 3.30469H10.4063C10.2969 3.30469 10.2031 3.33984 10.125 3.41016C10.0469 3.48047 10.0078 3.57031 10.0078 3.67969V4.07812C10.0078 4.17188 10.0469 4.25781 10.125 4.33594C10.2031 4.41406 10.2969 4.45312 10.4063 4.45312H21.1875C21.3125 4.45312 21.4141 4.41406 21.4922 4.33594C21.5703 4.25781 21.6094 4.17188 21.6094 4.07812V3.67969ZM9.66798 17.0391C9.97267 17.3359 10.3516 17.4844 10.8047 17.4844C11.2422 17.4844 11.6172 17.3359 11.9297 17.0391C12.2422 16.7422 12.3984 16.3828 12.3984 15.9609C12.3984 15.5234 12.2422 15.1562 11.9297 14.8594C11.6172 14.5625 11.2422 14.4141 10.8047 14.4141C10.3516 14.4141 9.97267 14.5625 9.66798 14.8594C9.36329 15.1562 9.21095 15.5234 9.21095 15.9609C9.21095 16.3828 9.36329 16.7422 9.66798 17.0391ZM10.2422 15.4102C10.3984 15.2617 10.5859 15.1875 10.8047 15.1875C11.0234 15.1875 11.2109 15.2617 11.3672 15.4102C11.5234 15.5586 11.6016 15.7422 11.6016 15.9609C11.6016 16.1641 11.5234 16.3398 11.3672 16.4883C11.2109 16.6367 11.0234 16.7109 10.8047 16.7109C10.5859 16.7109 10.3984 16.6367 10.2422 16.4883C10.0859 16.3398 10.0078 16.1641 10.0078 15.9609C10.0078 15.7422 10.0859 15.5586 10.2422 15.4102ZM20.7891 14.4141C21.2422 14.4141 21.625 14.5664 21.9375 14.8711C22.25 15.1758 22.4063 15.5391 22.4063 15.9609C22.4063 16.3828 22.25 16.7422 21.9375 17.0391C21.625 17.3359 21.2422 17.4844 20.7891 17.4844C20.3516 17.4844 19.9766 17.3359 19.6641 17.0391C19.3516 16.7422 19.1953 16.3828 19.1953 15.9609C19.1953 15.5234 19.3516 15.1562 19.6641 14.8594C19.9766 14.5625 20.3516 14.4141 20.7891 14.4141ZM21.375 16.4883C21.5313 16.3398 21.6094 16.1641 21.6094 15.9609C21.6094 15.7422 21.5313 15.5586 21.375 15.4102C21.2188 15.2617 21.0234 15.1875 20.7891 15.1875C20.5703 15.1875 20.3828 15.2617 20.2266 15.4102C20.0703 15.5586 19.9922 15.7422 19.9922 15.9609C19.9922 16.1641 20.0703 16.3398 20.2266 16.4883C20.3828 16.6367 20.5703 16.7109 20.7891 16.7109C21.0234 16.7109 21.2188 16.6367 21.375 16.4883ZM9.55079 6.31641C9.32423 6.54297 9.21095 6.8125 9.21095 7.125V12.4922C9.21095 12.8203 9.32813 13.0938 9.56251 13.3125C9.79688 13.5312 10.0781 13.6406 10.4063 13.6406H21.1875C21.5313 13.6406 21.8203 13.5312 22.0547 13.3125C22.2891 13.0938 22.4063 12.8203 22.4063 12.4922V7.125C22.4063 6.8125 22.2891 6.54297 22.0547 6.31641C21.8203 6.08984 21.5313 5.97656 21.1875 5.97656H10.4063C10.0625 5.97656 9.77735 6.08984 9.55079 6.31641ZM10.4063 12.8906C10.2969 12.8906 10.2031 12.8516 10.125 12.7734C10.0469 12.6953 10.0078 12.6016 10.0078 12.4922V7.125C10.0078 7.03125 10.0469 6.94531 10.125 6.86719C10.2031 6.78906 10.2969 6.75 10.4063 6.75H21.1875C21.3125 6.75 21.4141 6.78906 21.4922 6.86719C21.5703 6.94531 21.6094 7.03125 21.6094 7.125V12.4922C21.6094 12.6016 21.5703 12.6953 21.4922 12.7734C21.4141 12.8516 21.3125 12.8906 21.1875 12.8906H10.4063Z" fill="#1E1E1E"/>
</g>
<defs>
<clipPath id="clip0_1733_4193">
<rect width="24" height="24" fill="white"/>
</clipPath>
</defs>
</svg>
