<svg width="24" height="24" viewBox="0 0 24 24" fill="none" xmlns="http://www.w3.org/2000/svg">
<g clip-path="url(#clip0_1733_4187)">
<path d="M21.5963 17.8912L21.5638 17.8699L21.5 17.3024L17.0725 18.1299L17.21 18.8674L20.43 18.2649C19.0913 20.0662 17.235 21.3687 15.1413 22.0237C14.8938 22.1012 14.6413 22.1699 14.3863 22.2299C14.27 22.2574 14.1525 22.2812 14.035 22.3049C14.0113 22.3099 13.9875 22.3137 13.9638 22.3187C13.8625 22.3374 13.76 22.3562 13.6575 22.3724C13.635 22.3762 13.6138 22.3799 13.5913 22.3837C13.47 22.4024 13.3475 22.4187 13.2238 22.4337C13.2063 22.4362 13.19 22.4374 13.1725 22.4387C13.07 22.4499 12.9663 22.4599 12.8625 22.4687C12.8238 22.4712 12.7863 22.4749 12.7475 22.4774C12.66 22.4837 12.5713 22.4887 12.4825 22.4924C12.445 22.4937 12.4088 22.4962 12.3713 22.4974C12.2488 22.5012 12.1263 22.5049 12.0025 22.5049C9.68003 22.5049 7.53253 21.7462 5.79128 20.4649C5.73128 20.4212 5.67253 20.3762 5.61378 20.3312C5.46378 20.2162 5.31878 20.0974 5.17503 19.9737C2.92753 18.0462 1.49878 15.1887 1.49878 12.0024C1.49878 10.7974 1.70503 9.64118 2.08003 8.56243L1.41753 8.17993C1.02503 9.26243 0.796279 10.4212 0.757529 11.6274H0.748779V12.0024C0.748779 17.0937 4.14753 21.4049 8.79378 22.7887C9.18753 22.9062 9.59003 23.0024 10.0013 23.0774C10.0188 23.0799 10.035 23.0837 10.0525 23.0862C10.6863 23.1974 11.3375 23.2549 12.0013 23.2549C12.1575 23.2549 12.3138 23.2499 12.47 23.2437C12.5038 23.2424 12.5363 23.2412 12.57 23.2387C12.7213 23.2312 12.8725 23.2212 13.0238 23.2074C13.0463 23.2049 13.07 23.2024 13.0925 23.1999C13.2338 23.1862 13.375 23.1699 13.515 23.1512C13.535 23.1487 13.5563 23.1462 13.5763 23.1437C13.7313 23.1224 13.8863 23.0962 14.04 23.0687C14.0575 23.0649 14.0738 23.0624 14.0913 23.0587C16.7925 22.5499 19.2238 21.0687 20.9213 18.8612L21.2588 21.8649L22.005 21.7799L21.5713 17.9324L21.5963 17.8912Z" fill="#1E1E1E"/>
<path d="M12.0001 0.747559C8.48384 0.747559 5.20634 2.37631 3.08009 5.14131L2.74259 2.13756L1.99634 2.22256L2.43009 6.07006L2.40384 6.11006L2.43634 6.13131L2.50009 6.69881L6.92759 5.87131L6.79009 5.13381L3.57009 5.73631C5.55134 3.07131 8.66009 1.49756 12.0001 1.49756C17.7913 1.49756 22.5026 6.20881 22.5026 12.0001C22.5026 13.2301 22.2876 14.4113 21.8976 15.5088L22.5588 15.8901C23.0076 14.6776 23.2526 13.3663 23.2526 12.0001C23.2526 5.79506 18.2051 0.747559 12.0001 0.747559Z" fill="#1E1E1E"/>
</g>
<defs>
<clipPath id="clip0_1733_4187">
<rect width="24" height="24" fill="white"/>
</clipPath>
</defs>
</svg>
