<svg width="24" height="24" viewBox="0 0 24 24" fill="none" xmlns="http://www.w3.org/2000/svg">
<path d="M17.3077 20.0429H3.35766C3.21731 20.043 3.07832 20.0154 2.94863 19.9617C2.81895 19.908 2.70112 19.8293 2.60187 19.7301C2.50263 19.6308 2.42392 19.513 2.37024 19.3833C2.31657 19.2536 2.28898 19.1147 2.28906 18.9743V5.0249C2.28906 4.4357 2.76846 3.9563 3.35766 3.9563H17.3071C17.8963 3.9563 18.3757 4.4351 18.3757 5.0249V8.3999C18.3757 8.47326 18.3465 8.54361 18.2946 8.59548C18.2428 8.64736 18.1724 8.6765 18.0991 8.6765C18.0257 8.6765 17.9553 8.64736 17.9035 8.59548C17.8516 8.54361 17.8225 8.47326 17.8225 8.3999V5.0249C17.8221 4.88846 17.7678 4.75771 17.6713 4.66123C17.5749 4.56476 17.4441 4.51042 17.3077 4.5101H3.35766C3.22123 4.51042 3.09047 4.56476 2.99399 4.66123C2.89752 4.75771 2.84318 4.88846 2.84286 5.0249V18.9749C2.84318 19.1113 2.89752 19.2421 2.99399 19.3386C3.09047 19.435 3.22123 19.4894 3.35766 19.4897H17.3071C17.4435 19.4894 17.5743 19.435 17.6707 19.3386C17.7672 19.2421 17.8215 19.1113 17.8219 18.9749V15.6341C17.8219 15.5607 17.851 15.4904 17.9029 15.4385C17.9547 15.3866 18.0251 15.3575 18.0985 15.3575C18.1718 15.3575 18.2422 15.3866 18.294 15.4385C18.3459 15.4904 18.3751 15.5607 18.3751 15.6341V18.9749C18.3751 19.258 18.2626 19.5296 18.0625 19.7299C17.8623 19.9301 17.5908 20.0427 17.3077 20.0429ZM19.9201 16.2119C19.8656 16.2123 19.8122 16.1966 19.7667 16.1668C19.7211 16.1369 19.6854 16.0943 19.6641 16.0442C19.6427 15.9941 19.6366 15.9388 19.6466 15.8852C19.6566 15.8317 19.6823 15.7823 19.7203 15.7433L23.3383 11.9915L19.7353 8.2565C19.71 8.2303 19.6902 8.19939 19.677 8.16554C19.6637 8.13168 19.6572 8.09555 19.6579 8.0592C19.6586 8.02284 19.6665 7.98698 19.681 7.95366C19.6956 7.92034 19.7166 7.89021 19.7428 7.865C19.7957 7.81408 19.8666 7.78626 19.9401 7.78767C19.9764 7.78836 20.0123 7.79621 20.0456 7.81077C20.0789 7.82532 20.109 7.8463 20.1343 7.8725L23.9221 11.7995C23.972 11.8509 24 11.9197 24.0001 11.9914C24.0002 12.063 23.9724 12.1319 23.9227 12.1835L20.1193 16.1273C20.0935 16.1541 20.0625 16.1754 20.0283 16.1899C19.9941 16.2045 19.9573 16.2119 19.9201 16.2119Z" fill="#393A3B"/>
<path d="M23.7228 12.2683H10.332C10.2587 12.2683 10.1883 12.2391 10.1364 12.1873C10.0846 12.1354 10.0554 12.065 10.0554 11.9917C10.0554 11.9183 10.0846 11.848 10.1364 11.7961C10.1883 11.7442 10.2587 11.7151 10.332 11.7151H23.7228C23.7962 11.7151 23.8665 11.7442 23.9184 11.7961C23.9703 11.848 23.9994 11.9183 23.9994 11.9917C23.9994 12.065 23.9703 12.1354 23.9184 12.1873C23.8665 12.2391 23.7962 12.2683 23.7228 12.2683Z" fill="#393A3B"/>
</svg>
