<svg width="24" height="24" viewBox="0 0 24 24" fill="none" xmlns="http://www.w3.org/2000/svg">
<g clip-path="url(#clip0_1733_4147)">
<path d="M8.39062 3.49219H15.6094C16.3594 3.49219 17.0586 3.66797 17.707 4.01953C18.3555 4.37109 18.8672 4.85156 19.2422 5.46094L22.5 10.6406V19.5C22.5 19.7656 22.3984 20 22.1953 20.2031C21.9922 20.4063 21.7344 20.5078 21.4219 20.5078H19.8516C19.5547 20.5078 19.3047 20.4063 19.1016 20.2031C18.8984 20 18.7969 19.7656 18.7969 19.5V17.5078H5.20312V19.5C5.20312 19.7656 5.10156 20 4.89844 20.2031C4.69531 20.4063 4.44531 20.5078 4.14844 20.5078H2.57812C2.26563 20.5078 2.00781 20.4063 1.80469 20.2031C1.60156 20 1.5 19.7656 1.5 19.5V10.6406L4.75781 5.46094C5.13281 4.85156 5.64453 4.37109 6.29297 4.01953C6.94141 3.66797 7.64062 3.49219 8.39062 3.49219ZM3.91406 4.92188L0.492188 10.3594V19.5C0.492188 20.0625 0.699219 20.5352 1.11328 20.918C1.52734 21.3008 2.01562 21.4922 2.57812 21.4922H4.14844C4.71094 21.4922 5.19531 21.3008 5.60156 20.918C6.00781 20.5352 6.21094 20.0625 6.21094 19.5V18.4922H17.7891V19.5C17.7891 20.0625 17.9922 20.5352 18.3984 20.918C18.8047 21.3008 19.2891 21.4922 19.8516 21.4922H21.4219C21.9844 21.4922 22.4727 21.3008 22.8867 20.918C23.3008 20.5352 23.5078 20.0625 23.5078 19.5V10.3594L20.0859 4.92188C19.6172 4.17188 18.9844 3.58203 18.1875 3.15234C17.3906 2.72266 16.5312 2.50781 15.6094 2.50781H8.39062C7.46875 2.50781 6.60938 2.72266 5.8125 3.15234C5.01562 3.58203 4.38281 4.17188 3.91406 4.92188ZM19.0781 10.9922V10.0078H4.92188V10.9922H19.0781ZM8.0625 14.5078H3.35156V15.4922H8.0625V14.5078ZM15.9375 15.4922H20.6484V14.5078H15.9375V15.4922Z" fill="#1E1E1E"/>
</g>
<defs>
<clipPath id="clip0_1733_4147">
<rect width="24" height="24" fill="white"/>
</clipPath>
</defs>
</svg>
