<svg width="24" height="24" viewBox="0 0 24 24" fill="none" xmlns="http://www.w3.org/2000/svg">
<g clip-path="url(#clip0_1733_4192)">
<path d="M17.6 5.59995H19.2M7.19998 0.800049H16.8C18.4974 0.800049 20.1252 1.47426 21.3255 2.67454C22.5257 3.87474 23.2 5.50261 23.2 7.19998V16.8C23.2 18.4974 22.5257 20.1252 21.3255 21.3255C20.1252 22.5257 18.4974 23.2 16.8 23.2H7.19998C5.50261 23.2 3.87474 22.5257 2.67454 21.3255C1.47426 20.1252 0.800049 18.4974 0.800049 16.8V7.19998C0.800049 5.50261 1.47426 3.87474 2.67454 2.67454C3.87474 1.47426 5.50261 0.800049 7.19998 0.800049ZM12 16.8C10.7269 16.8 9.5061 16.2943 8.60591 15.3942C7.70571 14.494 7.19998 13.273 7.19998 12C7.19998 10.7269 7.70571 9.5061 8.60591 8.60591C9.5061 7.70571 10.7269 7.19998 12 7.19998C13.273 7.19998 14.494 7.70571 15.3942 8.60591C16.2943 9.5061 16.8 10.7269 16.8 12C16.8 13.273 16.2943 14.494 15.3942 15.3942C14.494 16.2943 13.273 16.8 12 16.8Z" stroke="#1E1E1E" stroke-width="2.13334"/>
</g>
<defs>
<clipPath id="clip0_1733_4192">
<rect width="24" height="24" fill="white"/>
</clipPath>
</defs>
</svg>
