<svg width="25" height="24" viewBox="0 0 25 24" fill="none" xmlns="http://www.w3.org/2000/svg">
<g clip-path="url(#clip0_1733_4209)">
<path d="M10.4764 0.984375C9.21217 0.984375 8.025 1.22656 6.91492 1.71094C5.78942 2.19531 4.81038 2.85938 3.97782 3.70312C3.14526 4.54688 2.49 5.53125 2.01205 6.65625C1.5341 7.79688 1.29512 9.00781 1.29512 10.2891C1.29512 11.5703 1.5341 12.7812 2.01205 13.9219C2.49 15.0469 3.14526 16.0312 3.97782 16.875C4.81038 17.7188 5.78942 18.3828 6.91492 18.8672C8.025 19.3516 9.21217 19.5938 10.4764 19.5938C11.6636 19.5938 12.7853 19.3828 13.8414 18.9609C14.8975 18.5391 15.8264 17.9531 16.6281 17.2031L16.5819 17.1562L17.2526 16.4766L17.2988 16.5234C18.0389 15.6953 18.617 14.75 19.0333 13.6875C19.4496 12.625 19.6577 11.4922 19.6577 10.2891C19.6577 9.00781 19.4188 7.79688 18.9408 6.65625C18.4629 5.53125 17.8076 4.54688 16.975 3.70312C16.1425 2.85938 15.1712 2.19531 14.0611 1.71094C12.9356 1.22656 11.7407 0.984375 10.4764 0.984375ZM17.9695 17.2031L23.6818 22.9922L23.0343 23.6719L17.2988 17.8828C16.8517 18.2891 16.366 18.6562 15.8418 18.9844C15.3176 19.3281 14.7703 19.6133 14.1998 19.8398C13.6294 20.0664 13.0281 20.2422 12.396 20.3672C11.7792 20.4922 11.1394 20.5547 10.4764 20.5547C9.08883 20.5547 7.77831 20.2813 6.54489 19.7344C5.31146 19.2031 4.23607 18.4727 3.31871 17.543C2.40135 16.6133 1.68057 15.5234 1.15636 14.2734C0.616736 13.0391 0.346924 11.7109 0.346924 10.2891C0.346924 8.86719 0.616736 7.53906 1.15636 6.30469C1.68057 5.05469 2.40135 3.96484 3.31871 3.03516C4.23607 2.10547 5.31146 1.375 6.54489 0.84375C7.77831 0.296875 9.08883 0.0234375 10.4764 0.0234375C11.8795 0.0234375 13.1977 0.296875 14.4311 0.84375C15.6491 1.375 16.7168 2.10547 17.6342 3.03516C18.5515 3.96484 19.28 5.05469 19.8196 6.30469C20.3438 7.53906 20.6059 8.86719 20.6059 10.2891C20.6059 10.9609 20.5443 11.6094 20.4209 12.2344C20.2976 12.875 20.1241 13.4844 19.9006 14.0625C19.677 14.6406 19.4034 15.1953 19.0796 15.7266C18.7404 16.2578 18.3704 16.75 17.9695 17.2031ZM6.45238 9.82031V10.7578H10.0139V14.3672H10.939V10.7578H14.5005V9.82031H10.939V6.21094H10.0139V9.82031H6.45238Z" fill="#1E1E1E"/>
</g>
<defs>
<clipPath id="clip0_1733_4209">
<rect width="25" height="24" fill="white"/>
</clipPath>
</defs>
</svg>
