<svg width="24" height="24" viewBox="0 0 24 24" fill="none" xmlns="http://www.w3.org/2000/svg">
<path d="M5.10938 3.75H8.83594L10.5469 7.96875L8.4375 9.23438C8.26562 9.34375 8.15234 9.49219 8.09766 9.67969C8.04297 9.86719 8.0625 10.0469 8.15625 10.2188C8.45313 10.8281 8.79688 11.4062 9.1875 11.9531C9.59375 12.5 10.0352 13.0117 10.5117 13.4883C10.9883 13.9648 11.5 14.4062 12.0469 14.8125C12.5938 15.2031 13.1719 15.5469 13.7812 15.8438C13.9531 15.9375 14.1328 15.957 14.3203 15.9023C14.5078 15.8477 14.6563 15.7344 14.7656 15.5625L16.0312 13.4531L20.25 15.1641V18.8906C20.25 19.0625 20.2148 19.2344 20.1445 19.4062C20.0742 19.5781 19.9766 19.7266 19.8516 19.8516C19.7266 19.9766 19.582 20.0742 19.418 20.1445C19.2539 20.2148 19.0859 20.25 18.9141 20.25C17.9297 20.1875 16.9609 20.0391 16.0078 19.8047C15.0547 19.5703 14.1367 19.2539 13.2539 18.8555C12.3711 18.457 11.5234 17.9766 10.7109 17.4141C9.91406 16.8672 9.16406 16.2422 8.46094 15.5391C7.75781 14.8359 7.13281 14.0859 6.58594 13.2891C6.02344 12.4766 5.54297 11.6289 5.14453 10.7461C4.74609 9.86328 4.42969 8.94531 4.19531 7.99219C3.96094 7.03906 3.8125 6.07031 3.75 5.08594C3.75 4.91406 3.78516 4.74609 3.85547 4.58203C3.92578 4.41797 4.02344 4.27344 4.14844 4.14844C4.27344 4.02344 4.42187 3.92578 4.59375 3.85547C4.76563 3.78516 4.9375 3.75 5.10938 3.75ZM3.09375 3.09375C2.82813 3.35937 2.62109 3.66797 2.47266 4.01953C2.32422 4.37109 2.25 4.73438 2.25 5.10938C2.25 5.125 2.25 5.13672 2.25 5.14453C2.25 5.15234 2.25 5.15625 2.25 5.15625C2.3125 6.23438 2.47656 7.29687 2.74219 8.34375C2.99219 9.375 3.33594 10.375 3.77344 11.3438C4.21094 12.3125 4.73438 13.2422 5.34375 14.1328C5.95312 15.0078 6.64062 15.8281 7.40625 16.5938C8.17188 17.3594 8.99219 18.0469 9.86719 18.6562C10.7578 19.2656 11.6875 19.7891 12.6562 20.2266C13.625 20.6641 14.625 21.0078 15.6562 21.2578C16.7031 21.5234 17.7656 21.6875 18.8438 21.75C18.8438 21.75 18.8477 21.75 18.8555 21.75C18.8633 21.75 18.875 21.75 18.8906 21.75C19.2656 21.75 19.6289 21.6758 19.9805 21.5273C20.332 21.3789 20.6406 21.1719 20.9062 20.9062C21.1719 20.6406 21.3789 20.332 21.5273 19.9805C21.6758 19.6289 21.75 19.2656 21.75 18.8906V14.6484C21.75 14.4922 21.707 14.3516 21.6211 14.2266C21.5352 14.1016 21.4219 14.0078 21.2812 13.9453L15.9844 11.8359C15.8125 11.7734 15.6406 11.7695 15.4688 11.8242C15.2969 11.8789 15.1641 11.9844 15.0703 12.1406L13.8516 14.1797C13.0078 13.6953 12.2461 13.1133 11.5664 12.4336C10.8867 11.7539 10.3047 10.9922 9.82031 10.1484L11.8594 8.92969C12.0156 8.83594 12.1211 8.70313 12.1758 8.53125C12.2305 8.35937 12.2266 8.1875 12.1641 8.01562L10.0547 2.71875C9.99219 2.57812 9.89844 2.46484 9.77344 2.37891C9.64844 2.29297 9.50781 2.25 9.35156 2.25H5.10938C4.73438 2.25 4.37109 2.32422 4.01953 2.47266C3.66797 2.62109 3.35937 2.82813 3.09375 3.09375Z" fill="#1E1E1E"/>
</svg>
