<svg width="24" height="24" viewBox="0 0 24 24" fill="none" xmlns="http://www.w3.org/2000/svg">
<g clip-path="url(#clip0_1733_4208)">
<path d="M15.7862 3.10635H0.512451V20.9588H23.4874V3.0376L15.7862 3.10635ZM15.79 3.85635L22.7374 3.7951V19.6063L18.0087 11.4301L13.1 16.3388L9.9287 14.2263L1.26245 19.8063V3.85635H15.79ZM22.2199 20.2088H2.02245L9.92245 15.1213L13.1962 17.3013L17.8487 12.6488L22.2199 20.2088Z" fill="#1E1E1E"/>
<path d="M6.14868 12.415C5.28743 12.415 4.58618 11.7138 4.58618 10.8525C4.58618 9.99129 5.28743 9.29004 6.14868 9.29004C7.00993 9.29004 7.71118 9.99129 7.71118 10.8525C7.71118 11.7138 7.00993 12.415 6.14868 12.415ZM6.14868 10.0413C5.70118 10.0413 5.33618 10.405 5.33618 10.8538C5.33618 11.3025 5.69993 11.6663 6.14868 11.6663C6.59743 11.6663 6.96118 11.3025 6.96118 10.8538C6.96118 10.405 6.59743 10.0413 6.14868 10.0413Z" fill="#1E1E1E"/>
</g>
<defs>
<clipPath id="clip0_1733_4208">
<rect width="24" height="24" fill="white"/>
</clipPath>
</defs>
</svg>
