<svg width="24" height="24" viewBox="0 0 24 24" fill="none" xmlns="http://www.w3.org/2000/svg">
<path d="M19.1484 2.50781C19.4609 2.50781 19.7617 2.56641 20.0508 2.68359C20.3398 2.80078 20.5938 2.96875 20.8125 3.1875C21.0312 3.40625 21.1992 3.66016 21.3164 3.94922C21.4336 4.23828 21.4922 4.53906 21.4922 4.85156C21.4922 5.16406 21.4336 5.46484 21.3164 5.75391C21.1992 6.04297 21.0312 6.29688 20.8125 6.51562C20.5938 6.75 20.3398 6.92578 20.0508 7.04297C19.7617 7.16016 19.4609 7.21875 19.1484 7.21875C18.8359 7.21875 18.5352 7.16016 18.2461 7.04297C17.957 6.92578 17.7031 6.75 17.4844 6.51562C17.2656 6.29688 17.0938 6.04297 16.9688 5.75391C16.8437 5.46484 16.7812 5.16406 16.7812 4.85156C16.7812 4.53906 16.8437 4.23828 16.9688 3.94922C17.0938 3.66016 17.2656 3.40625 17.4844 3.1875C17.7031 2.96875 17.957 2.80078 18.2461 2.68359C18.5352 2.56641 18.8359 2.50781 19.1484 2.50781ZM16.7578 2.48438C16.4453 2.79687 16.207 3.16016 16.043 3.57422C15.8789 3.98828 15.7969 4.41406 15.7969 4.85156C15.7969 5.22656 15.8555 5.58594 15.9727 5.92969C16.0898 6.27344 16.2578 6.59375 16.4766 6.89062L13.1719 11.5078H8.17969C8.13281 11.1484 8.02734 10.8086 7.86328 10.4883C7.69922 10.168 7.49219 9.88281 7.24219 9.63281C6.91406 9.30469 6.54688 9.05859 6.14062 8.89453C5.73437 8.73047 5.30469 8.64844 4.85156 8.64844C4.41406 8.64844 3.98828 8.73047 3.57422 8.89453C3.16016 9.05859 2.79687 9.30469 2.48438 9.63281C2.17188 9.94531 1.92969 10.3047 1.75781 10.7109C1.58594 11.1172 1.5 11.5469 1.5 12C1.5 12.4375 1.58594 12.8633 1.75781 13.2773C1.92969 13.6914 2.17188 14.0547 2.48438 14.3672C2.79687 14.6797 3.16016 14.9219 3.57422 15.0938C3.98828 15.2656 4.41406 15.3516 4.85156 15.3516C5.30469 15.3516 5.73437 15.2656 6.14062 15.0938C6.54688 14.9219 6.91406 14.6797 7.24219 14.3672C7.49219 14.1172 7.69531 13.832 7.85156 13.5117C8.00781 13.1914 8.11719 12.8594 8.17969 12.5156H13.1719L16.4531 17.1094C16.2344 17.4063 16.0703 17.7266 15.9609 18.0703C15.8516 18.4141 15.7969 18.7734 15.7969 19.1484C15.7969 19.5859 15.8789 20.0117 16.043 20.4258C16.207 20.8398 16.4453 21.2031 16.7578 21.5156C17.0859 21.8281 17.4531 22.0703 17.8594 22.2422C18.2656 22.4141 18.6953 22.5 19.1484 22.5C19.5859 22.5 20.0117 22.4141 20.4258 22.2422C20.8398 22.0703 21.2031 21.8281 21.5156 21.5156C21.8281 21.2031 22.0703 20.8398 22.2422 20.4258C22.4141 20.0117 22.5 19.5859 22.5 19.1484C22.5 18.6953 22.4141 18.2656 22.2422 17.8594C22.0703 17.4531 21.8281 17.0859 21.5156 16.7578C21.2031 16.4453 20.8398 16.2031 20.4258 16.0312C20.0117 15.8594 19.5859 15.7734 19.1484 15.7734C18.7891 15.7734 18.4414 15.8281 18.1055 15.9375C17.7695 16.0469 17.4609 16.2031 17.1797 16.4062L14.0391 12L17.2031 7.59375C17.4844 7.79688 17.7891 7.95313 18.1172 8.0625C18.4453 8.17187 18.7891 8.22656 19.1484 8.22656C19.5859 8.22656 20.0117 8.14063 20.4258 7.96875C20.8398 7.79687 21.2031 7.55469 21.5156 7.24219C21.8281 6.91406 22.0703 6.54688 22.2422 6.14062C22.4141 5.73437 22.5 5.30469 22.5 4.85156C22.5 4.41406 22.4141 3.98828 22.2422 3.57422C22.0703 3.16016 21.8281 2.79687 21.5156 2.48438C21.2031 2.17188 20.8398 1.92969 20.4258 1.75781C20.0117 1.58594 19.5859 1.5 19.1484 1.5C18.6953 1.5 18.2656 1.58594 17.8594 1.75781C17.4531 1.92969 17.0859 2.17188 16.7578 2.48438ZM7.03125 12.9023C6.90625 13.1914 6.73437 13.4453 6.51562 13.6641C6.29688 13.8828 6.04297 14.0547 5.75391 14.1797C5.46484 14.3047 5.16406 14.3672 4.85156 14.3672C4.53906 14.3672 4.23828 14.3047 3.94922 14.1797C3.66016 14.0547 3.40625 13.8828 3.1875 13.6641C2.96875 13.4453 2.80078 13.1914 2.68359 12.9023C2.56641 12.6133 2.50781 12.3125 2.50781 12C2.50781 11.6875 2.56641 11.3867 2.68359 11.0977C2.80078 10.8086 2.96875 10.5547 3.1875 10.3359C3.40625 10.1172 3.66016 9.94531 3.94922 9.82031C4.23828 9.69531 4.53906 9.63281 4.85156 9.63281C5.16406 9.63281 5.46484 9.69531 5.75391 9.82031C6.04297 9.94531 6.29688 10.1172 6.51562 10.3359C6.73437 10.5547 6.90625 10.8086 7.03125 11.0977C7.15625 11.3867 7.21875 11.6875 7.21875 12C7.21875 12.3125 7.15625 12.6133 7.03125 12.9023ZM19.1484 16.7812C19.4609 16.7812 19.7617 16.8398 20.0508 16.957C20.3398 17.0742 20.5938 17.25 20.8125 17.4844C21.0312 17.7031 21.1992 17.957 21.3164 18.2461C21.4336 18.5352 21.4922 18.8359 21.4922 19.1484C21.4922 19.4609 21.4336 19.7617 21.3164 20.0508C21.1992 20.3398 21.0312 20.5938 20.8125 20.8125C20.5938 21.0312 20.3398 21.1992 20.0508 21.3164C19.7617 21.4336 19.4609 21.4922 19.1484 21.4922C18.8359 21.4922 18.5352 21.4336 18.2461 21.3164C17.957 21.1992 17.7031 21.0312 17.4844 20.8125C17.2656 20.5938 17.0938 20.3398 16.9688 20.0508C16.8437 19.7617 16.7812 19.4609 16.7812 19.1484C16.7812 18.8359 16.8437 18.5352 16.9688 18.2461C17.0938 17.957 17.2656 17.7031 17.4844 17.4844C17.7031 17.25 17.957 17.0742 18.2461 16.957C18.5352 16.8398 18.8359 16.7812 19.1484 16.7812Z" fill="#1E1E1E"/>
</svg>
