<svg width="24" height="24" viewBox="0 0 24 24" fill="none" xmlns="http://www.w3.org/2000/svg">
<g clip-path="url(#clip0_1733_4231)">
<path d="M21.75 18.0824C21.75 16.6336 20.5712 15.4549 19.1225 15.4549H14.0775C15.3713 12.2124 16.8188 8.22238 16.8188 6.60363C16.8188 5.14363 16.3487 3.65738 15.53 2.52613C14.6162 1.26238 13.3625 0.567383 12 0.567383C10.6375 0.567383 9.38375 1.26363 8.47 2.52613C7.65125 3.65863 7.18125 5.14488 7.18125 6.60363C7.18125 8.22238 8.62875 12.2124 9.9225 15.4549H4.8775C3.42875 15.4549 2.25 16.6336 2.25 18.0824V20.8524H4.68125V23.4324H19.3188V20.8524H21.75V18.0824ZM12 1.31738C14.4337 1.31738 16.0688 4.05113 16.0688 6.60488C16.0688 7.81488 15.0813 10.9386 13.2863 15.4124H10.7125C8.9175 10.9374 7.93 7.81488 7.93 6.60488C7.93 4.05113 9.565 1.31738 12 1.31738ZM18.5688 22.6824H5.43125V20.8524H18.5688V22.6824ZM21 20.1024H19.3188V20.0999H4.68125V20.1024H3V18.0824C3 17.0474 3.8425 16.2049 4.8775 16.2049H19.1213C20.1563 16.2049 20.9988 17.0474 20.9988 18.0824L21 20.1024Z" fill="#1E1E1E"/>
</g>
<defs>
<clipPath id="clip0_1733_4231">
<rect width="24" height="24" fill="white"/>
</clipPath>
</defs>
</svg>
