<svg width="24" height="24" viewBox="0 0 24 24" fill="none" xmlns="http://www.w3.org/2000/svg">
<path d="M12 2.50781C11 2.50781 10.0625 2.6875 9.1875 3.04688C8.3125 3.42188 7.55078 3.92578 6.90234 4.55859C6.25391 5.19141 5.74219 5.92969 5.36719 6.77344C4.99219 7.63281 4.80469 8.53906 4.80469 9.49219V16.5H19.1953V9.49219C19.1953 8.53906 19.0078 7.63281 18.6328 6.77344C18.2578 5.92969 17.7461 5.19141 17.0977 4.55859C16.4492 3.92578 15.6875 3.42188 14.8125 3.04688C13.9375 2.6875 13 2.50781 12 2.50781ZM20.2031 16.5H22.0078V17.5078H1.99219V16.5H3.79688V9.49219C3.79688 8.38281 4.01563 7.34375 4.45312 6.375C4.89062 5.40625 5.48047 4.5625 6.22266 3.84375C6.96484 3.125 7.82812 2.55469 8.8125 2.13281C9.8125 1.71094 10.875 1.5 12 1.5C13.125 1.5 14.1875 1.71094 15.1875 2.13281C16.1719 2.55469 17.0352 3.125 17.7773 3.84375C18.5195 4.5625 19.1094 5.40625 19.5469 6.375C19.9844 7.34375 20.2031 8.38281 20.2031 9.49219V16.5ZM8.41406 19.9922V19.2422H9.42188V19.9922C9.42188 20.6797 9.67187 21.2695 10.1719 21.7617C10.6719 22.2539 11.2813 22.5 12 22.5C12.7187 22.5 13.3281 22.2539 13.8281 21.7617C14.3281 21.2695 14.5781 20.6797 14.5781 19.9922V19.2422H15.5859V19.9922C15.5859 20.9766 15.2344 21.8086 14.5312 22.4883C13.8281 23.168 12.9844 23.5078 12 23.5078C11.0156 23.5078 10.1719 23.168 9.46875 22.4883C8.76562 21.8086 8.41406 20.9766 8.41406 19.9922Z" fill="#1E1E1E"/>
</svg>
