<svg width="24" height="24" viewBox="0 0 24 24" fill="none" xmlns="http://www.w3.org/2000/svg">
<path d="M18.375 5.625C18.7969 6.03125 19.1719 6.47656 19.5 6.96094C19.8281 7.44531 20.1016 7.96094 20.3203 8.50781C20.5547 9.05469 20.7266 9.61328 20.8359 10.1836C20.9453 10.7539 21 11.3359 21 11.9297C21 13.1641 20.7656 14.3203 20.2969 15.3984C19.8281 16.4766 19.1875 17.418 18.375 18.2227C17.5625 19.0273 16.6094 19.6641 15.5156 20.1328C14.4375 20.6016 13.2813 20.8359 12.0469 20.8359H12.0234C11.2891 20.8359 10.5586 20.7461 9.83203 20.5664C9.10547 20.3867 8.41406 20.1172 7.75781 19.7578L3 21L4.26562 16.3828C3.875 15.7109 3.57813 14.9961 3.375 14.2383C3.17187 13.4805 3.07031 12.7109 3.07031 11.9297C3.07031 10.6953 3.30469 9.53906 3.77344 8.46094C4.24219 7.36719 4.88281 6.41797 5.69531 5.61328C6.50781 4.80859 7.46094 4.17188 8.55469 3.70312C9.64844 3.23438 10.8125 3 12.0469 3C12.625 3 13.2031 3.05469 13.7812 3.16406C14.3594 3.27344 14.9219 3.44531 15.4688 3.67969C16.0156 3.89844 16.5352 4.17188 17.0273 4.5C17.5195 4.82812 17.9687 5.20312 18.375 5.625ZM12.0469 19.3359C13.0625 19.3359 14.0234 19.1406 14.9297 18.75C15.8359 18.3594 16.625 17.8281 17.2969 17.1562C17.9687 16.4844 18.5 15.7031 18.8906 14.8125C19.2812 13.9062 19.4766 12.9453 19.4766 11.9297C19.4922 11.4453 19.4492 10.9609 19.3477 10.4766C19.2461 9.99219 19.1016 9.53125 18.9141 9.09375C18.7266 8.64062 18.5 8.21094 18.2344 7.80469C17.9688 7.39844 17.6562 7.02344 17.2969 6.67969C16.9531 6.33594 16.5781 6.02734 16.1719 5.75391C15.7656 5.48047 15.3359 5.25 14.8828 5.0625C14.4297 4.875 13.9648 4.73438 13.4883 4.64062C13.0117 4.54688 12.5312 4.5 12.0469 4.5C11.0156 4.5 10.0469 4.69531 9.14062 5.08594C8.23437 5.47656 7.44531 6.00781 6.77344 6.67969C6.10156 7.35156 5.57031 8.14062 5.17969 9.04688C4.78906 9.9375 4.59375 10.8984 4.59375 11.9297C4.59375 12.6172 4.6875 13.2969 4.875 13.9688C5.0625 14.6406 5.34375 15.2734 5.71875 15.8672L5.90625 16.1484L5.15625 18.8906L7.96875 18.1406L8.25 18.3047C8.8125 18.6484 9.41797 18.9062 10.0664 19.0781C10.7148 19.25 11.3672 19.3359 12.0234 19.3359H12.0469ZM16.125 13.7812C16.2344 13.8438 16.3242 13.8906 16.3945 13.9219C16.4648 13.9531 16.5156 13.9922 16.5469 14.0391C16.5781 14.0859 16.5898 14.2109 16.582 14.4141C16.5742 14.6172 16.5234 14.8516 16.4297 15.1172C16.3359 15.3672 16.1133 15.5977 15.7617 15.8086C15.4102 16.0195 15.125 16.1406 14.9062 16.1719C14.7188 16.2031 14.5039 16.2148 14.2617 16.207C14.0195 16.1992 13.7656 16.1562 13.5 16.0781C13.3438 16.0312 13.1602 15.9687 12.9492 15.8906C12.7383 15.8125 12.5 15.7187 12.2344 15.6094C11.1094 15.125 10.2031 14.4609 9.51562 13.6172C8.82812 12.7734 8.45313 12.3125 8.39062 12.2344C8.34375 12.1719 8.17969 11.9102 7.89844 11.4492C7.61719 10.9883 7.47656 10.4844 7.47656 9.9375C7.47656 9.39062 7.58203 8.97266 7.79297 8.68359C8.00391 8.39453 8.16406 8.19531 8.27344 8.08594C8.30469 8.03906 8.34375 8 8.39062 7.96875C8.4375 7.9375 8.48438 7.90625 8.53125 7.875C8.59375 7.85937 8.65234 7.84375 8.70703 7.82812C8.76172 7.8125 8.8125 7.80469 8.85938 7.80469C8.9375 7.80469 9.01172 7.80469 9.08203 7.80469C9.15234 7.80469 9.22656 7.80469 9.30469 7.80469C9.36719 7.80469 9.44141 7.81641 9.52734 7.83984C9.61328 7.86328 9.70312 7.97656 9.79688 8.17969C9.89062 8.41406 10.0234 8.73437 10.1953 9.14062C10.3672 9.54688 10.4609 9.78125 10.4766 9.84375C10.5078 9.90625 10.5312 9.96875 10.5469 10.0312C10.5625 10.0938 10.5469 10.1641 10.5 10.2422C10.4687 10.3047 10.4375 10.3633 10.4062 10.418C10.375 10.4727 10.3359 10.5391 10.2891 10.6172C10.2266 10.6797 10.168 10.7461 10.1133 10.8164C10.0586 10.8867 10 10.9453 9.9375 10.9922C9.89062 11.0547 9.84766 11.1172 9.80859 11.1797C9.76953 11.2422 9.78125 11.3359 9.84375 11.4609C9.90625 11.5703 10.0469 11.7813 10.2656 12.0938C10.4844 12.4062 10.7578 12.7031 11.0859 12.9844C11.5234 13.375 11.9062 13.6445 12.2344 13.793C12.5625 13.9414 12.7813 14.0469 12.8906 14.1094C13 14.1562 13.0938 14.1758 13.1719 14.168C13.25 14.1602 13.3203 14.1172 13.3828 14.0391C13.4453 13.9766 13.5586 13.8438 13.7227 13.6406C13.8867 13.4375 14.0078 13.2812 14.0859 13.1719C14.1641 13.0625 14.2422 13.0078 14.3203 13.0078C14.3984 13.0078 14.4922 13.0234 14.6016 13.0547C14.6953 13.1016 14.9453 13.2227 15.3516 13.418C15.7578 13.6133 16.0156 13.7344 16.125 13.7812Z" fill="#1E1E1E"/>
</svg>
