<svg width="24" height="24" viewBox="0 0 24 24" fill="none" xmlns="http://www.w3.org/2000/svg">
<g clip-path="url(#clip0_1733_4228)">
<path d="M0.304688 10.4062C0.304688 9 0.570313 7.6875 1.10156 6.46875C1.63281 5.23437 2.35547 4.16406 3.26953 3.25781C4.18359 2.35156 5.25 1.63281 6.46875 1.10156C7.6875 0.570313 9 0.304688 10.4062 0.304688C11.7969 0.304688 13.1016 0.570313 14.3203 1.10156C15.5547 1.63281 16.6289 2.35156 17.543 3.25781C18.457 4.16406 19.1797 5.23437 19.7109 6.46875C20.2422 7.6875 20.5078 9 20.5078 10.4062C20.5078 11.7031 20.2734 12.9336 19.8047 14.0977C19.3359 15.2617 18.6953 16.2891 17.8828 17.1797L23.5547 22.8516L22.8516 23.5547L17.1797 17.8828C16.2891 18.6953 15.2617 19.3359 14.0977 19.8047C12.9336 20.2734 11.7031 20.5078 10.4062 20.5078C9 20.5078 7.6875 20.2422 6.46875 19.7109C5.25 19.1797 4.18359 18.457 3.26953 17.543C2.35547 16.6289 1.63281 15.5547 1.10156 14.3203C0.570313 13.1016 0.304688 11.7969 0.304688 10.4062ZM18.8789 13.6992C19.293 12.6602 19.5 11.5625 19.5 10.4062C19.5 9.14062 19.2578 7.96094 18.7734 6.86719C18.3047 5.75781 17.6602 4.78906 16.8398 3.96094C16.0195 3.13281 15.0547 2.48438 13.9453 2.01562C12.8359 1.53125 11.6562 1.28906 10.4062 1.28906C9.14062 1.28906 7.96094 1.53125 6.86719 2.01562C5.75781 2.48438 4.78906 3.13281 3.96094 3.96094C3.13281 4.78906 2.48438 5.75781 2.01562 6.86719C1.53125 7.96094 1.28906 9.14062 1.28906 10.4062C1.28906 11.6562 1.53125 12.8359 2.01562 13.9453C2.48438 15.0547 3.13281 16.0195 3.96094 16.8398C4.78906 17.6602 5.75781 18.3047 6.86719 18.7734C7.96094 19.2578 9.14062 19.5 10.4062 19.5C11.5625 19.5 12.6602 19.293 13.6992 18.8789C14.7383 18.4648 15.6641 17.8984 16.4766 17.1797L16.4531 17.1562L17.1562 16.4531L17.1797 16.4766C17.8984 15.6641 18.4648 14.7383 18.8789 13.6992Z" fill="#1E1E1E"/>
</g>
<defs>
<clipPath id="clip0_1733_4228">
<rect width="24" height="24" fill="white"/>
</clipPath>
</defs>
</svg>
