<svg width="24" height="24" viewBox="0 0 24 24" fill="none" xmlns="http://www.w3.org/2000/svg">
<g clip-path="url(#clip0_1733_4132)">
<path d="M12 23.5078L12.2812 23.1562C12.375 23.0469 12.8281 22.4609 13.6406 21.3984C14.4688 20.3359 15.3594 19.0859 16.3125 17.6484C17.2656 16.2109 18.1328 14.7266 18.9141 13.1953C19.6953 11.6641 20.0859 10.3828 20.0859 9.35156C20.0859 8.33594 19.8711 7.30859 19.4414 6.26953C19.0117 5.23047 18.4062 4.28125 17.625 3.42188C16.8281 2.54688 15.9375 1.86719 14.9531 1.38281C13.9688 0.898438 12.9844 0.65625 12 0.65625C11.0156 0.65625 10.0312 0.898438 9.04688 1.38281C8.0625 1.86719 7.17188 2.54688 6.375 3.42188C5.59375 4.28125 4.98828 5.23047 4.55859 6.26953C4.12891 7.30859 3.91406 8.33594 3.91406 9.35156C3.91406 10.3828 4.30469 11.6641 5.08594 13.1953C5.86719 14.7266 6.73438 16.2109 7.6875 17.6484C8.64062 19.0859 9.53125 20.3359 10.3594 21.3984C11.1719 22.4609 11.625 23.0469 11.7188 23.1562L12 23.5078ZM14.6719 2.08594C15.5469 2.53906 16.332 3.14062 17.0273 3.89062C17.7227 4.64062 18.2812 5.49219 18.7031 6.44531C19.125 7.39844 19.3359 8.36719 19.3359 9.35156C19.3359 10.2109 19.0156 11.2812 18.375 12.5625C17.75 13.8594 17.0234 15.1523 16.1953 16.4414C15.3672 17.7305 14.5469 18.9219 13.7344 20.0156C12.9219 21.0938 12.3438 21.8594 12 22.3125C11.6562 21.8594 11.0781 21.0938 10.2656 20.0156C9.45312 18.9219 8.63281 17.7305 7.80469 16.4414C6.97656 15.1523 6.25 13.8594 5.625 12.5625C4.98438 11.2812 4.66406 10.2109 4.66406 9.35156C4.66406 8.36719 4.875 7.39844 5.29688 6.44531C5.71875 5.49219 6.27734 4.64062 6.97266 3.89062C7.66797 3.14062 8.45312 2.53906 9.32812 2.08594C10.2031 1.63281 11.0938 1.40625 12 1.40625C12.9062 1.40625 13.7969 1.63281 14.6719 2.08594ZM12 12.75C12.8594 12.75 13.5977 12.4414 14.2148 11.8242C14.832 11.207 15.1406 10.4609 15.1406 9.58594C15.1406 8.69531 14.832 7.94141 14.2148 7.32422C13.5977 6.70703 12.8594 6.39844 12 6.39844C11.1406 6.39844 10.4023 6.70703 9.78516 7.32422C9.16797 7.94141 8.85938 8.69531 8.85938 9.58594C8.85938 10.4609 9.16797 11.207 9.78516 11.8242C10.4023 12.4414 11.1406 12.75 12 12.75ZM12 7.14844C12.6562 7.14844 13.2188 7.38672 13.6875 7.86328C14.1562 8.33984 14.3906 8.91406 14.3906 9.58594C14.3906 10.2422 14.1562 10.8086 13.6875 11.2852C13.2188 11.7617 12.6562 12 12 12C11.3438 12 10.7812 11.7617 10.3125 11.2852C9.84375 10.8086 9.60938 10.2422 9.60938 9.58594C9.60938 8.91406 9.84375 8.33984 10.3125 7.86328C10.7812 7.38672 11.3438 7.14844 12 7.14844Z" fill="#1E1E1E"/>
</g>
<defs>
<clipPath id="clip0_1733_4132">
<rect width="24" height="24" fill="white"/>
</clipPath>
</defs>
</svg>
