<svg width="24" height="24" viewBox="0 0 24 24" fill="none" xmlns="http://www.w3.org/2000/svg">
<g clip-path="url(#clip0_1733_4195)">
<path d="M4.57031 0.749965C4.52344 0.82809 4.5 0.914028 4.5 1.00778V22.9922C4.5 23.0859 4.52344 23.1718 4.57031 23.25C4.61719 23.3281 4.67969 23.3906 4.75781 23.4375C4.85156 23.4843 4.94531 23.5039 5.03906 23.4961C5.13281 23.4882 5.21094 23.4609 5.27344 23.414L21.2812 12.4218C21.3438 12.375 21.3945 12.3125 21.4336 12.2343C21.4727 12.1562 21.4922 12.0781 21.4922 12C21.4922 11.9218 21.4727 11.8437 21.4336 11.7656C21.3945 11.6875 21.3438 11.625 21.2812 11.5781L5.27344 0.585903C5.21094 0.539028 5.13281 0.511684 5.03906 0.503871C4.94531 0.496059 4.85156 0.51559 4.75781 0.562465C4.67969 0.60934 4.61719 0.67184 4.57031 0.749965ZM5.50781 1.94528L20.1094 12L5.50781 22.0547V1.94528Z" fill="#1E1E1E"/>
</g>
<defs>
<clipPath id="clip0_1733_4195">
<rect width="24" height="24" fill="white"/>
</clipPath>
</defs>
</svg>
