<svg width="24" height="24" viewBox="0 0 24 24" fill="none" xmlns="http://www.w3.org/2000/svg">
<g clip-path="url(#clip0_1733_4205)">
<path d="M2.90625 2.57812C2.90625 2 3.10937 1.50781 3.51562 1.10156C3.92188 0.695312 4.41406 0.492188 4.99219 0.492188H19.4062C19.9844 0.492188 20.4766 0.695312 20.8828 1.10156C21.2891 1.50781 21.4922 2 21.4922 2.57812V21.4219C21.4922 22 21.2891 22.4922 20.8828 22.8984C20.4766 23.3047 19.9844 23.5078 19.4062 23.5078H4.99219C4.41406 23.5078 3.92188 23.3047 3.51562 22.8984C3.10937 22.4922 2.90625 22 2.90625 21.4219V17.2031H1.00781V16.2188H2.90625V7.78125H1.00781V6.79688H2.90625V2.57812ZM3.89062 7.78125V16.2188H5.78906V17.2031H3.89062V21.4219C3.89062 21.7188 4 21.9727 4.21875 22.1836C4.4375 22.3945 4.69531 22.5 4.99219 22.5H19.4062C19.7031 22.5 19.9609 22.3945 20.1797 22.1836C20.3984 21.9727 20.5078 21.7188 20.5078 21.4219V2.57812C20.5078 2.28125 20.3984 2.02734 20.1797 1.81641C19.9609 1.60547 19.7031 1.5 19.4062 1.5H4.99219C4.69531 1.5 4.4375 1.60547 4.21875 1.81641C4 2.02734 3.89062 2.28125 3.89062 2.57812V6.79688H5.78906V7.78125H3.89062ZM9.30469 8.0625C9.30469 8.85938 9.58984 9.53516 10.1602 10.0898C10.7305 10.6445 11.4141 10.9219 12.2109 10.9219C13.0078 10.9219 13.6875 10.6445 14.25 10.0898C14.8125 9.53516 15.0938 8.85938 15.0938 8.0625C15.0938 7.28125 14.8125 6.60938 14.25 6.04688C13.6875 5.48438 13.0078 5.20312 12.2109 5.20312C11.4141 5.20312 10.7305 5.48438 10.1602 6.04688C9.58984 6.60938 9.30469 7.28125 9.30469 8.0625ZM13.5469 6.76172C13.9219 7.12891 14.1094 7.5625 14.1094 8.0625C14.1094 8.57812 13.9219 9.01953 13.5469 9.38672C13.1719 9.75391 12.7266 9.9375 12.2109 9.9375C11.6797 9.9375 11.2266 9.75391 10.8516 9.38672C10.4766 9.01953 10.2891 8.57812 10.2891 8.0625C10.2891 7.5625 10.4766 7.12891 10.8516 6.76172C11.2266 6.39453 11.6797 6.21094 12.2109 6.21094C12.7266 6.21094 13.1719 6.39453 13.5469 6.76172ZM12.2109 14.0625C13.1797 14.0625 14.0039 14.3984 14.6836 15.0703C15.3633 15.7422 15.7031 16.5547 15.7031 17.5078V17.7891H8.69531V17.5078C8.69531 16.5547 9.03516 15.7422 9.71484 15.0703C10.3945 14.3984 11.2266 14.0625 12.2109 14.0625ZM7.71094 17.5078V18.7969H16.7109V17.5078C16.7109 16.2734 16.2695 15.2266 15.3867 14.3672C14.5039 13.5078 13.4453 13.0781 12.2109 13.0781C10.9609 13.0781 9.89844 13.5078 9.02344 14.3672C8.14844 15.2266 7.71094 16.2734 7.71094 17.5078Z" fill="#1E1E1E"/>
</g>
<defs>
<clipPath id="clip0_1733_4205">
<rect width="24" height="24" fill="white"/>
</clipPath>
</defs>
</svg>
