<svg width="24" height="24" viewBox="0 0 24 24" fill="none" xmlns="http://www.w3.org/2000/svg">
<path d="M9.07031 20.4375H14.9297V21.9844C14.9297 22.125 14.9531 22.2578 15 22.3828C15.0469 22.5078 15.1172 22.625 15.2109 22.7344C15.3203 22.8281 15.4375 22.8984 15.5625 22.9453C15.6875 22.9922 15.8203 23.0156 15.9609 23.0156H18.0938C18.2344 23.0156 18.3672 22.9922 18.4922 22.9453C18.6172 22.8984 18.7344 22.8281 18.8438 22.7344C18.9375 22.625 19.0078 22.5078 19.0547 22.3828C19.1016 22.2578 19.125 22.125 19.125 21.9844V20.4375H19.5469C19.75 20.4375 19.9453 20.3984 20.1328 20.3203C20.3203 20.2422 20.4844 20.125 20.625 19.9688C20.7656 19.8281 20.875 19.6641 20.9531 19.4766C21.0312 19.2891 21.0703 19.0938 21.0703 18.8906V9.77344H23.0156V5.17969H21.0703V2.50781C21.0703 2.30469 21.0312 2.10938 20.9531 1.92188C20.875 1.73438 20.7656 1.57031 20.625 1.42969C20.4844 1.28906 20.3203 1.17969 20.1328 1.10156C19.9453 1.02344 19.75 0.976563 19.5469 0.960938H4.45312C4.25 0.976563 4.05469 1.02344 3.86719 1.10156C3.67969 1.17969 3.51562 1.28906 3.375 1.42969C3.23438 1.57031 3.125 1.73438 3.04688 1.92188C2.96875 2.10938 2.92969 2.30469 2.92969 2.50781V9.14062H1.61719V5.83594H2.92969V5.17969H0.984375V9.77344H2.92969V18.8906C2.92969 19.0938 2.96875 19.2891 3.04688 19.4766C3.125 19.6641 3.23438 19.8281 3.375 19.9688C3.51562 20.125 3.67969 20.2422 3.86719 20.3203C4.05469 20.3984 4.25 20.4375 4.45312 20.4375H4.875V21.9844C4.875 22.125 4.89844 22.2578 4.94531 22.3828C4.99219 22.5078 5.07031 22.625 5.17969 22.7344C5.27344 22.8281 5.38281 22.8984 5.50781 22.9453C5.63281 22.9922 5.76562 23.0156 5.90625 23.0156H8.03906C8.17969 23.0156 8.3125 22.9922 8.4375 22.9453C8.5625 22.8984 8.67969 22.8281 8.78906 22.7344C8.88281 22.625 8.95312 22.5078 9 22.3828C9.04688 22.2578 9.07031 22.125 9.07031 21.9844V20.4375ZM22.3828 9.14062H21.0703V5.83594H22.3828V9.14062ZM5.50781 20.4375H8.4375V21.9844C8.4375 22.0469 8.42578 22.1016 8.40234 22.1484C8.37891 22.1953 8.35156 22.2344 8.32031 22.2656C8.28906 22.2969 8.25 22.3242 8.20312 22.3477C8.15625 22.3711 8.10156 22.3828 8.03906 22.3828H5.90625C5.84375 22.3828 5.78906 22.3711 5.74219 22.3477C5.69531 22.3242 5.65625 22.2969 5.625 22.2656C5.59375 22.2344 5.56641 22.1953 5.54297 22.1484C5.51953 22.1016 5.50781 22.0469 5.50781 21.9844V20.4375ZM9.07031 19.7812H4.45312C4.34375 19.7812 4.23437 19.7578 4.125 19.7109C4.01563 19.6641 3.91406 19.6016 3.82031 19.5234C3.74219 19.4453 3.67969 19.3516 3.63281 19.2422C3.58594 19.1328 3.5625 19.0156 3.5625 18.8906V13.2891H20.4375V18.8906C20.4375 19.0156 20.4141 19.1328 20.3672 19.2422C20.3203 19.3516 20.2578 19.4453 20.1797 19.5234C20.0859 19.6016 19.9844 19.6641 19.875 19.7109C19.7656 19.7578 19.6562 19.7812 19.5469 19.7812H9.07031ZM15.5625 21.9844V20.4375H18.4922V21.9844C18.4922 22.0469 18.4805 22.1016 18.457 22.1484C18.4336 22.1953 18.4063 22.2344 18.375 22.2656C18.3437 22.2969 18.3047 22.3242 18.2578 22.3477C18.2109 22.3711 18.1563 22.3828 18.0938 22.3828H15.9609C15.8984 22.3828 15.8438 22.3711 15.7969 22.3477C15.75 22.3242 15.7109 22.2969 15.6797 22.2656C15.6484 22.2344 15.6211 22.1953 15.5977 22.1484C15.5742 22.1016 15.5625 22.0469 15.5625 21.9844ZM3.5625 4.875H11.6719V12.6562H3.5625V4.875ZM12.3281 4.875H20.4375V12.6562H12.3281V4.875ZM3.5625 4.21875V2.50781C3.5625 2.39844 3.58594 2.28906 3.63281 2.17969C3.67969 2.07031 3.74219 1.96875 3.82031 1.875C3.91406 1.79688 4.01563 1.73438 4.125 1.6875C4.23437 1.64062 4.34375 1.61719 4.45312 1.61719H19.5469C19.6562 1.61719 19.7656 1.64062 19.875 1.6875C19.9844 1.73438 20.0859 1.79688 20.1797 1.875C20.2578 1.96875 20.3203 2.07031 20.3672 2.17969C20.4141 2.28906 20.4375 2.39844 20.4375 2.50781V4.21875H3.5625ZM16.875 18.1641C17.0781 18.1641 17.2812 18.1211 17.4844 18.0352C17.6875 17.9492 17.8594 17.8359 18 17.6953C18.1562 17.5391 18.2773 17.3594 18.3633 17.1562C18.4492 16.9531 18.4922 16.75 18.4922 16.5469C18.4922 16.375 18.4688 16.2148 18.4219 16.0664C18.375 15.918 18.3047 15.7734 18.2109 15.6328C18.1172 15.5078 18.0117 15.3945 17.8945 15.293C17.7773 15.1914 17.6406 15.1094 17.4844 15.0469C17.3438 14.9844 17.1914 14.9453 17.0273 14.9297C16.8633 14.9141 16.7031 14.9219 16.5469 14.9531C16.3906 14.9844 16.2422 15.0391 16.1016 15.1172C15.9609 15.1953 15.8359 15.2891 15.7266 15.3984C15.6016 15.5078 15.5039 15.6328 15.4336 15.7734C15.3633 15.9141 15.3125 16.0625 15.2812 16.2188C15.25 16.375 15.2422 16.5352 15.2578 16.6992C15.2734 16.8633 15.3125 17.0156 15.375 17.1562C15.4375 17.3125 15.5195 17.4531 15.6211 17.5781C15.7227 17.7031 15.8359 17.8047 15.9609 17.8828C16.1016 17.9766 16.2461 18.0469 16.3945 18.0938C16.543 18.1406 16.7031 18.1641 16.875 18.1641ZM16.875 15.5625C17 15.5625 17.1211 15.5859 17.2383 15.6328C17.3555 15.6797 17.4609 15.75 17.5547 15.8438C17.6484 15.9375 17.7188 16.043 17.7656 16.1602C17.8125 16.2773 17.8359 16.4062 17.8359 16.5469C17.8359 16.6406 17.8242 16.7344 17.8008 16.8281C17.7773 16.9219 17.7344 17.0078 17.6719 17.0859C17.625 17.1641 17.5625 17.2344 17.4844 17.2969C17.4063 17.3594 17.3203 17.4062 17.2266 17.4375C17.1484 17.4688 17.0625 17.4922 16.9688 17.5078C16.875 17.5234 16.7734 17.5156 16.6641 17.4844C16.5703 17.4687 16.4844 17.4375 16.4062 17.3906C16.3281 17.3438 16.25 17.2891 16.1719 17.2266C16.1094 17.1641 16.0547 17.0898 16.0078 17.0039C15.9609 16.918 15.9297 16.8281 15.9141 16.7344C15.8984 16.6406 15.8945 16.543 15.9023 16.4414C15.9102 16.3398 15.9297 16.25 15.9609 16.1719C16.0078 16.0781 16.0586 15.9961 16.1133 15.9258C16.168 15.8555 16.2422 15.7891 16.3359 15.7266C16.4141 15.6797 16.4961 15.6406 16.582 15.6094C16.668 15.5781 16.7656 15.5625 16.875 15.5625ZM6.23438 17.8828C6.09375 17.8047 5.97266 17.7031 5.87109 17.5781C5.76953 17.4531 5.69531 17.3125 5.64844 17.1562C5.58594 17.0156 5.54688 16.8633 5.53125 16.6992C5.51562 16.5352 5.52344 16.375 5.55469 16.2188C5.58594 16.0625 5.63672 15.9141 5.70703 15.7734C5.77734 15.6328 5.875 15.5078 6 15.3984C6.10937 15.2891 6.23438 15.1953 6.375 15.1172C6.51562 15.0391 6.66406 14.9844 6.82031 14.9531C6.97656 14.9219 7.13281 14.9141 7.28906 14.9297C7.44531 14.9453 7.60156 14.9844 7.75781 15.0469C7.89844 15.1094 8.03125 15.1914 8.15625 15.293C8.28125 15.3945 8.39062 15.5078 8.48438 15.6328C8.57812 15.7734 8.64844 15.918 8.69531 16.0664C8.74219 16.2148 8.76562 16.375 8.76562 16.5469C8.76562 16.75 8.72266 16.9531 8.63672 17.1562C8.55078 17.3594 8.42969 17.5391 8.27344 17.6953C8.13281 17.8359 7.96094 17.9492 7.75781 18.0352C7.55469 18.1211 7.34375 18.1641 7.125 18.1641C6.96875 18.1641 6.81641 18.1406 6.66797 18.0938C6.51953 18.0469 6.375 17.9766 6.23438 17.8828ZM6.58594 15.7266C6.50781 15.7891 6.4375 15.8555 6.375 15.9258C6.3125 15.9961 6.26563 16.0781 6.23438 16.1719C6.20312 16.25 6.18359 16.3398 6.17578 16.4414C6.16797 16.543 6.17187 16.6406 6.1875 16.7344C6.20313 16.8281 6.23438 16.918 6.28125 17.0039C6.32812 17.0898 6.38281 17.1641 6.44531 17.2266C6.50781 17.2891 6.58203 17.3438 6.66797 17.3906C6.75391 17.4375 6.84375 17.4687 6.9375 17.4844C7.03125 17.5156 7.12891 17.5234 7.23047 17.5078C7.33203 17.4922 7.42188 17.4688 7.5 17.4375C7.59375 17.4062 7.67969 17.3594 7.75781 17.2969C7.83594 17.2344 7.89844 17.1641 7.94531 17.0859C7.99219 17.0078 8.03125 16.9219 8.0625 16.8281C8.09375 16.7344 8.10938 16.6406 8.10938 16.5469C8.10938 16.4062 8.08594 16.2773 8.03906 16.1602C7.99219 16.043 7.92188 15.9375 7.82812 15.8438C7.73438 15.75 7.62891 15.6797 7.51172 15.6328C7.39453 15.5859 7.26562 15.5625 7.125 15.5625C7.03125 15.5625 6.9375 15.5781 6.84375 15.6094C6.75 15.6406 6.66406 15.6797 6.58594 15.7266ZM13.9453 16.875H10.0547V16.2188H13.9453V16.875Z" fill="#1E1E1E"/>
</svg>
