<svg width="24" height="24" viewBox="0 0 24 24" fill="none" xmlns="http://www.w3.org/2000/svg">
<g clip-path="url(#clip0_1733_4155)">
<path d="M7.33594 18.7266C7.19531 18.7266 7.07422 18.6797 6.97266 18.5859C6.87109 18.4922 6.82031 18.375 6.82031 18.2344H7.33594V18.7266ZM17.1797 18.2344C17.1797 18.375 17.1289 18.4922 17.0273 18.5859C16.9258 18.6797 16.8047 18.7266 16.6641 18.7266V18.2344H17.1797ZM7.33594 18.7266V17.7422H16.6641V18.7266H7.33594ZM16.1719 18.2344V15.1172H17.1797V18.2344H16.1719ZM6.82031 15.1172H7.82812V18.2344H6.82031V15.1172ZM12 10.9453C10.8438 10.9453 9.85938 11.3516 9.04688 12.1641C8.23437 12.9766 7.82812 13.9609 7.82812 15.1172H6.82031C6.82031 14.3984 6.96094 13.7266 7.24219 13.1016C7.50781 12.4766 7.875 11.9297 8.34375 11.4609C8.8125 10.9922 9.35938 10.625 9.98438 10.3594C10.6094 10.0781 11.2813 9.9375 12 9.9375V10.9453ZM16.1719 15.1172C16.1719 13.9609 15.7656 12.9766 14.9531 12.1641C14.1406 11.3516 13.1562 10.9453 12 10.9453V9.9375C12.7187 9.9375 13.3906 10.0781 14.0156 10.3594C14.6406 10.625 15.1875 10.9922 15.6562 11.4609C16.125 11.9297 16.4922 12.4766 16.7578 13.1016C17.0391 13.7266 17.1797 14.3984 17.1797 15.1172H16.1719ZM22.4062 18.2344H23.4141C23.4141 18.6406 23.3242 19.0273 23.1445 19.3945C22.9648 19.7617 22.7187 20.1016 22.4062 20.4141C22.0938 20.7109 21.7266 20.9961 21.3047 21.2695C20.8828 21.543 20.4219 21.7891 19.9219 22.0078C19.4062 22.2266 18.8438 22.4219 18.2344 22.5938C17.6406 22.7656 17.0078 22.9141 16.3359 23.0391C15.6641 23.1641 14.9687 23.2578 14.25 23.3203C13.5156 23.3828 12.7656 23.4141 12 23.4141V22.4062C12.7344 22.4062 13.4531 22.375 14.1562 22.3125C14.8594 22.25 15.5273 22.1602 16.1602 22.043C16.793 21.9258 17.3906 21.7891 17.9531 21.6328C18.5156 21.4609 19.0391 21.2734 19.5234 21.0703C19.9922 20.8672 20.4102 20.6523 20.7773 20.4258C21.1445 20.1992 21.4531 19.9609 21.7031 19.7109C21.9375 19.4609 22.1133 19.2109 22.2305 18.9609C22.3477 18.7109 22.4062 18.4688 22.4062 18.2344ZM12 23.4141C11.2344 23.4141 10.4844 23.3828 9.75 23.3203C9.03125 23.2578 8.33594 23.1641 7.66406 23.0391C6.99219 22.9141 6.35938 22.7656 5.76562 22.5938C5.15625 22.4219 4.59375 22.2266 4.07812 22.0078C3.57812 21.7891 3.11719 21.543 2.69531 21.2695C2.27344 20.9961 1.90625 20.7109 1.59375 20.4141C1.28125 20.1016 1.03516 19.7617 0.855469 19.3945C0.675781 19.0273 0.585938 18.6406 0.585938 18.2344H1.59375C1.59375 18.4688 1.65234 18.7109 1.76953 18.9609C1.88672 19.2109 2.0625 19.4609 2.29688 19.7109C2.54688 19.9609 2.85547 20.1992 3.22266 20.4258C3.58984 20.6523 4.00781 20.8672 4.47656 21.0703C4.96094 21.2734 5.48438 21.4609 6.04688 21.6328C6.60938 21.7891 7.20703 21.9258 7.83984 22.043C8.47266 22.1602 9.14062 22.25 9.84375 22.3125C10.5469 22.375 11.2656 22.4062 12 22.4062V23.4141ZM1.59375 18.2344H0.585938C0.585938 17.8281 0.675781 17.4453 0.855469 17.0859C1.03516 16.7266 1.27344 16.3906 1.57031 16.0781C1.86719 15.7812 2.22266 15.5 2.63672 15.2344C3.05078 14.9688 3.50781 14.7266 4.00781 14.5078L4.40625 15.4219C3.9375 15.625 3.52734 15.8398 3.17578 16.0664C2.82422 16.293 2.52344 16.5312 2.27344 16.7812C2.03906 17.0313 1.86719 17.2773 1.75781 17.5195C1.64844 17.7617 1.59375 18 1.59375 18.2344ZM19.5938 15.4219L19.9922 14.5078C20.4922 14.7266 20.9492 14.9688 21.3633 15.2344C21.7773 15.5 22.1328 15.7812 22.4297 16.0781C22.7266 16.3906 22.9648 16.7266 23.1445 17.0859C23.3242 17.4453 23.4141 17.8281 23.4141 18.2344H22.4062C22.4062 18 22.3516 17.7617 22.2422 17.5195C22.1328 17.2773 21.9609 17.0313 21.7266 16.7812C21.4766 16.5312 21.1758 16.293 20.8242 16.0664C20.4727 15.8398 20.0625 15.625 19.5938 15.4219ZM12 7.82812C11 7.82812 10.1484 7.47266 9.44531 6.76172C8.74219 6.05078 8.39062 5.20312 8.39062 4.21875H9.375C9.375 4.9375 9.63281 5.55078 10.1484 6.05859C10.6641 6.56641 11.2813 6.82031 12 6.82031V7.82812ZM15.6094 4.21875C15.6094 5.20312 15.2578 6.05078 14.5547 6.76172C13.8516 7.47266 13 7.82812 12 7.82812V6.82031C12.7187 6.82031 13.3359 6.56641 13.8516 6.05859C14.3672 5.55078 14.625 4.9375 14.625 4.21875H15.6094ZM12 0.585938C13 0.585938 13.8516 0.941406 14.5547 1.65234C15.2578 2.36328 15.6094 3.21875 15.6094 4.21875H14.625C14.625 3.48437 14.3672 2.86328 13.8516 2.35547C13.3359 1.84766 12.7187 1.59375 12 1.59375V0.585938ZM12 1.59375C11.2813 1.59375 10.6641 1.84766 10.1484 2.35547C9.63281 2.86328 9.375 3.48437 9.375 4.21875H8.39062C8.39062 3.21875 8.74219 2.36328 9.44531 1.65234C10.1484 0.941406 11 0.585938 12 0.585938V1.59375Z" fill="#1E1E1E"/>
</g>
<defs>
<clipPath id="clip0_1733_4155">
<rect width="24" height="24" fill="white"/>
</clipPath>
</defs>
</svg>
