<svg width="24" height="24" viewBox="0 0 24 24" fill="none" xmlns="http://www.w3.org/2000/svg">
<g clip-path="url(#clip0_1719_5743)">
<path d="M11.6719 0.421875L0.304688 10.1719V21.6094C0.304688 22.1875 0.507812 22.6797 0.914062 23.0859C1.32031 23.4922 1.8125 23.6953 2.39062 23.6953H8.78906C8.92969 23.6953 9.05078 23.6484 9.15234 23.5547C9.25391 23.4609 9.30469 23.3438 9.30469 23.2031V18.3984C9.30469 17.6484 9.56641 17.0117 10.0898 16.4883C10.6133 15.9648 11.25 15.7031 12 15.7031C12.75 15.7031 13.3867 15.9648 13.9102 16.4883C14.4336 17.0117 14.6953 17.6484 14.6953 18.3984V23.2031C14.6953 23.3438 14.7461 23.4609 14.8477 23.5547C14.9492 23.6484 15.0703 23.6953 15.2109 23.6953H21.6094C22.1875 23.6953 22.6797 23.4922 23.0859 23.0859C23.4922 22.6797 23.6953 22.1875 23.6953 21.6094V10.1719L12.3281 0.421875C12.2344 0.34375 12.125 0.304688 12 0.304688C11.875 0.304688 11.7656 0.34375 11.6719 0.421875ZM1.28906 10.6406L12 1.45312L22.7109 10.6406V21.6094C22.7109 21.9062 22.6016 22.1641 22.3828 22.3828C22.1641 22.6016 21.9062 22.7109 21.6094 22.7109H15.7031V18.3984C15.7031 17.3828 15.3398 16.5117 14.6133 15.7852C13.8867 15.0586 13.0156 14.6953 12 14.6953C10.9844 14.6953 10.1133 15.0586 9.38672 15.7852C8.66016 16.5117 8.29688 17.3828 8.29688 18.3984V22.7109H2.39062C2.09375 22.7109 1.83594 22.6016 1.61719 22.3828C1.39844 22.1641 1.28906 21.9062 1.28906 21.6094V10.6406Z" fill="#1E1E1E"/>
</g>
<defs>
<clipPath id="clip0_1719_5743">
<rect width="24" height="24" fill="white"/>
</clipPath>
</defs>
</svg>
