<svg width="24" height="24" viewBox="0 0 24 24" fill="none" xmlns="http://www.w3.org/2000/svg">
<g clip-path="url(#clip0_1733_4219)">
<path d="M0.046875 10.4062C0.046875 11.8281 0.320312 13.1719 0.867188 14.4375C1.41406 15.6875 2.15234 16.7812 3.08203 17.7188C4.01172 18.6562 5.10938 19.3984 6.375 19.9453C7.625 20.4766 8.96875 20.7422 10.4062 20.7422C11.7031 20.7422 12.9258 20.5195 14.0742 20.0742C15.2227 19.6289 16.2578 19.0156 17.1797 18.2344L22.6641 23.7188L23.7188 22.6641L18.2344 17.1797C19.0156 16.2578 19.6289 15.2227 20.0742 14.0742C20.5195 12.9258 20.7422 11.7031 20.7422 10.4062C20.7422 8.96875 20.4766 7.625 19.9453 6.375C19.3984 5.10938 18.6562 4.01172 17.7188 3.08203C16.7812 2.15234 15.6875 1.41406 14.4375 0.867188C13.1719 0.320312 11.8281 0.046875 10.4062 0.046875C8.96875 0.046875 7.625 0.320312 6.375 0.867188C5.10938 1.41406 4.01172 2.15234 3.08203 3.08203C2.15234 4.01172 1.41406 5.10938 0.867188 6.375C0.320312 7.625 0.046875 8.96875 0.046875 10.4062ZM10.4062 1.54688C11.625 1.54688 12.7734 1.78125 13.8516 2.25C14.9141 2.70312 15.8477 3.33203 16.6523 4.13672C17.457 4.94141 18.0938 5.88281 18.5625 6.96094C19.0156 8.03906 19.2422 9.1875 19.2422 10.4062C19.2422 11.625 19.0156 12.7734 18.5625 13.8516C18.0938 14.9141 17.457 15.8477 16.6523 16.6523C15.8477 17.457 14.9141 18.0938 13.8516 18.5625C12.7734 19.0156 11.625 19.2422 10.4062 19.2422C9.1875 19.2422 8.03906 19.0156 6.96094 18.5625C5.88281 18.0938 4.94141 17.457 4.13672 16.6523C3.33203 15.8477 2.70312 14.9141 2.25 13.8516C1.78125 12.7734 1.54688 11.625 1.54688 10.4062C1.54688 9.1875 1.78125 8.03906 2.25 6.96094C2.70312 5.88281 3.33203 4.94141 4.13672 4.13672C4.94141 3.33203 5.88281 2.70312 6.96094 2.25C8.03906 1.78125 9.1875 1.54688 10.4062 1.54688Z" fill="#1E1E1E"/>
</g>
<defs>
<clipPath id="clip0_1733_4219">
<rect width="24" height="24" fill="white"/>
</clipPath>
</defs>
</svg>
