<svg width="24" height="24" viewBox="0 0 24 24" fill="none" xmlns="http://www.w3.org/2000/svg">
<g id="iconName=IDIcon">
<path id="Union" d="M18 3.5C18.9283 3.5 19.8182 3.86901 20.4746 4.52539C21.131 5.18177 21.5 6.07174 21.5 7V17C21.5 17.9283 21.131 18.8182 20.4746 19.4746C19.8182 20.131 18.9283 20.5 18 20.5H6C5.07174 20.5 4.18177 20.131 3.52539 19.4746C2.86901 18.8182 2.5 17.9283 2.5 17V7C2.5 6.07174 2.86901 5.18177 3.52539 4.52539C4.18177 3.86901 5.07174 3.5 6 3.5H18ZM6 4.5C5.33696 4.5 4.70126 4.76358 4.23242 5.23242C3.76358 5.70126 3.5 6.33696 3.5 7V17C3.5 17.663 3.76358 18.2987 4.23242 18.7676C4.70126 19.2364 5.33696 19.5 6 19.5H18C18.663 19.5 19.2987 19.2364 19.7676 18.7676C20.2364 18.2987 20.5 17.663 20.5 17V7C20.5 6.33696 20.2364 5.70126 19.7676 5.23242C19.2987 4.76358 18.663 4.5 18 4.5H6ZM17 15.5C17.2761 15.5 17.5 15.7239 17.5 16C17.5 16.2761 17.2761 16.5 17 16.5H7C6.72386 16.5 6.5 16.2761 6.5 16C6.5 15.7239 6.72386 15.5 7 15.5H17ZM9 7.5C9.66304 7.5 10.2987 7.76358 10.7676 8.23242C11.2364 8.70126 11.5 9.33696 11.5 10C11.5 10.663 11.2364 11.2987 10.7676 11.7676C10.2987 12.2364 9.66304 12.5 9 12.5C8.33696 12.5 7.70126 12.2364 7.23242 11.7676C6.76358 11.2987 6.5 10.663 6.5 10C6.5 9.33696 6.76358 8.70126 7.23242 8.23242C7.70126 7.76358 8.33696 7.5 9 7.5ZM17 11.5C17.2761 11.5 17.5 11.7239 17.5 12C17.5 12.2761 17.2761 12.5 17 12.5H15C14.7239 12.5 14.5 12.2761 14.5 12C14.5 11.7239 14.7239 11.5 15 11.5H17ZM9 8.5C8.60218 8.5 8.22076 8.65815 7.93945 8.93945C7.65815 9.22076 7.5 9.60218 7.5 10C7.5 10.3978 7.65815 10.7792 7.93945 11.0605C8.22076 11.3419 8.60218 11.5 9 11.5C9.39782 11.5 9.77924 11.3419 10.0605 11.0605C10.3419 10.7792 10.5 10.3978 10.5 10C10.5 9.60218 10.3419 9.22076 10.0605 8.93945C9.77924 8.65815 9.39782 8.5 9 8.5ZM17 7.5C17.2761 7.5 17.5 7.72386 17.5 8C17.5 8.27614 17.2761 8.5 17 8.5H15C14.7239 8.5 14.5 8.27614 14.5 8C14.5 7.72386 14.7239 7.5 15 7.5H17Z" fill="#393A3B"/>
</g>
</svg>
