<svg width="24" height="23" viewBox="0 0 24 23" fill="none" xmlns="http://www.w3.org/2000/svg">
<g id="iconName=ImageIcon">
<path id="Vector" d="M5 2.875H18C18.7956 2.875 19.5587 3.1779 20.1213 3.71707C20.6839 4.25624 21 4.9875 21 5.75V18.2083C21 18.9708 20.6839 19.7021 20.1213 20.2413C19.5587 20.7804 18.7956 21.0833 18 21.0833H5C4.20435 21.0833 3.44129 20.7804 2.87868 20.2413C2.31607 19.7021 2 18.9708 2 18.2083V5.75C2 4.9875 2.31607 4.25624 2.87868 3.71707C3.44129 3.1779 4.20435 2.875 5 2.875ZM5 3.83333C4.46957 3.83333 3.96086 4.03527 3.58579 4.39471C3.21071 4.75416 3 5.24167 3 5.75V16.8571L7.29 12.7362L9.79 15.1321L14.79 10.3404L20 15.3333V5.75C20 5.24167 19.7893 4.75416 19.4142 4.39471C19.0391 4.03527 18.5304 3.83333 18 3.83333H5ZM9.79 16.4929L7.29 14.0971L3 18.2083C3 18.7167 3.21071 19.2042 3.58579 19.5636C3.96086 19.9231 4.46957 20.125 5 20.125H18C18.5304 20.125 19.0391 19.9231 19.4142 19.5636C19.7893 19.2042 20 18.7167 20 18.2083V16.6846L14.79 11.7012L9.79 16.4929ZM7.5 5.75C8.16304 5.75 8.79893 6.00242 9.26777 6.45172C9.73661 6.90103 10 7.51042 10 8.14583C10 8.78125 9.73661 9.39064 9.26777 9.83994C8.79893 10.2892 8.16304 10.5417 7.5 10.5417C6.83696 10.5417 6.20107 10.2892 5.73223 9.83994C5.26339 9.39064 5 8.78125 5 8.14583C5 7.51042 5.26339 6.90103 5.73223 6.45172C6.20107 6.00242 6.83696 5.75 7.5 5.75ZM7.5 6.70833C7.10217 6.70833 6.72064 6.85978 6.43934 7.12937C6.15803 7.39895 6 7.76458 6 8.14583C6 8.52708 6.15803 8.89272 6.43934 9.1623C6.72064 9.43188 7.10217 9.58333 7.5 9.58333C7.89782 9.58333 8.27936 9.43188 8.56066 9.1623C8.84196 8.89272 9 8.52708 9 8.14583C9 7.76458 8.84196 7.39895 8.56066 7.12937C8.27936 6.85978 7.89782 6.70833 7.5 6.70833Z" fill="#393A3B"/>
</g>
</svg>
