<svg width="24" height="24" viewBox="0 0 24 24" fill="none" xmlns="http://www.w3.org/2000/svg">
<g id="iconName=LiveIcon">
<path id="Vector" d="M6.54363 5.00065C6.46352 4.91891 6.36808 4.85376 6.26278 4.80891C6.15747 4.76407 6.04437 4.74041 5.92992 4.7393C5.81547 4.73818 5.70192 4.75963 5.59576 4.80242C5.48961 4.8452 5.39292 4.90849 5.31123 4.98865C4.38744 5.90755 3.65461 7.00016 3.15497 8.20354C2.65533 9.40692 2.39875 10.6973 2.40003 12.0003C2.39867 13.3533 2.67534 14.6921 3.21287 15.9338C3.7504 17.1754 4.53733 18.2933 5.52483 19.2183C5.69105 19.3719 5.91062 19.4547 6.13692 19.4491C6.36321 19.4435 6.57841 19.3499 6.73683 19.1883C7.11603 18.8091 7.06923 18.2055 6.70443 17.8563C5.91183 17.1009 5.2811 16.1923 4.85057 15.1856C4.42004 14.1789 4.19871 13.0951 4.20003 12.0003C4.20003 9.78505 5.08923 7.77625 6.53163 6.31465C6.87963 5.96065 6.91563 5.37265 6.54363 5.00065ZM8.65683 7.11625C8.49879 6.95364 8.28273 6.8603 8.056 6.85671C7.82927 6.85311 7.61035 6.93954 7.44723 7.09705C6.79781 7.73768 6.28235 8.50112 5.93088 9.34292C5.57941 10.1847 5.39896 11.088 5.40003 12.0003C5.40003 14.0307 6.27603 15.8559 7.67163 17.1183C7.83648 17.2636 8.05094 17.34 8.27055 17.3315C8.49017 17.323 8.6981 17.2303 8.85123 17.0727C9.24483 16.6791 9.17163 16.0599 8.80203 15.7119C8.29557 15.2355 7.89212 14.6604 7.61659 14.022C7.34106 13.3836 7.19929 12.6955 7.20003 12.0003C7.20003 10.6203 7.74843 9.36745 8.64003 8.44825C8.98323 8.09545 9.03963 7.49785 8.65683 7.11625ZM15.3432 7.11505C15.5013 6.95244 15.7173 6.8591 15.9441 6.85551C16.1708 6.85191 16.3897 6.93834 16.5528 7.09585C17.2024 7.73662 17.7179 8.50026 18.0694 9.34227C18.4209 10.1843 18.6013 11.0878 18.6 12.0003C18.6 14.0307 17.724 15.8559 16.3284 17.1183C16.1636 17.2636 15.9491 17.34 15.7295 17.3315C15.5099 17.323 15.302 17.2303 15.1488 17.0727C14.7552 16.6791 14.8284 16.0599 15.198 15.7119C15.7045 15.2355 16.1079 14.6604 16.3835 14.022C16.659 13.3836 16.8008 12.6955 16.8 12.0003C16.8 10.6203 16.2516 9.36745 15.36 8.44825C15.0168 8.09545 14.9604 7.49665 15.3432 7.11505ZM17.4564 5.00065C17.5365 4.91891 17.632 4.85376 17.7373 4.80891C17.8426 4.76407 17.9557 4.74041 18.0701 4.7393C18.1846 4.73818 18.2981 4.75963 18.4043 4.80242C18.5105 4.8452 18.6071 4.90849 18.6888 4.98865C19.6126 5.90755 20.3455 7.00016 20.8451 8.20354C21.3447 9.40692 21.6013 10.6973 21.6 12.0003C21.6014 13.3533 21.3247 14.6921 20.7872 15.9338C20.2497 17.1754 19.4627 18.2933 18.4752 19.2183C18.309 19.3719 18.0894 19.4547 17.8631 19.4491C17.6368 19.4435 17.4216 19.3499 17.2632 19.1883C16.884 18.8091 16.9308 18.2055 17.2968 17.8563C18.0892 17.1008 18.7197 16.1921 19.15 15.1854C19.5804 14.1787 19.8015 13.0951 19.8 12.0003C19.8 9.78505 18.9108 7.77625 17.4684 6.31465C17.1204 5.96065 17.0844 5.37265 17.4564 5.00065ZM12 10.2003C11.5226 10.2003 11.0648 10.3899 10.7272 10.7275C10.3897 11.065 10.2 11.5229 10.2 12.0003C10.2 12.4776 10.3897 12.9355 10.7272 13.273C11.0648 13.6106 11.5226 13.8003 12 13.8003C12.4774 13.8003 12.9353 13.6106 13.2728 13.273C13.6104 12.9355 13.8 12.4776 13.8 12.0003C13.8 11.5229 13.6104 11.065 13.2728 10.7275C12.9353 10.3899 12.4774 10.2003 12 10.2003Z" fill="#393A3B"/>
</g>
</svg>
