<svg width="25" height="25" viewBox="0 0 25 25" fill="none" xmlns="http://www.w3.org/2000/svg">
<g id="iconName=NewspaperIcon">
<path id="Vector" d="M2.25659 4.01172V17.5512C2.25659 19.2136 3.60302 20.56 5.26537 20.56H18.8049C20.4672 20.56 21.8136 19.2136 21.8136 17.5512V9.27708H17.3005V4.01172H2.25659ZM3.76098 5.51611H15.7961V17.5512C15.7961 18.1003 15.9616 18.6118 16.2196 19.0556H5.26537C4.37026 19.0556 3.76098 18.4463 3.76098 17.5512V5.51611ZM5.26537 7.02049V10.7815H14.2917V7.02049H5.26537ZM6.76976 8.52488H12.7873V9.27708H6.76976V8.52488ZM17.3005 10.7815H20.3092V17.5512C20.3092 18.4463 19.7 19.0556 18.8049 19.0556C17.9097 19.0556 17.3005 18.4463 17.3005 17.5512V10.7815ZM5.26537 11.5337V13.038H9.02634V11.5337H5.26537ZM10.5307 11.5337V13.038H14.2917V11.5337H10.5307ZM5.26537 13.7902V15.2946H9.02634V13.7902H5.26537ZM10.5307 13.7902V15.2946H14.2917V13.7902H10.5307ZM5.26537 16.0468V17.5512H9.02634V16.0468H5.26537ZM10.5307 16.0468V17.5512H14.2917V16.0468H10.5307Z" fill="#393A3B"/>
</g>
</svg>
