<svg width="20" height="20" viewBox="0 0 20 20" fill="none" xmlns="http://www.w3.org/2000/svg">
<g id="Group">
<path id="Vector" d="M17.5 1H2.5C2.10218 1 1.72064 1.15804 1.43934 1.43934C1.15804 1.72064 1 2.10218 1 2.5V17.5C1 17.8978 1.15804 18.2794 1.43934 18.5607C1.72064 18.842 2.10218 19 2.5 19H17.5C17.8978 19 18.2794 18.842 18.5607 18.5607C18.842 18.2794 19 17.8978 19 17.5V2.5C19 2.10218 18.842 1.72064 18.5607 1.43934C18.2794 1.15804 17.8978 1 17.5 1Z" stroke="#393A3B" stroke-width="2" stroke-linecap="round" stroke-linejoin="round"/>
<path id="Vector_2" d="M19 16L13.5 11L8.5 15.5L5 12.5L1 15.5M7 9.5C7.66304 9.5 8.29893 9.23661 8.76777 8.76777C9.23661 8.29893 9.5 7.66304 9.5 7C9.5 6.33696 9.23661 5.70107 8.76777 5.23223C8.29893 4.76339 7.66304 4.5 7 4.5C6.33696 4.5 5.70107 4.76339 5.23223 5.23223C4.76339 5.70107 4.5 6.33696 4.5 7C4.5 7.66304 4.76339 8.29893 5.23223 8.76777C5.70107 9.23661 6.33696 9.5 7 9.5Z" stroke="#393A3B" stroke-width="2" stroke-linecap="round" stroke-linejoin="round"/>
</g>
</svg>
