<svg width="25" height="24" viewBox="0 0 25 24" fill="none" xmlns="http://www.w3.org/2000/svg">
<g id="iconName=PlayIcon">
<path id="Vector" fill-rule="evenodd" clip-rule="evenodd" d="M19.436 13.9166C20.866 13.0386 20.866 10.9606 19.436 10.0826L9.552 4.01256C8.053 3.09256 6.125 4.17156 6.125 5.93056V18.0696C6.125 19.8286 8.053 20.9076 9.552 19.9866L19.436 13.9166ZM18.651 11.3606C18.7602 11.4277 18.8504 11.5216 18.9129 11.6335C18.9755 11.7454 19.0083 11.8714 19.0083 11.9996C19.0083 12.1277 18.9755 12.2538 18.9129 12.3656C18.8504 12.4775 18.7602 12.5715 18.651 12.6386L8.767 18.7076C8.65329 18.7773 8.52304 18.8154 8.38969 18.818C8.25633 18.8206 8.12469 18.7876 8.00834 18.7224C7.89198 18.6572 7.79512 18.5622 7.72774 18.447C7.66036 18.3319 7.62489 18.2009 7.625 18.0676V5.93156C7.62507 5.79826 7.66067 5.66739 7.72812 5.55243C7.79557 5.43746 7.89245 5.34254 8.00877 5.27745C8.1251 5.21237 8.25667 5.17946 8.38994 5.18211C8.52321 5.18476 8.65336 5.22289 8.767 5.29256L18.651 11.3606Z" fill="#393A3B"/>
</g>
</svg>
