<svg width="24" height="24" viewBox="0 0 24 24" fill="none" xmlns="http://www.w3.org/2000/svg">
<g id="iconName=StarIcon">
<path id="Vector" fill-rule="evenodd" clip-rule="evenodd" d="M10.4859 4.11369C11.1609 2.95169 12.8389 2.95169 13.5139 4.11369L15.5789 7.67369C15.7689 8.00169 16.0989 8.22469 16.4739 8.28169L19.9039 8.79969C21.3979 9.02569 21.9219 10.9137 20.7579 11.8777L18.2589 13.9477C18.0867 14.0905 17.9559 14.2769 17.8803 14.4874C17.8046 14.698 17.7869 14.9249 17.8289 15.1447L18.5289 18.8207C18.8029 20.2607 17.2909 21.3787 15.9939 20.6967L12.5819 18.8997C12.4024 18.8053 12.2027 18.7559 11.9999 18.7559C11.7971 18.7559 11.5974 18.8053 11.4179 18.8997L8.0059 20.6967C6.7089 21.3797 5.1969 20.2607 5.4709 18.8207L6.1709 15.1447C6.2129 14.9249 6.19516 14.698 6.11952 14.4874C6.04388 14.2769 5.91313 14.0905 5.7409 13.9477L3.2409 11.8777C2.0779 10.9137 2.6009 9.02569 4.0969 8.79969L7.5269 8.28169C7.71201 8.25361 7.88845 8.18431 8.04318 8.0789C8.19792 7.97349 8.327 7.83467 8.4209 7.67269L10.4859 4.11369ZM12.2159 4.86669C12.1939 4.82892 12.1624 4.79758 12.1245 4.7758C12.0866 4.75402 12.0436 4.74256 11.9999 4.74256C11.9562 4.74256 11.9132 4.75402 11.8753 4.7758C11.8374 4.79758 11.8059 4.82892 11.7839 4.86669L9.7179 8.42669C9.51111 8.78274 9.22701 9.08781 8.88656 9.31939C8.54612 9.55097 8.15801 9.70315 7.7509 9.76469L4.3209 10.2827C4.27314 10.2899 4.22848 10.3107 4.19233 10.3427C4.15617 10.3748 4.13006 10.4166 4.11716 10.4631C4.10425 10.5096 4.10511 10.5589 4.11961 10.605C4.13412 10.6511 4.16165 10.6919 4.1989 10.7227L6.6979 12.7927C7.07675 13.1066 7.36447 13.5163 7.53103 13.9793C7.6976 14.4422 7.73692 14.9414 7.6449 15.4247L6.9449 19.1007C6.9361 19.1469 6.94052 19.1947 6.95765 19.2385C6.97478 19.2823 7.00392 19.3204 7.04173 19.3484C7.07954 19.3764 7.12448 19.3931 7.17139 19.3967C7.21829 19.4003 7.26526 19.3906 7.3069 19.3687L10.7189 17.5727C11.1139 17.3648 11.5535 17.2561 11.9999 17.2561C12.4463 17.2561 12.8859 17.3648 13.2809 17.5727L16.6929 19.3687C16.7345 19.3906 16.7815 19.4003 16.8284 19.3967C16.8753 19.3931 16.9203 19.3764 16.9581 19.3484C16.9959 19.3204 17.025 19.2823 17.0421 19.2385C17.0593 19.1947 17.0637 19.1469 17.0549 19.1007L16.3549 15.4247C16.2629 14.9414 16.3022 14.4422 16.4688 13.9793C16.6353 13.5163 16.923 13.1066 17.3019 12.7927L19.8019 10.7227C19.8392 10.6919 19.8667 10.6509 19.8811 10.6048C19.8956 10.5586 19.8964 10.5093 19.8833 10.4627C19.8703 10.4162 19.8441 10.3744 19.8078 10.3424C19.7715 10.3105 19.7267 10.2897 19.6789 10.2827L16.2489 9.76469C15.8417 9.70304 15.4535 9.55071 15.1131 9.31895C14.7726 9.08719 14.4886 8.78192 14.2819 8.42569L12.2159 4.86669Z" fill="#393A3B"/>
</g>
</svg>
