<svg width="24" height="24" viewBox="0 0 24 24" fill="none" xmlns="http://www.w3.org/2000/svg">
<g id="iconName=SuccessIcon">
<path id="Union" d="M11.4104 1.19238C11.7615 0.936234 12.238 0.936246 12.5891 1.19238L14.9514 2.91504L17.8762 2.91016L18.0364 2.92285C18.403 2.98156 18.7124 3.24083 18.8293 3.60254L19.7278 6.38574L22.0969 8.09961C22.4489 8.35439 22.5962 8.80771 22.4612 9.2207L21.552 12L22.4612 14.7793C22.596 15.1923 22.4489 15.6457 22.0969 15.9004L19.7278 17.6133L18.8293 20.3975C18.6957 20.8107 18.3106 21.0906 17.8762 21.0898L14.9514 21.084L12.5891 22.8076C12.238 23.0636 11.7615 23.0636 11.4104 22.8076L9.0481 21.084L6.12427 21.0898C5.68983 21.0906 5.30382 20.8108 5.17017 20.3975L4.27173 17.6133L1.90356 15.9004C1.55154 15.6457 1.4044 15.1923 1.53931 14.7793L2.44849 12L1.53931 9.2207C1.40425 8.80766 1.55156 8.35442 1.90356 8.09961L4.27173 6.38574L5.17017 3.60254C5.30373 3.18905 5.68972 2.90935 6.12427 2.91016L9.0481 2.91504L11.4104 1.19238ZM9.96313 4.72363C9.79152 4.84878 9.58374 4.9164 9.37134 4.91602L6.84888 4.91113L6.07544 7.31152C6.01013 7.51346 5.88213 7.69 5.71021 7.81445L3.66626 9.29199L4.45044 11.6895C4.51628 11.8912 4.51634 12.1088 4.45044 12.3105L3.66626 14.707L5.71021 16.1855L5.83032 16.2881C5.94197 16.3996 6.02647 16.5369 6.07544 16.6885L6.84888 19.0879L9.37134 19.084C9.5838 19.0836 9.79149 19.1512 9.96313 19.2764L11.9993 20.7617L14.0374 19.2764L14.1721 19.1934C14.3127 19.1216 14.4689 19.0837 14.6282 19.084L17.1497 19.0879L17.925 16.6885L17.9856 16.542C18.0572 16.4016 18.1614 16.2789 18.2903 16.1855L20.3323 14.707L19.5491 12.3105C19.4832 12.1089 19.4833 11.8911 19.5491 11.6895L20.3323 9.29199L18.2903 7.81445C18.1183 7.69002 17.9904 7.51346 17.925 7.31152L17.1497 4.91113L14.6282 4.91602C14.4158 4.91637 14.2089 4.84873 14.0374 4.72363L11.9993 3.2373L9.96313 4.72363ZM15.2932 8.79297C15.6837 8.40244 16.3168 8.40244 16.7073 8.79297C17.0975 9.18352 17.0977 9.81661 16.7073 10.207L11.7073 15.207C11.3168 15.5974 10.6837 15.5972 10.2932 15.207L7.79321 12.707C7.4027 12.3165 7.40273 11.6835 7.79321 11.293C8.18374 10.9024 8.81675 10.9024 9.20728 11.293L11.0002 13.0859L15.2932 8.79297Z" fill="#393A3B"/>
</g>
</svg>
