<svg width="22" height="22" viewBox="0 0 22 22" fill="none" xmlns="http://www.w3.org/2000/svg">
<g id="iconName=TagsIcon" clip-path="url(#clip0_338_3382)">
<path id="Vector" fill-rule="evenodd" clip-rule="evenodd" d="M8.83599 0.704369C9.28727 0.253304 9.8991 -4.61323e-05 10.537 6.30075e-09H17.8746V4.12716H22V11.4666C22 12.1063 21.7456 12.7185 21.2946 13.1711L13.1621 21.2961C12.7109 21.7469 12.0994 22 11.4618 22C10.8242 22 10.2126 21.7469 9.76145 21.2961L6.6083 18.1416L4.83028 16.3628L0.704922 12.2357C0.481436 12.0121 0.304155 11.7467 0.183204 11.4546C0.062253 11.1625 0 10.8494 0 10.5332C0 10.217 0.062253 9.90394 0.183204 9.61183C0.304155 9.31972 0.481436 9.05431 0.704922 8.83075L8.83599 0.704369ZM15.812 2.06358V4.12716H14.6624C14.0245 4.12711 13.4126 4.38046 12.9613 4.83153L4.83028 12.9579C4.74777 13.0404 4.67214 13.1276 4.60338 13.2193L2.16255 10.776C2.09831 10.7115 2.06224 10.6242 2.06224 10.5332C2.06224 10.4422 2.09831 10.3549 2.16255 10.2904L10.2936 2.16401C10.3256 2.13209 10.3636 2.10679 10.4053 2.08956C10.4471 2.07233 10.4918 2.0635 10.537 2.06358H15.812ZM8.06455 16.682L6.2879 14.9032C6.22366 14.8387 6.18759 14.7514 6.18759 14.6604C6.18759 14.5693 6.22366 14.482 6.2879 14.4175L14.419 6.29117C14.451 6.25925 14.4889 6.23395 14.5307 6.21672C14.5724 6.19949 14.6172 6.19066 14.6624 6.19074H19.9373V11.4666C19.9374 11.5118 19.9286 11.5566 19.9114 11.5984C19.8941 11.6402 19.8688 11.6781 19.8369 11.7101L11.7045 19.8379C11.64 19.9021 11.5528 19.9382 11.4618 19.9382C11.3708 19.9382 11.2835 19.9021 11.2191 19.8379L8.06455 16.682ZM16.4995 11.0058C16.8642 11.0058 17.214 10.8608 17.4719 10.6028C17.7298 10.3448 17.8746 9.9949 17.8746 9.63004C17.8746 9.26518 17.7298 8.91526 17.4719 8.65726C17.214 8.39926 16.8642 8.25432 16.4995 8.25432C16.1348 8.25432 15.7851 8.39926 15.5272 8.65726C15.2693 8.91526 15.1244 9.26518 15.1244 9.63004C15.1244 9.9949 15.2693 10.3448 15.5272 10.6028C15.7851 10.8608 16.1348 11.0058 16.4995 11.0058Z" fill="#393A3B"/>
</g>
<defs>
<clipPath id="clip0_338_3382">
<rect width="22" height="22" fill="white"/>
</clipPath>
</defs>
</svg>
