<svg width="20" height="18" viewBox="0 0 20 18" fill="none" xmlns="http://www.w3.org/2000/svg">
<g id="iconName=TimeBackIcon" clip-path="url(#clip0_338_3379)">
<path id="Vector" d="M11.2648 0C6.51456 0 2.65028 3.90951 2.53487 8.7761V9.00109H0L3.84077 13.275L7.57467 9.00109H4.71921V8.7761C4.83356 5.15085 7.72001 2.2511 11.2648 2.2511C14.8832 2.2511 17.8167 5.27378 17.8167 9.00109C17.8167 12.7284 14.8832 15.7511 11.2648 15.7511C9.86961 15.7519 8.51102 15.2929 7.38873 14.4417L5.88619 16.0924C7.41973 17.3303 9.31424 18.0022 11.2648 18C16.0898 18 20 13.9719 20 9.00109C20 4.03024 16.0898 0 11.2648 0ZM10.1961 3.51329V9.00109C10.1962 9.29216 10.3088 9.57129 10.5092 9.77707L13.9289 13.2893C14.2314 13.0884 14.5167 12.8623 14.77 12.6L12.3334 10.0987V3.51329H10.1961Z" fill="#393A3B"/>
</g>
<defs>
<clipPath id="clip0_338_3379">
<rect width="20" height="18" fill="white"/>
</clipPath>
</defs>
</svg>
