<svg width="24" height="24" viewBox="0 0 24 24" fill="none" xmlns="http://www.w3.org/2000/svg">
<g id="iconName=TrashIcon">
<path id="Union" d="M15.0166 3.25C15.5672 3.27563 16.0951 3.48909 16.5098 3.85938C16.9835 4.28251 17.2708 4.87581 17.3096 5.50977V7C17.3105 7.06798 17.2985 7.13473 17.2812 7.2002H18.0703C18.1098 7.19429 18.1501 7.19043 18.1904 7.19043C18.2306 7.19045 18.2703 7.19433 18.3096 7.2002H20C20.1989 7.2002 20.3896 7.27927 20.5303 7.41992C20.6709 7.56057 20.75 7.75131 20.75 7.9502C20.75 8.14907 20.6709 8.33984 20.5303 8.48047C20.3896 8.62109 20.1989 8.7002 20 8.7002H19V18.4902C18.9822 18.8073 18.9013 19.1176 18.7627 19.4033C18.624 19.6891 18.4305 19.945 18.1924 20.1553C17.9543 20.3654 17.6766 20.5258 17.376 20.6279C17.0753 20.7301 16.7572 20.7716 16.4404 20.75H7.55957C7.2428 20.7716 6.92466 20.7301 6.62402 20.6279C6.32338 20.5258 6.04566 20.3654 5.80762 20.1553C5.56949 19.945 5.37598 19.6891 5.2373 19.4033C5.09866 19.1176 5.01779 18.8073 5 18.4902V8.7002H4C3.80111 8.7002 3.61037 8.62109 3.46973 8.48047C3.3291 8.33984 3.25003 8.14907 3.25 7.9502C3.25 7.75131 3.32911 7.56057 3.46973 7.41992C3.61038 7.27927 3.80109 7.2002 4 7.2002H6.75098C6.73292 7.13531 6.71973 7.06854 6.71973 7V5.50977C6.75854 4.88122 7.04261 4.29243 7.50977 3.87012C7.97689 3.44806 8.59064 3.22537 9.21973 3.25H15.0166ZM6.5 18.4902C6.50004 18.9002 6.97002 19.25 7.5 19.25H16.3799C16.9399 19.25 17.3798 18.9002 17.3799 18.4902V8.7002H6.5V18.4902ZM10.2197 10.9697C10.4186 10.9697 10.6094 11.0488 10.75 11.1895C10.8907 11.3301 10.9697 11.5208 10.9697 11.7197V16.2393C10.971 16.3384 10.953 16.4373 10.916 16.5293C10.8789 16.6214 10.8237 16.7057 10.7539 16.7764C10.6842 16.847 10.6012 16.9031 10.5098 16.9414C10.4181 16.9797 10.3191 17 10.2197 17C10.0217 16.9973 9.83241 16.9173 9.69238 16.7773C9.55238 16.6373 9.47241 16.448 9.46973 16.25V11.7197C9.46973 11.5209 9.54891 11.3301 9.68945 11.1895C9.83005 11.0489 10.0209 10.9698 10.2197 10.9697ZM13.7803 10.9697C13.9791 10.9698 14.17 11.0489 14.3105 11.1895C14.4511 11.3301 14.5303 11.5209 14.5303 11.7197V16.2393C14.5303 16.4391 14.4509 16.6312 14.3105 16.7734C14.1703 16.9155 13.9799 16.9973 13.7803 17C13.5815 17 13.3906 16.9207 13.25 16.7803C13.1094 16.6397 13.0304 16.4488 13.0303 16.25V11.7197C13.0303 11.5208 13.1093 11.3301 13.25 11.1895C13.3906 11.0489 13.5814 10.9697 13.7803 10.9697ZM9.21973 4.75C8.67004 4.75012 8.22003 5.10001 8.21973 5.50977V7C8.21973 7.0685 8.20749 7.13534 8.18945 7.2002H15.8379C15.8205 7.13486 15.8086 7.06791 15.8096 7V5.50977C15.8092 5.09994 15.3294 4.75 14.8096 4.75H9.21973Z" fill="#393A3B"/>
</g>
</svg>
