<svg width="20" height="22" viewBox="0 0 20 22" fill="none" xmlns="http://www.w3.org/2000/svg">
<g id="iconName=UserIcon" clip-path="url(#clip0_393_3923)">
<path id="Vector" d="M9.90039 0.599609C13.2139 0.599873 15.9004 3.28606 15.9004 6.59961C15.9004 8.96397 14.5312 11.0067 12.5439 11.9844C14.0158 12.4209 15.3714 13.2181 16.4766 14.3232C18.2205 16.0673 19.2001 18.4331 19.2002 20.8994C19.2002 21.1754 18.9761 21.3992 18.7002 21.3994C18.4242 21.3992 18.2002 21.1754 18.2002 20.8994C18.2001 18.6983 17.3259 16.5868 15.7695 15.0303C14.2131 13.474 12.1014 12.5997 9.90039 12.5996C7.69928 12.5997 5.58773 13.4739 4.03125 15.0303C2.47474 16.5868 1.60064 18.6982 1.60059 20.8994C1.60059 21.1754 1.3765 21.3992 1.10059 21.3994C0.824444 21.3994 0.599609 21.1756 0.599609 20.8994C0.599661 18.433 1.58018 16.0673 3.32422 14.3232C4.42912 13.2184 5.78346 12.4209 7.25488 11.9844C5.26802 11.0066 3.90039 8.96366 3.90039 6.59961C3.90039 3.2859 6.58668 0.599609 9.90039 0.599609ZM9.90039 1.59961C7.13897 1.59961 4.90039 3.83819 4.90039 6.59961C4.90039 9.36103 7.13897 11.5996 9.90039 11.5996C12.6616 11.5993 14.9004 9.36087 14.9004 6.59961C14.9004 3.83835 12.6616 1.59987 9.90039 1.59961Z" fill="#393A3B"/>
</g>
<defs>
<clipPath id="clip0_393_3923">
<rect width="19.8" height="22" fill="white"/>
</clipPath>
</defs>
</svg>
