<svg width="24" height="24" viewBox="0 0 24 24" fill="none" xmlns="http://www.w3.org/2000/svg">
<g id="iconName=VideoFileIcon">
<path id="Union" d="M14 2.5C14.1326 2.5 14.2597 2.55272 14.3535 2.64648L19.3535 7.64648C19.4473 7.74025 19.5 7.86739 19.5 8V19C19.5 19.663 19.2364 20.2987 18.7676 20.7676C18.2987 21.2364 17.663 21.5 17 21.5H7C6.33696 21.5 5.70126 21.2364 5.23242 20.7676C4.76358 20.2987 4.5 19.663 4.5 19V3C4.5 2.72386 4.72386 2.5 5 2.5H14ZM5.5 19C5.5 19.3978 5.65815 19.7792 5.93945 20.0605C6.22076 20.3419 6.60218 20.5 7 20.5H17C17.3978 20.5 17.7792 20.3419 18.0605 20.0605C18.3419 19.7792 18.5 19.3978 18.5 19V9.5H13C12.7239 9.5 12.5 9.27614 12.5 9V3.5H5.5V19ZM10.75 12.335C10.9047 12.2457 11.0953 12.2457 11.25 12.335L14.25 14.0674C14.4046 14.1567 14.5 14.3214 14.5 14.5C14.5 14.6786 14.4046 14.8433 14.25 14.9326L11.25 16.665C11.0953 16.7543 10.9047 16.7543 10.75 16.665C10.5954 16.5758 10.5001 16.4109 10.5 16.2324V12.7676C10.5001 12.5891 10.5954 12.4242 10.75 12.335ZM11.5 15.3652L13 14.5L11.5 13.6338V15.3652ZM13.5 8.5H18.5V8.20703L13.793 3.5H13.5V8.5Z" fill="#393A3B"/>
</g>
</svg>
