<svg width="85" height="83" viewBox="0 0 85 83" fill="none" xmlns="http://www.w3.org/2000/svg">
<path fill-rule="evenodd" clip-rule="evenodd" d="M85 0H0V82.5714H85V0ZM48.0369 44.3938C47.6595 42.739 47.7503 41.0135 48.2994 39.4065C49.1431 37.2317 50.7465 35.4273 52.8195 34.3198C56.2933 32.412 60.9253 32.8547 63.5577 35.9798L48.118 44.7945L48.0369 44.3938ZM67.3368 44.6609C66.9756 46.4923 66.0758 48.1775 64.7498 49.5055C63.4238 50.8332 61.7309 51.7444 59.883 52.1247C59.1054 52.2993 58.3105 52.3877 57.5132 52.3879C55.0339 52.4154 52.6429 51.4794 50.8548 49.7818L71.926 37.7427C70.9417 35.2434 69.6101 32.828 67.549 30.9276C65.7101 29.2415 63.4858 28.0206 61.0659 27.3695C58.6461 26.7182 56.1027 26.656 53.6532 27.1881C51.0818 27.8166 48.704 29.0542 46.7245 30.794C45.0213 32.2626 43.6509 34.0702 42.7025 36.098C42.5274 36.472 42.3693 36.8536 42.2278 37.2429C42.0058 37.8476 41.8273 38.471 41.6913 39.1073V28.0694H35.1293V44.1687C35.1293 48.9156 31.7327 52.4911 27.1007 52.4911C22.4687 52.4911 18.9948 48.9156 18.9948 44.1687V28.0694H12.4328V44.1687C12.4328 52.6322 18.6087 58.7758 27.1007 58.7758H27.0812C35.1373 58.7758 41.0922 53.2115 41.6485 45.3786C42.1277 47.949 43.1977 50.4657 44.8101 52.6247C47.6818 56.4825 52.4333 58.7833 57.5132 58.7833C58.7896 58.7828 60.0622 58.642 61.3073 58.3637C64.3746 57.6958 67.1784 56.1588 69.3763 53.9408C71.5739 51.7227 73.0704 48.9197 73.6824 45.8743L67.3368 44.6609Z" fill="white"/>
</svg>
