<svg width="24" height="24" viewBox="0 0 24 24" fill="none" xmlns="http://www.w3.org/2000/svg">
<g clip-path="url(#clip0_1733_4191)">
<path d="M6.09375 2.8125L5.25 3.65625L5.95312 4.35938L6.79688 3.51562C7.5 2.8125 8.31641 2.26562 9.24609 1.875C10.1758 1.48438 11.1406 1.28906 12.1406 1.28906H12.4688C13.2188 1.28906 13.9219 1.4375 14.5781 1.73438C15.2344 2.03125 15.8086 2.42578 16.3008 2.91797C16.793 3.41016 17.1797 3.99219 17.4609 4.66406C17.7578 5.33594 17.9062 6.04688 17.9062 6.79688C17.9062 7.79688 17.6406 8.72656 17.1094 9.58594C16.5781 10.4453 15.8672 11.1016 14.9766 11.5547C13.9141 12.0859 13.0703 12.8594 12.4453 13.875C11.8203 14.8906 11.5078 15.9922 11.5078 17.1797V19.1953H12.4922V17.1797C12.4922 16.1797 12.7578 15.2539 13.2891 14.4023C13.8203 13.5508 14.5312 12.8984 15.4219 12.4453C16.4844 11.9141 17.3281 11.1367 17.9531 10.1133C18.5781 9.08984 18.8906 7.98438 18.8906 6.79688C18.8906 5.90625 18.7266 5.07031 18.3984 4.28906C18.0547 3.49219 17.5938 2.80078 17.0156 2.21484C16.4375 1.62891 15.7578 1.16406 14.9766 0.820312C14.1953 0.476562 13.3594 0.304688 12.4688 0.304688H12.1406C11 0.304688 9.90625 0.519531 8.85938 0.949219C7.8125 1.37891 6.89062 2 6.09375 2.8125ZM12.7969 22.7109H11.2031V23.6953H12.7969V22.7109Z" fill="#1E1E1E"/>
</g>
<defs>
<clipPath id="clip0_1733_4191">
<rect width="24" height="24" fill="white"/>
</clipPath>
</defs>
</svg>
