<svg width="24" height="24" viewBox="0 0 24 24" fill="none" xmlns="http://www.w3.org/2000/svg">
<g clip-path="url(#clip0_1733_4233)">
<path d="M5.62492 -0.3282C5.71867 -0.437575 5.83586 -0.496169 5.97649 -0.503981C6.11711 -0.511794 6.2343 -0.468825 6.32805 -0.375075L19.3359 11.6249C19.3827 11.6718 19.4218 11.7304 19.453 11.8007C19.4843 11.871 19.4999 11.9374 19.4999 11.9999C19.4999 12.0624 19.4843 12.1288 19.453 12.1991C19.4218 12.2695 19.3827 12.328 19.3359 12.3749L6.32805 24.3749C6.2343 24.4687 6.11711 24.5116 5.97649 24.5038C5.83586 24.496 5.71867 24.4374 5.62492 24.328C5.53117 24.2343 5.48821 24.1171 5.49602 23.9765C5.50383 23.8359 5.56242 23.7187 5.6718 23.6249L18.2577 11.9999L5.6718 0.374925C5.56242 0.281175 5.50383 0.163987 5.49602 0.0233624C5.48821 -0.117263 5.53117 -0.23445 5.62492 -0.3282Z" fill="#1E1E1E"/>
</g>
<defs>
<clipPath id="clip0_1733_4233">
<rect width="24" height="24" fill="white"/>
</clipPath>
</defs>
</svg>
