<svg width="24" height="24" viewBox="0 0 24 24" fill="none" xmlns="http://www.w3.org/2000/svg">
<g clip-path="url(#clip0_1733_4179)">
<path d="M23.25 12.7734H22.0078V20.1328H23.25V20.8828H0.75V20.1328H1.99219V12.7734H0.75V12.0234H6.79688V3.86719H5.57812V3.11719H18.4219V3.86719H17.2031V12.0234H23.25V12.7734ZM5.13281 20.1328H6.79688V12.7734H2.74219V20.1328H4.38281V15.6328H5.13281V20.1328ZM13.2422 20.1328V16.1953H10.7578V20.1328H13.2422ZM13.9922 20.1328H16.4531V3.86719H7.54688V20.1328H10.0078V16.1953H9.58594V15.4453H14.4141V16.1953H13.9922V20.1328ZM21.2578 20.1328V12.7734H17.2031V20.1328H18.8672V15.6328H19.6172V20.1328H21.2578ZM10.0078 12.9609H10.7578V10.5H10.0078V12.9609ZM13.2422 12.9609H13.9922V10.5H13.2422V12.9609ZM10.0078 8.46094H10.7578V6H10.0078V8.46094ZM13.2422 8.46094H13.9922V6H13.2422V8.46094Z" fill="#1E1E1E"/>
</g>
<defs>
<clipPath id="clip0_1733_4179">
<rect width="24" height="24" fill="white"/>
</clipPath>
</defs>
</svg>
