<svg width="24" height="24" viewBox="0 0 24 24" fill="none" xmlns="http://www.w3.org/2000/svg">
<path d="M6.54351 5.00041C6.46339 4.91867 6.36796 4.85351 6.26265 4.80867C6.15735 4.76382 6.04424 4.74017 5.92979 4.73905C5.81534 4.73794 5.7018 4.75939 5.59564 4.80217C5.48948 4.84496 5.3928 4.90824 5.31111 4.98841C4.38731 5.9073 3.65449 6.99992 3.15485 8.2033C2.65521 9.40668 2.39863 10.697 2.39991 12C2.39855 13.353 2.67522 14.6919 3.21275 15.9335C3.75028 17.1752 4.5372 18.2931 5.52471 19.218C5.69093 19.3717 5.9105 19.4545 6.13679 19.4489C6.36309 19.4433 6.57829 19.3497 6.73671 19.188C7.11591 18.8088 7.06911 18.2052 6.70431 17.856C5.91171 17.1007 5.28098 16.192 4.85045 15.1853C4.41992 14.1786 4.19859 13.0949 4.19991 12C4.19991 9.78481 5.08911 7.77601 6.53151 6.31441C6.87951 5.96041 6.91551 5.37241 6.54351 5.00041ZM8.65671 7.11601C8.49867 6.95339 8.28261 6.86006 8.05588 6.85646C7.82914 6.85286 7.61023 6.93929 7.44711 7.09681C6.79768 7.73743 6.28223 8.50088 5.93076 9.34267C5.57929 10.1845 5.39883 11.0878 5.39991 12C5.39991 14.0304 6.27591 15.8556 7.67151 17.118C7.83635 17.2634 8.05082 17.3397 8.27043 17.3312C8.49005 17.3227 8.69797 17.2301 8.85111 17.0724C9.24471 16.6788 9.17151 16.0596 8.80191 15.7116C8.29545 15.2352 7.892 14.6601 7.61647 14.0217C7.34093 13.3834 7.19916 12.6953 7.19991 12C7.19991 10.62 7.74831 9.36721 8.63991 8.44801C8.98311 8.09521 9.03951 7.49761 8.65671 7.11601ZM15.3431 7.11481C15.5011 6.95219 15.7172 6.85886 15.9439 6.85526C16.1707 6.85166 16.3896 6.93809 16.5527 7.09561C17.2023 7.73638 17.7178 8.50002 18.0693 9.34203C18.4208 10.184 18.6011 11.0876 18.5999 12C18.5999 14.0304 17.7239 15.8556 16.3283 17.118C16.1635 17.2634 15.949 17.3397 15.7294 17.3312C15.5098 17.3227 15.3018 17.2301 15.1487 17.0724C14.7551 16.6788 14.8283 16.0596 15.1979 15.7116C15.7044 15.2352 16.1078 14.6601 16.3833 14.0217C16.6589 13.3834 16.8007 12.6953 16.7999 12C16.7999 10.62 16.2515 9.36721 15.3599 8.44801C15.0167 8.09521 14.9603 7.49641 15.3431 7.11481ZM17.4563 5.00041C17.5364 4.91867 17.6319 4.85351 17.7372 4.80867C17.8425 4.76382 17.9556 4.74017 18.07 4.73905C18.1845 4.73794 18.298 4.75939 18.4042 4.80217C18.5103 4.84496 18.607 4.90824 18.6887 4.98841C19.6125 5.9073 20.3453 6.99992 20.845 8.2033C21.3446 9.40668 21.6012 10.697 21.5999 12C21.6013 13.353 21.3246 14.6919 20.7871 15.9335C20.2495 17.1752 19.4626 18.2931 18.4751 19.218C18.3089 19.3717 18.0893 19.4545 17.863 19.4489C17.6367 19.4433 17.4215 19.3497 17.2631 19.188C16.8839 18.8088 16.9307 18.2052 17.2967 17.856C18.0891 17.1005 18.7196 16.1919 19.1499 15.1852C19.5802 14.1785 19.8014 13.0948 19.7999 12C19.7999 9.78481 18.9107 7.77601 17.4683 6.31441C17.1203 5.96041 17.0843 5.37241 17.4563 5.00041ZM11.9999 10.2C11.5225 10.2 11.0647 10.3897 10.7271 10.7272C10.3896 11.0648 10.1999 11.5226 10.1999 12C10.1999 12.4774 10.3896 12.9352 10.7271 13.2728C11.0647 13.6104 11.5225 13.8 11.9999 13.8C12.4773 13.8 12.9351 13.6104 13.2727 13.2728C13.6103 12.9352 13.7999 12.4774 13.7999 12C13.7999 11.5226 13.6103 11.0648 13.2727 10.7272C12.9351 10.3897 12.4773 10.2 11.9999 10.2Z" fill="#393A3B"/>
</svg>
