<svg width="24" height="24" viewBox="0 0 24 24" fill="none" xmlns="http://www.w3.org/2000/svg">
<path d="M20.3438 3.65625C20.4531 3.75 20.5078 3.86719 20.5078 4.00781C20.5078 4.14844 20.4531 4.26562 20.3438 4.35938L16.2188 8.50781H19.0078C19.1484 8.50781 19.2656 8.55469 19.3594 8.64844C19.4531 8.74219 19.5 8.85938 19.5 9C19.5 9.14062 19.4531 9.25781 19.3594 9.35156C19.2656 9.44531 19.1484 9.49219 19.0078 9.49219H15C14.9688 9.49219 14.9375 9.49219 14.9062 9.49219C14.875 9.49219 14.8438 9.48438 14.8125 9.46875C14.8438 9.46875 14.875 9.47266 14.9062 9.48047C14.9375 9.48828 14.9688 9.49219 15 9.49219L20.3438 3.65625ZM14.543 8.8125C14.5664 8.75 14.6016 8.69531 14.6484 8.64844L15.4922 7.78125V4.99219C15.4922 4.85156 15.4453 4.73438 15.3516 4.64062C15.2578 4.54688 15.1406 4.5 15 4.5C14.8594 4.5 14.7422 4.54688 14.6484 4.64062C14.5547 4.73438 14.5078 4.85156 14.5078 4.99219V9C14.5078 8.9375 14.5195 8.875 14.543 8.8125ZM4.99219 4.5C4.80469 4.5 4.61719 4.53906 4.42969 4.61719C4.24219 4.69531 4.07812 4.80469 3.9375 4.94531C3.79688 5.08594 3.6875 5.24609 3.60938 5.42578C3.53125 5.60547 3.49219 5.78906 3.49219 5.97656C3.55469 6.92969 3.70312 7.85938 3.9375 8.76562C4.15625 9.67188 4.45703 10.5508 4.83984 11.4023C5.22266 12.2539 5.67969 13.0625 6.21094 13.8281C6.74219 14.5938 7.34375 15.3125 8.01562 15.9844C8.6875 16.6562 9.40625 17.2578 10.1719 17.7891C10.9375 18.3203 11.7461 18.7773 12.5977 19.1602C13.4492 19.543 14.3281 19.8438 15.2344 20.0625C16.1406 20.2969 17.0703 20.4453 18.0234 20.5078C18.2109 20.5078 18.3945 20.4688 18.5742 20.3906C18.7539 20.3125 18.9141 20.2031 19.0547 20.0625C19.1953 19.9219 19.3047 19.7578 19.3828 19.5703C19.4609 19.3828 19.5 19.1953 19.5 19.0078V15.3281L15.2109 13.6172L13.9219 15.75C13.8594 15.8594 13.7656 15.9336 13.6406 15.9727C13.5156 16.0117 13.3984 16 13.2891 15.9375C12.7109 15.6719 12.1719 15.3516 11.6719 14.9766C11.1562 14.6172 10.6758 14.2148 10.2305 13.7695C9.78516 13.3242 9.38281 12.8438 9.02344 12.3281C8.64844 11.8281 8.32812 11.2891 8.0625 10.7109C8 10.6016 7.98828 10.4844 8.02734 10.3594C8.06641 10.2344 8.14062 10.1406 8.25 10.0781L10.3828 8.78906L8.67188 4.5H4.99219ZM4.99219 3.49219H9C9.10938 3.49219 9.20312 3.52344 9.28125 3.58594C9.35938 3.64844 9.42188 3.72656 9.46875 3.82031L11.4609 8.8125C11.5078 8.92188 11.5117 9.03516 11.4727 9.15234C11.4336 9.26953 11.3594 9.35938 11.25 9.42188L9.16406 10.6875C9.64844 11.5625 10.2422 12.3516 10.9453 13.0547C11.6484 13.7578 12.4375 14.3516 13.3125 14.8359L14.5781 12.75C14.6406 12.6406 14.7305 12.5664 14.8477 12.5273C14.9648 12.4883 15.0781 12.4922 15.1875 12.5391L20.1797 14.5312C20.2734 14.5781 20.3516 14.6406 20.4141 14.7188C20.4766 14.7969 20.5078 14.8906 20.5078 15V19.0078C20.5078 19.3359 20.4414 19.6523 20.3086 19.957C20.1758 20.2617 19.9922 20.5312 19.7578 20.7656C19.5234 21 19.2539 21.1797 18.9492 21.3047C18.6445 21.4297 18.3281 21.4922 18 21.4922C18 21.4922 17.9961 21.4922 17.9883 21.4922C17.9805 21.4922 17.9766 21.4922 17.9766 21.4922C16.9609 21.4297 15.9688 21.2812 15 21.0469C14.0312 20.8125 13.0977 20.4883 12.1992 20.0742C11.3008 19.6602 10.4375 19.1719 9.60938 18.6094C8.78125 18.0469 8.01562 17.4062 7.3125 16.6875C6.59375 15.9844 5.95312 15.2188 5.39062 14.3906C4.82812 13.5625 4.33984 12.6992 3.92578 11.8008C3.51172 10.9023 3.1875 9.96875 2.95312 9C2.71875 8.03125 2.57031 7.03906 2.50781 6.02344C2.50781 6.02344 2.50781 6.01953 2.50781 6.01172C2.50781 6.00391 2.50781 6 2.50781 6C2.50781 5.67188 2.57031 5.35547 2.69531 5.05078C2.82031 4.74609 3 4.47656 3.23438 4.24219C3.46875 4.00781 3.73828 3.82422 4.04297 3.69141C4.34766 3.55859 4.66406 3.49219 4.99219 3.49219Z" fill="#1E1E1E"/>
</svg>
