<svg width="24" height="24" viewBox="0 0 24 24" fill="none" xmlns="http://www.w3.org/2000/svg">
<g clip-path="url(#clip0_1733_4220)">
<path d="M0 2.39062C0 1.73438 0.234375 1.17188 0.703125 0.703125C1.17188 0.234375 1.73438 0 2.39062 0H21.6094C22.2656 0 22.8281 0.234375 23.2969 0.703125C23.7656 1.17188 24 1.73438 24 2.39062V21.6094C24 22.2656 23.7656 22.8281 23.2969 23.2969C22.8281 23.7656 22.2656 24 21.6094 24H2.39062C1.73438 24 1.17188 23.7656 0.703125 23.2969C0.234375 22.8281 0 22.2656 0 21.6094V2.39062ZM7.99219 6.39844H6.39844V7.99219H7.99219V6.39844ZM7.99219 17.6016V9.60938H6.39844V17.6016H7.99219ZM13.5938 11.2031C14.2656 11.2031 14.8359 11.4375 15.3047 11.9062C15.7734 12.375 16.0078 12.9375 16.0078 13.5938V17.6016H17.6016V13.5938C17.6016 12.5 17.2109 11.5625 16.4297 10.7812C15.6484 10 14.7031 9.60938 13.5938 9.60938C13.1406 9.60938 12.7109 9.67969 12.3047 9.82031C11.8984 9.96094 11.5312 10.1562 11.2031 10.4062V9.60938H9.60938V17.6016H11.2031V13.5938C11.2031 12.9375 11.4375 12.375 11.9062 11.9062C12.375 11.4375 12.9375 11.2031 13.5938 11.2031Z" fill="#1E1E1E"/>
</g>
<defs>
<clipPath id="clip0_1733_4220">
<rect width="24" height="24" fill="white"/>
</clipPath>
</defs>
</svg>
