<svg width="24" height="24" viewBox="0 0 24 24" fill="none" xmlns="http://www.w3.org/2000/svg">
<path d="M23.3576 6.39877C23.3451 4.20502 17.5001 3.02002 12.0001 3.02002C6.50008 3.02002 0.656328 4.20502 0.642578 6.39877V17.5938C0.642578 19.7925 6.49383 20.9788 12.0001 20.9788C17.5063 20.9788 23.3576 19.7925 23.3576 17.5938V6.39877ZM4.33383 4.63877C6.37633 4.07877 9.10008 3.77002 12.0001 3.77002C14.9001 3.77002 17.6238 4.07877 19.6663 4.63877C21.8351 5.23252 22.6076 5.94127 22.6076 6.40627C22.6076 6.87127 21.8351 7.57877 19.6663 8.17377C17.6238 8.73377 14.9001 9.04252 12.0001 9.04252C9.10008 9.04252 6.37633 8.73377 4.33383 8.17377C2.16508 7.58002 1.39258 6.87127 1.39258 6.40627C1.39258 5.94127 2.16508 5.23377 4.33383 4.63877ZM19.6663 19.3613C17.6238 19.9213 14.9001 20.23 12.0001 20.23C9.10008 20.23 6.37633 19.9213 4.33383 19.3613C2.16508 18.7675 1.39258 18.0588 1.39258 17.5938V12.845C3.14258 14.2238 7.67758 14.955 12.0001 14.955C16.3226 14.955 20.8576 14.2238 22.6076 12.845V17.5938C22.6076 18.0588 21.8351 18.7663 19.6663 19.3613ZM19.6663 13.3363C17.6238 13.8963 14.9001 14.205 12.0001 14.205C9.10008 14.205 6.37633 13.8963 4.33383 13.3363C2.16508 12.7425 1.39258 12.0338 1.39258 11.5688V7.68127C3.14258 9.06002 7.67758 9.79127 12.0001 9.79127C16.3226 9.79127 20.8576 9.06002 22.6076 7.68127V11.5688C22.6076 12.0338 21.8351 12.7413 19.6663 13.3363Z" fill="#1E1E1E"/>
</svg>
