<svg width="24" height="24" viewBox="0 0 24 24" fill="none" xmlns="http://www.w3.org/2000/svg">
<g clip-path="url(#clip0_1733_4232)">
<path d="M20.3901 0.540039H3.61007C2.72632 0.540039 2.00757 1.23754 2.00757 2.09629V8.00129C2.00757 8.86004 2.72632 9.55754 3.61007 9.55754H7.79257V14.0463L6.73132 13.135C6.11882 12.6088 5.19257 12.68 4.66632 13.2925L4.10257 13.9488C3.57632 14.5613 3.64757 15.4875 4.26007 16.0138L7.79132 19.045V23.4613H18.0263V13.2325C18.0263 12.5063 17.4838 11.8825 16.7638 11.7825L11.5826 11.06V9.55754H20.3863C21.2701 9.55754 21.9888 8.86004 21.9888 8.00129V2.09629C21.9888 1.23754 21.2701 0.540039 20.3863 0.540039H20.3901ZM17.2776 22.71H8.54257V19.515H17.2776V22.71ZM16.6626 12.525C17.0138 12.5738 17.2776 12.8775 17.2776 13.2325V18.765H8.54257V18.6988L4.75007 15.4425C4.45132 15.1863 4.41632 14.7338 4.67382 14.435L5.23757 13.7788C5.49382 13.48 5.94632 13.445 6.24507 13.7025L8.54507 15.6763V4.95379C8.54507 4.56004 8.86507 4.24004 9.25882 4.24004H10.1238C10.5176 4.24004 10.8376 4.56004 10.8376 4.95379V11.7125L16.6626 12.525ZM21.2413 8.00129C21.2413 8.44629 20.8588 8.80754 20.3888 8.80754H11.5851V4.95504C11.5851 4.14754 10.9288 3.49129 10.1213 3.49129H9.25632C8.44882 3.49129 7.79257 4.14754 7.79257 4.95504V8.80754H3.61007C3.14007 8.80754 2.75757 8.44629 2.75757 8.00129V2.09629C2.75757 1.65129 3.14007 1.29004 3.61007 1.29004H20.3888C20.8588 1.29004 21.2413 1.65129 21.2413 2.09629V8.00129Z" fill="#1E1E1E"/>
<path d="M15.9289 5.89488L13.8289 3.79488L13.2976 4.32488L15.6676 6.69488L15.6814 6.68238L15.9414 6.94238L19.5051 3.37863L18.9751 2.84863L15.9289 5.89488Z" fill="#1E1E1E"/>
</g>
<defs>
<clipPath id="clip0_1733_4232">
<rect width="24" height="24" fill="white"/>
</clipPath>
</defs>
</svg>
