<svg width="70" height="40" viewBox="0 0 70 40" fill="none" xmlns="http://www.w3.org/2000/svg">
<path d="M61.0886 8.66146C60.8751 8.83854 60.6199 9.04688 60.5261 9.13021L60.3542 9.27083L60.5001 9.46875C60.7501 9.80208 62.0886 11.4062 62.1199 11.4062C62.1355 11.4062 62.3855 11.2031 62.6772 10.9531C62.9636 10.7031 63.2136 10.4948 63.224 10.4896C63.2345 10.4792 62.1511 9.13021 61.5886 8.46354L61.4845 8.33854L61.0886 8.66146ZM62.1407 9.46875C62.4688 9.85938 62.7657 10.2188 62.8022 10.2656C62.8595 10.3385 62.8178 10.3958 62.4897 10.6719C62.2865 10.8438 62.099 10.9896 62.073 10.9896C62.0261 10.9896 60.7553 9.48438 60.7553 9.42708C60.7553 9.38021 61.4584 8.76042 61.5157 8.75521C61.5365 8.75 61.8178 9.07292 62.1407 9.46875Z" fill="white"/>
<path d="M28.7241 5.06231C27.4845 5.24981 26.4949 5.41647 26.4741 5.4321C26.4637 5.44252 26.5106 5.78106 26.5731 6.17689C26.6824 6.83314 26.7033 6.90085 26.797 6.89043C26.9793 6.8696 29.3439 6.50502 29.4064 6.48418C29.4585 6.46856 29.4168 6.13522 29.2449 5.16647C29.2085 4.98418 29.2189 4.98418 28.7241 5.06231ZM28.9897 5.62481C29.0262 5.81231 29.0522 6.04668 29.0574 6.15085L29.0627 6.33835L28.1356 6.47377C26.9793 6.65085 26.9949 6.65085 26.9585 6.46856C26.8699 6.02585 26.8179 5.61439 26.8439 5.58835C26.8856 5.54147 28.6356 5.27064 28.8022 5.28106C28.922 5.28627 28.9377 5.31752 28.9897 5.62481Z" fill="white"/>
<path d="M35.6772 10.9478C35.672 10.9582 35.62 11.1144 35.5575 11.3019L35.4429 11.6405L35.0522 11.6248L34.6616 11.6092L34.8179 11.7551C34.9064 11.8332 35.0418 11.9478 35.1252 12.0103L35.2762 12.1196L35.1616 12.4478C35.1043 12.6301 35.0522 12.8019 35.0522 12.828C35.0522 12.8488 35.1929 12.7707 35.37 12.6509C35.5887 12.4946 35.7033 12.4426 35.7554 12.479C36.1616 12.7707 36.3022 12.8644 36.3022 12.828C36.3022 12.8071 36.2554 12.6405 36.2033 12.4582L36.1043 12.1353L36.4168 11.9113L36.7293 11.6926L36.3387 11.6769L35.9481 11.6613L35.8387 11.3019C35.745 10.9998 35.6877 10.8748 35.6772 10.9478Z" fill="#FF3228"/>
<path d="M46.0575 11.9635L45.8491 12.2135L45.5731 12.099C45.4168 12.0312 45.2814 11.9896 45.271 12.0052C45.2554 12.0208 45.3179 12.1354 45.4116 12.2656C45.5991 12.526 45.5939 12.5625 45.3179 12.849C45.2137 12.9583 45.1616 13.1042 45.2502 13.0573C45.271 13.0417 45.4116 12.9948 45.5627 12.9479L45.8387 12.8698L46.0054 13.1354L46.172 13.4062L46.2189 13.0833L46.2658 12.7656L46.5418 12.7031C46.6981 12.6667 46.8231 12.625 46.8231 12.6094C46.8231 12.5937 46.6981 12.5312 46.5523 12.4687L46.2762 12.3646L46.2866 12.0417C46.2918 11.8646 46.2866 11.7187 46.2814 11.7187C46.271 11.7187 46.172 11.8281 46.0575 11.9635Z" fill="#FF3228"/>
<path d="M22.3646 12.1615C22.349 12.2031 22.3021 12.3385 22.2656 12.4583L22.1979 12.6823L21.8438 12.6719L21.4844 12.6615L21.6354 12.776C21.7188 12.8385 21.8438 12.9375 21.9115 12.9948L22.0313 13.099L21.9271 13.3802C21.8646 13.5313 21.8281 13.6667 21.8385 13.6823C21.8542 13.6927 21.9688 13.6302 22.099 13.5417C22.2292 13.4583 22.349 13.3854 22.3698 13.3854C22.3906 13.3854 22.5052 13.4688 22.625 13.5677C22.75 13.6667 22.8646 13.75 22.8802 13.75C22.8958 13.75 22.875 13.625 22.8333 13.474C22.7969 13.3281 22.7604 13.1771 22.7604 13.151C22.7604 13.1198 22.875 13.026 23.0208 12.9427C23.1615 12.8542 23.2813 12.7708 23.2813 12.7448C23.2813 12.724 23.1302 12.7083 22.9479 12.7083H22.6198L22.5313 12.3958C22.4375 12.0677 22.4115 12.0313 22.3646 12.1615Z" fill="#FF3228"/>
<path d="M9.16683 12.4634C7.94808 13.0102 6.94808 13.4581 6.94287 13.4634C6.93766 13.4634 6.94287 13.5206 6.9585 13.5779C6.97933 13.6404 7.03662 13.6977 7.09912 13.7081C7.17204 13.7186 7.24495 13.8175 7.34912 14.0623C7.47412 14.354 7.48454 14.4113 7.41683 14.4842C7.35954 14.5519 7.35433 14.5779 7.41162 14.6561C7.47933 14.7446 7.51579 14.7394 8.05225 14.505C9.05225 14.0675 11.9533 12.7498 11.995 12.7134C12.0679 12.6456 11.9689 12.4998 11.8491 12.4998C11.7554 12.4998 11.7033 12.4321 11.5783 12.1456C11.4637 11.8852 11.4377 11.7706 11.4741 11.7134C11.5314 11.6248 11.4897 11.4529 11.422 11.4634C11.4012 11.4634 10.3856 11.9165 9.16683 12.4634ZM11.1981 12.3227C11.2866 12.5102 11.3543 12.6821 11.3543 12.7029C11.3543 12.7446 10.5835 13.0727 10.4897 13.0727C10.4168 13.0727 10.12 12.3331 10.1825 12.3071C10.2137 12.2967 10.3856 12.2186 10.5731 12.1352C10.7606 12.0519 10.9429 11.9842 10.9793 11.9842C11.0158 11.979 11.1147 12.1352 11.1981 12.3227ZM9.92725 12.8852C9.99495 13.0571 10.0522 13.2238 10.0522 13.255C10.0522 13.3071 9.7137 13.4842 9.23975 13.6769C9.18245 13.7029 8.90641 13.0988 8.90641 12.9529C8.90641 12.8696 9.56787 12.5571 9.70329 12.5675C9.771 12.5727 9.84391 12.6769 9.92725 12.8852ZM8.6512 13.505L8.80225 13.8592L8.36995 14.0623C8.13558 14.1717 7.92725 14.2498 7.90641 14.2394C7.85433 14.2081 7.60433 13.6456 7.60433 13.5571C7.60433 13.479 8.31266 13.1196 8.42725 13.1404C8.46891 13.1456 8.56787 13.3123 8.6512 13.505Z" fill="white"/>
<path d="M51.1979 12.7708C51.0938 12.8802 51.0938 12.9322 51.0938 16.5729C51.0938 20.2552 51.0938 20.2604 50.9896 20.2604C50.9271 20.2604 50.8229 20.3177 50.7552 20.3906C50.5729 20.5677 50.5782 20.8749 50.7604 21.0468C50.8854 21.1666 50.9375 21.1718 51.6667 21.1979L52.4427 21.2239L53.3959 22.1145C53.9219 22.6041 54.599 23.2343 54.9063 23.5208C55.3594 23.9427 55.4479 24.0468 55.4011 24.1093C55.3646 24.151 54.849 24.6354 54.2448 25.1874C52.4532 26.8229 52.1875 27.0937 52.1875 27.2395C52.1875 27.4583 52.3282 27.6041 52.5261 27.6041C52.6719 27.6041 52.7761 27.5364 53.1875 27.1458C53.9375 26.4427 55.8386 24.7239 55.9479 24.6406C56.0417 24.5781 56.0729 24.5885 56.2396 24.7499C56.4532 24.9531 58.6042 26.9062 59.0729 27.3281C59.474 27.6927 59.7604 27.6979 59.8698 27.3437C59.9375 27.1354 59.8698 27.0729 57.1927 24.6354C56.8959 24.3645 56.6407 24.1145 56.6302 24.0833C56.6198 24.0468 57.2604 23.427 58.0573 22.6979C58.8542 21.9687 59.5365 21.3333 59.5782 21.2864C59.6354 21.2135 59.7604 21.1979 60.3646 21.1979C60.7552 21.1979 61.1511 21.1718 61.2344 21.1458C61.4011 21.0833 61.5104 20.9114 61.5104 20.7083C61.5104 20.5364 61.3229 20.3229 61.1563 20.302L61.0157 20.2864L60.9896 16.5468C60.9636 12.9166 60.9584 12.802 60.8646 12.7291C60.7188 12.6249 60.4479 12.6354 60.3438 12.7499C60.2969 12.8072 60.2396 12.9895 60.2188 13.1562L60.1823 13.4635L56.0261 13.4791L51.875 13.4895V13.2135C51.875 12.8489 51.7396 12.6562 51.4844 12.6562C51.3698 12.6562 51.2709 12.6979 51.1979 12.7708ZM60.2084 18.7239V20.2604L56.4219 20.2708C53.1146 20.2812 51.9219 20.276 51.8959 20.2447C51.8698 20.2135 51.8438 17.2343 51.8646 17.2135C51.8802 17.1979 53.7657 17.1874 56.0521 17.1874H60.2084V18.7239ZM58.2552 21.5416C58.0573 21.7239 57.7396 22.0104 57.5573 22.177L57.224 22.4739L56.0573 22.4895L54.8854 22.5052L54.5 22.151C54.2865 21.9583 53.9636 21.6614 53.7865 21.4999L53.4636 21.2031H56.0417H58.6198L58.2552 21.5416ZM56.3698 23.2343L56.0521 23.5572L55.7344 23.2812C55.5573 23.1302 55.4167 22.9843 55.4167 22.9635C55.4167 22.9374 55.7032 22.9166 56.0521 22.9166H56.6927L56.3698 23.2343ZM56.2917 23.9999C56.3021 24.1197 56.2813 24.177 56.1979 24.2187C56.0365 24.3072 55.8386 24.2395 55.8021 24.0885C55.7604 23.9166 55.8073 23.8072 55.9479 23.7552C56.1146 23.6874 56.2709 23.802 56.2917 23.9999Z" fill="#FF3228"/>
<path d="M28.0262 13.9894C26.9689 14.2707 26.2137 15.3696 26.0418 16.8592C25.9064 18.0259 26.2554 19.2603 27.047 20.4061C27.1877 20.6144 27.297 20.7915 27.2814 20.8071C27.2137 20.8801 26.6095 21.104 26.1929 21.2186C25.521 21.4009 24.896 21.4998 24.0314 21.5571C22.9585 21.6353 22.4064 21.854 21.7866 22.4738C21.5106 22.7498 21.4116 22.9113 21.0262 23.703C20.3595 25.0623 20.0835 25.2863 18.9637 25.3748C18.6252 25.4009 18.172 25.4165 17.9637 25.4061L17.5835 25.3905L17.9429 25.1821C18.3699 24.9321 19.0158 24.3384 19.3752 23.8644C20.1772 22.8123 20.6199 21.2498 20.4793 19.979C20.0783 16.328 16.5106 14.0311 13.0522 15.203C11.2397 15.8228 9.88557 17.2811 9.42203 19.1353C9.28141 19.6821 9.23453 20.7915 9.32307 21.3436C9.50537 22.4738 10.0054 23.4894 10.8022 24.3176C11.6408 25.1873 12.5418 25.703 13.6929 25.9634C14.2293 26.0884 14.2397 26.0884 16.7397 26.0623C18.1147 26.0467 19.4324 26.0155 19.6668 25.9894C20.3387 25.9165 20.7345 25.729 21.2033 25.2603C21.5366 24.9321 21.646 24.7811 21.8804 24.3019C22.2189 23.6092 22.5366 23.2446 22.9897 23.0207C23.297 22.8696 23.3752 22.854 24.1616 22.8071C24.6252 22.7811 25.1616 22.7394 25.3543 22.7082C26.2762 22.5623 27.3595 22.2186 28.0627 21.8436L28.4949 21.6144L28.8543 21.7967C29.4845 22.1144 29.9272 22.2134 30.7293 22.2134C31.3231 22.2134 31.4949 22.1926 31.8231 22.0936C32.9272 21.7446 33.7189 21.1301 35.2293 19.453C36.2658 18.2967 36.9689 17.7915 37.7762 17.6248C38.9429 17.3748 40.4168 17.9269 41.7814 19.1353C42.1981 19.5051 42.7606 20.1405 42.7606 20.2394C42.7606 20.2655 42.6772 20.3436 42.5783 20.4061C42.3074 20.5936 41.5627 21.3905 41.3022 21.7707C41.0054 22.2082 40.6929 22.9165 40.5887 23.3957C40.4741 23.9217 40.4741 24.8748 40.5887 25.3123C40.8283 26.2134 41.3179 26.854 42.047 27.2134C42.4064 27.3905 42.5106 27.4165 42.9064 27.4373C43.2762 27.453 43.422 27.4373 43.6929 27.3436C44.5783 27.0467 45.2033 26.3019 45.4949 25.2082C45.6252 24.7082 45.6564 23.6248 45.5522 23.0415C45.4429 22.4113 45.2085 21.703 44.922 21.1509C44.7918 20.9009 44.6877 20.6717 44.6877 20.6457C44.6877 20.5623 45.4168 20.2915 46.047 20.1353C46.9168 19.9217 47.6929 19.8436 48.9897 19.8436H50.1564V19.2186V18.5936H48.8856C46.9012 18.5936 45.9116 18.7603 44.4481 19.3332L43.9168 19.5415L43.0939 18.7134C42.1408 17.7655 41.6095 17.3644 40.6929 16.9217C39.8231 16.4946 39.2293 16.3436 38.4064 16.3436C37.6252 16.3436 37.0939 16.4686 36.4533 16.8071C35.6408 17.2342 35.3179 17.5259 33.5679 19.4009C33.2241 19.7707 32.8022 20.1769 32.6304 20.3019C31.9741 20.7915 31.1356 21.078 30.521 21.0207C30.2345 20.9946 29.7189 20.8644 29.6408 20.8019C29.6304 20.7915 29.7241 20.6717 29.8543 20.5311C30.4429 19.9009 30.8804 19.1405 31.0991 18.3592C31.2554 17.8176 31.271 16.7186 31.1304 16.1978C30.7033 14.5832 29.3595 13.6301 28.0262 13.9894ZM29.0939 15.3384C29.4897 15.5728 29.7762 15.9842 29.8856 16.4842C29.9949 16.9894 30.0054 17.1769 29.9481 17.6092C29.8335 18.4269 29.4741 19.1248 28.8179 19.7759C28.5887 20.0051 28.4637 20.0936 28.4168 20.0676C28.2814 19.9894 27.9168 19.5051 27.7397 19.1665C27.3543 18.4321 27.1929 17.6353 27.2918 16.9373C27.4116 16.0728 27.6981 15.5363 28.1877 15.2915C28.5106 15.1248 28.7502 15.1405 29.0939 15.3384ZM15.4949 15.9634C15.9116 16.2082 16.1877 16.7707 16.1199 17.2342C16.0054 17.9842 15.3491 18.4373 14.6043 18.2811C13.4481 18.0415 13.2606 16.4686 14.3231 15.9217C14.5731 15.7915 14.6512 15.7759 14.9324 15.7967C15.1564 15.8123 15.3283 15.8644 15.4949 15.9634ZM12.422 17.5988C12.6877 17.7186 13.0366 18.1092 13.1147 18.3748C13.3856 19.2759 12.7085 20.1301 11.797 20.0363C10.7658 19.9321 10.2762 18.7811 10.9064 17.953C11.2189 17.5415 11.9324 17.3748 12.422 17.5988ZM18.5002 17.6717C18.7345 17.8071 18.9585 18.0832 19.0574 18.3488C19.1356 18.5571 19.1304 19.0363 19.0418 19.2394C18.9272 19.5155 18.6147 19.8228 18.3231 19.9478C18.0106 20.0832 17.5366 20.0728 17.2554 19.9269C16.4585 19.5207 16.3387 18.3801 17.0262 17.8071C17.3127 17.5676 17.521 17.4998 17.9272 17.5207C18.1824 17.5311 18.3335 17.5728 18.5002 17.6717ZM15.1824 20.1821C15.3804 20.3748 15.3647 20.6769 15.1512 20.854C14.9429 21.0311 14.7658 21.0259 14.5783 20.8384C14.4689 20.729 14.4272 20.6353 14.4272 20.5051C14.4272 20.104 14.9064 19.9009 15.1824 20.1821ZM12.4845 21.104C13.0262 21.3748 13.297 22.0155 13.1147 22.6092C13.0366 22.8748 12.7554 23.203 12.4793 23.3488C12.1824 23.5051 11.6199 23.5051 11.3283 23.3488C10.5574 22.9373 10.4012 21.9373 11.0158 21.328C11.4064 20.9321 11.9689 20.8488 12.4845 21.104ZM18.422 21.1144C18.8856 21.3332 19.1512 21.8071 19.0991 22.3436C19.0679 22.6873 18.9741 22.8905 18.7449 23.1196C18.521 23.3436 18.3179 23.4426 17.9897 23.4738C17.4533 23.5311 16.9533 23.2655 16.7085 22.7915C16.5522 22.4998 16.547 21.9842 16.7033 21.6926C16.8283 21.4582 17.0887 21.1978 17.3179 21.078C17.5679 20.9478 18.0991 20.9634 18.422 21.1144ZM43.8543 21.8228C44.6564 23.4321 44.5106 25.4634 43.5522 26.0259C43.0262 26.3384 42.2137 25.9842 41.9116 25.3176C41.7606 24.9894 41.7293 24.1717 41.8439 23.6873C42.047 22.8228 42.5835 22.0103 43.3335 21.4426L43.5158 21.3019L43.6147 21.4165C43.6668 21.4842 43.7762 21.6665 43.8543 21.8228ZM15.3543 22.7915C15.4585 22.8332 15.6252 22.9426 15.7189 23.0363C16.5679 23.8488 16.0418 25.2134 14.8856 25.2082C14.3491 25.203 13.9168 24.9269 13.7241 24.4634C13.6199 24.2082 13.6147 23.7186 13.7137 23.479C13.8231 23.2186 14.1095 22.9165 14.3491 22.8071C14.6095 22.6873 15.0939 22.6821 15.3543 22.7915Z" fill="white"/>
<path d="M35.1564 23.25C35.1564 23.2916 35.1043 23.4531 35.047 23.6146L34.9325 23.9062H34.5627L34.1929 23.9114L34.37 24.0521C34.4689 24.1302 34.6043 24.2396 34.6668 24.2968L34.7866 24.401L34.6877 24.7135C34.6304 24.8854 34.5887 25.0416 34.5991 25.0677C34.6043 25.0885 34.7397 25.0104 34.896 24.8958C35.0522 24.7864 35.1981 24.6875 35.2137 24.6875C35.2293 24.6875 35.37 24.7812 35.5262 24.8958C35.6772 25.0156 35.8127 25.0885 35.8231 25.0625C35.8283 25.0364 35.7918 24.875 35.7345 24.6979L35.6356 24.3802L35.9585 24.1562L36.2762 23.9323L35.8856 23.9166C35.6564 23.9062 35.4793 23.875 35.4585 23.8385C35.4377 23.8021 35.3804 23.6406 35.3335 23.4739C35.2554 23.2031 35.1564 23.0781 35.1564 23.25Z" fill="#FF3228"/>
<path d="M7.16152 26.7187C7.0834 26.8021 7.07819 26.8333 7.13548 26.901C7.19277 26.974 7.16673 27.0208 6.95319 27.2396C6.78652 27.4062 6.66673 27.4896 6.61465 27.474C6.56777 27.4583 6.48965 27.4896 6.44277 27.5417C6.35944 27.6354 6.36986 27.6562 6.72923 27.974C6.93756 28.1562 7.7709 28.8958 8.57819 29.6198C9.38548 30.3437 10.0678 30.9375 10.0938 30.9375C10.198 30.9375 10.2761 30.7865 10.2136 30.7083C10.1667 30.6562 10.2084 30.5729 10.4011 30.3437C10.599 30.099 10.6667 30.0521 10.7605 30.0729C10.8438 30.0937 10.8959 30.0781 10.9324 30.0052C10.9792 29.9219 10.7761 29.724 9.30736 28.4323C8.38548 27.6198 7.54694 26.875 7.44277 26.7865C7.25527 26.6198 7.25527 26.6146 7.16152 26.7187ZM7.91673 27.5469L8.25527 27.849L8.00527 28.1458C7.86465 28.3073 7.73444 28.4375 7.7084 28.4375C7.63027 28.4375 7.03131 27.901 7.03131 27.8333C7.03131 27.75 7.45319 27.25 7.52611 27.2448C7.55736 27.2448 7.72923 27.3802 7.91673 27.5469ZM8.93756 28.4479C9.11465 28.599 9.26569 28.7604 9.26569 28.8021C9.26569 28.8437 9.15631 29 9.0209 29.151L8.77611 29.4219L8.40111 29.0885L8.02611 28.7552L8.26569 28.4687C8.40111 28.3073 8.53131 28.1771 8.55736 28.1771C8.5834 28.1771 8.75527 28.3021 8.93756 28.4479ZM10.0157 29.4062C10.2084 29.5729 10.3646 29.7187 10.3646 29.7344C10.3594 29.75 10.2396 29.901 10.0886 30.0677L9.81777 30.3646L9.45319 30.0365L9.09381 29.7031L9.34381 29.4115C9.48444 29.2448 9.60944 29.1146 9.63027 29.1146C9.65111 29.1146 9.82298 29.2448 10.0157 29.4062Z" fill="white"/>
<path d="M62.5522 27.3905C59.1616 29.6144 59.1147 29.6457 59.172 29.7498C59.2084 29.8176 59.2657 29.8436 59.323 29.828C59.4012 29.8071 59.4741 29.8801 59.6355 30.1248C59.8543 30.4634 59.8803 30.5519 59.7866 30.5832C59.7397 30.5988 59.7397 30.6353 59.7866 30.7238C59.823 30.7863 59.8647 30.8332 59.8855 30.8228C59.9428 30.7967 63.9793 28.1144 64.0262 28.0728C64.0522 28.0519 64.0418 27.9842 64.0053 27.9269C63.9532 27.8436 63.9168 27.8332 63.8491 27.8696C63.7501 27.9217 63.7032 27.8644 63.4428 27.4321C63.3439 27.2759 63.3334 27.2238 63.3855 27.1613C63.4376 27.0988 63.4376 27.0676 63.3855 27.0051C63.3491 26.9634 63.3074 26.9269 63.2866 26.9269C63.2709 26.9269 62.9376 27.1353 62.5522 27.3905ZM63.1928 27.8019C63.297 27.9686 63.3855 28.1196 63.3855 28.1405C63.3855 28.1717 62.6303 28.6978 62.5887 28.6978C62.5262 28.6978 62.1251 28.0103 62.1668 27.9738C62.2657 27.8748 62.8855 27.4998 62.9376 27.4998C62.9689 27.4998 63.0834 27.6353 63.1928 27.8019ZM61.9949 28.5832C62.0991 28.7498 62.1876 28.9113 62.1876 28.9373C62.1876 29.0051 61.448 29.479 61.3959 29.4478C61.3022 29.3905 60.9845 28.8384 61.0105 28.7759C61.0366 28.6978 61.6564 28.2811 61.7397 28.2811C61.7709 28.2811 61.8855 28.4165 61.9949 28.5832ZM60.8074 29.3332C60.9168 29.5155 61.0157 29.6769 61.0262 29.6978C61.0418 29.7238 60.6668 29.9894 60.2762 30.2238C60.2137 30.2603 59.7918 29.703 59.7918 29.5832C59.7918 29.5415 60.5366 29.0103 60.5991 29.0103C60.6043 29.0103 60.698 29.1561 60.8074 29.3332Z" fill="white"/>
<path d="M25.3491 28.4375C25.3334 28.4792 25.2918 28.6146 25.2605 28.7344C25.2032 28.974 25.1459 28.9948 24.7293 28.9688C24.5262 28.9531 24.5522 29.0104 24.8334 29.1979C24.9689 29.2813 25.073 29.375 25.0678 29.4063C25.0678 29.4323 25.0262 29.5781 24.9845 29.724C24.9376 29.875 24.9064 30 24.9168 30C24.9272 30 25.0366 29.9167 25.1616 29.8177C25.4324 29.6042 25.4793 29.599 25.6928 29.7604C25.9845 29.974 25.9897 29.9688 25.8803 29.651L25.7762 29.349L25.8855 29.2708C25.948 29.2292 26.0574 29.1406 26.1355 29.0781L26.2762 28.9635L25.948 28.9583C25.6772 28.9583 25.6095 28.9427 25.5939 28.8646C25.5782 28.8177 25.5262 28.6823 25.4741 28.5677C25.4064 28.4271 25.3699 28.3854 25.3491 28.4375Z" fill="#FF3228"/>
<path d="M47.271 29.5676C47.1147 29.8488 46.9377 30.1457 46.8752 30.2342C46.8179 30.3176 46.771 30.4165 46.771 30.4478C46.771 30.4999 47.5939 30.9165 47.6252 30.8801C47.672 30.8228 48.3856 29.5207 48.3856 29.4894C48.3856 29.4478 47.6877 29.0624 47.6095 29.0624C47.5835 29.0624 47.4272 29.2915 47.271 29.5676ZM47.9168 29.4009C48.0627 29.4738 48.1772 29.5572 48.1772 29.5884C48.1772 29.6509 47.6095 30.6769 47.5731 30.6769C47.5158 30.6769 46.9793 30.3905 46.9793 30.354C46.9793 30.3332 47.0887 30.1353 47.2189 29.9113C47.5783 29.3124 47.6043 29.2707 47.6356 29.2707C47.646 29.2707 47.7762 29.328 47.9168 29.4009Z" fill="white"/>
<path d="M45.6408 33.6093C44.9741 33.8697 44.4272 34.1145 44.4272 34.1457C44.4272 34.1978 44.8856 35.4634 44.922 35.5103C44.9533 35.5468 47.5002 34.5051 47.5002 34.453C47.5002 34.3124 46.9897 33.1509 46.922 33.1405C46.8804 33.1301 46.3075 33.3436 45.6408 33.6093ZM46.9272 33.8124C47.0158 34.0468 47.0939 34.2863 47.0991 34.3384C47.1095 34.4165 46.9377 34.4999 46.1772 34.7968C45.6616 34.9947 45.2137 35.1509 45.1825 35.1353C45.12 35.1145 44.7658 34.229 44.8022 34.1874C44.8283 34.1665 46.6668 33.4009 46.7293 33.3905C46.745 33.3905 46.8335 33.578 46.9272 33.8124Z" fill="white"/>
</svg>
