<svg width="24" height="24" viewBox="0 0 24 24" fill="none" xmlns="http://www.w3.org/2000/svg">
<path d="M18.0938 22.6641C18.2188 22.6641 18.3438 22.6484 18.4688 22.6172C18.5938 22.5859 18.7188 22.5469 18.8438 22.5C18.9531 22.4531 19.0625 22.3906 19.1719 22.3125C19.2812 22.2344 19.375 22.1484 19.4531 22.0547C19.5469 21.9609 19.6289 21.8594 19.6992 21.75C19.7695 21.6406 19.8281 21.5312 19.875 21.4219C19.9219 21.2969 19.957 21.1719 19.9805 21.0469C20.0039 20.9219 20.0078 20.7969 19.9922 20.6719V7.47656H18.6562V20.6719C18.6719 20.7031 18.6758 20.7422 18.668 20.7891C18.6602 20.8359 18.6484 20.875 18.6328 20.9062C18.6172 20.9531 18.6016 20.9922 18.5859 21.0234C18.5703 21.0547 18.5469 21.0859 18.5156 21.1172C18.4844 21.1484 18.4531 21.1758 18.4219 21.1992C18.3906 21.2227 18.3594 21.2422 18.3281 21.2578C18.2969 21.2891 18.2617 21.3086 18.2227 21.3164C18.1836 21.3242 18.1406 21.3281 18.0938 21.3281H5.90625C5.85938 21.3281 5.81641 21.3242 5.77734 21.3164C5.73828 21.3086 5.70312 21.2891 5.67188 21.2578C5.64062 21.2422 5.60938 21.2227 5.57812 21.1992C5.54688 21.1758 5.51562 21.1484 5.48438 21.1172C5.45312 21.0859 5.42969 21.0547 5.41406 21.0234C5.39844 20.9922 5.38281 20.9531 5.36719 20.9062C5.35156 20.875 5.33984 20.8359 5.33203 20.7891C5.32422 20.7422 5.32812 20.7031 5.34375 20.6719V7.47656H4.00781V20.6719C3.99219 20.7969 3.99609 20.9219 4.01953 21.0469C4.04297 21.1719 4.07812 21.2969 4.125 21.4219C4.17188 21.5312 4.23047 21.6406 4.30078 21.75C4.37109 21.8594 4.45312 21.9609 4.54688 22.0547C4.625 22.1484 4.71875 22.2344 4.82812 22.3125C4.9375 22.3906 5.04688 22.4531 5.15625 22.5C5.28125 22.5469 5.40625 22.5859 5.53125 22.6172C5.65625 22.6484 5.78125 22.6641 5.90625 22.6641H18.0938ZM20.7773 5.95312C20.8633 5.92188 20.9375 5.875 21 5.8125C21.0625 5.75 21.1094 5.67578 21.1406 5.58984C21.1719 5.50391 21.1875 5.42188 21.1875 5.34375C21.1875 5.25 21.1719 5.16016 21.1406 5.07422C21.1094 4.98828 21.0625 4.91406 21 4.85156C20.9375 4.78906 20.8633 4.74219 20.7773 4.71094C20.6914 4.67969 20.6016 4.66406 20.5078 4.66406H3.32812C3.25 4.66406 3.16797 4.67969 3.08203 4.71094C2.99609 4.74219 2.92188 4.78906 2.85938 4.85156C2.79688 4.91406 2.75 4.98828 2.71875 5.07422C2.6875 5.16016 2.67188 5.25 2.67188 5.34375C2.67188 5.42188 2.6875 5.50391 2.71875 5.58984C2.75 5.67578 2.79688 5.75 2.85938 5.8125C2.92188 5.875 2.99609 5.92188 3.08203 5.95312C3.16797 5.98438 3.25 6 3.32812 6H20.5078C20.6016 6 20.6914 5.98438 20.7773 5.95312ZM13.9922 18.6562H15.3281V8.67188H13.9922V18.6562ZM8.67188 18.6562H10.0078V8.67188H8.67188V18.6562ZM15.3281 2.67188C15.3281 2.5 15.2969 2.33203 15.2344 2.16797C15.1719 2.00391 15.0859 1.86719 14.9766 1.75781C14.8516 1.63281 14.7109 1.53125 14.5547 1.45312C14.3984 1.375 14.2344 1.33594 14.0625 1.33594H9.9375C9.76562 1.33594 9.60156 1.375 9.44531 1.45312C9.28906 1.53125 9.14844 1.63281 9.02344 1.75781C8.91406 1.86719 8.82812 2.00391 8.76562 2.16797C8.70312 2.33203 8.67188 2.5 8.67188 2.67188V3.91406H9.9375V2.67188H14.0625V3.91406H15.3281V2.67188Z" fill="#1E1E1E"/>
</svg>
