<svg width="24" height="24" viewBox="0 0 24 24" fill="none" xmlns="http://www.w3.org/2000/svg">
<path d="M16.945 2.73364C18.4688 2.73364 19.9688 3.38489 21.0525 4.47864C21.0775 4.50364 21.0888 4.53739 21.1088 4.56489C22.9575 6.54864 23.2963 9.70239 21.7788 12.0036C21.2875 12.7499 20.6175 13.3586 19.9963 13.9924C19.015 14.9949 18.0338 15.9961 17.0525 16.9986L12 22.1574L6.9488 16.9986C5.96755 15.9961 4.9863 14.9949 4.00505 13.9924C3.3838 13.3586 2.7138 12.7499 2.22255 12.0036C0.705046 9.70239 1.0438 6.54864 2.89255 4.56489C2.9138 4.53739 2.9238 4.50364 2.9488 4.47864C4.0338 3.38489 5.53255 2.73364 7.0563 2.73364C7.2488 2.73364 7.44255 2.74364 7.63505 2.76489C8.5063 2.86239 9.35255 3.12239 10.1088 3.58739C10.63 3.90989 11.075 4.32364 11.5063 4.76364C11.6663 4.92739 11.8263 5.08989 11.985 5.25239H12.0175C12.1763 5.08989 12.3363 4.92739 12.4963 4.76364C12.9263 4.32364 13.3725 3.90989 13.8938 3.58739C14.65 3.12239 15.4963 2.86114 16.3675 2.76489C16.56 2.74364 16.7538 2.73364 16.9463 2.73364M16.945 1.98364C16.7238 1.98364 16.5013 1.99614 16.2838 2.01989C15.2513 2.13489 14.315 2.44739 13.4988 2.94989C12.9 3.31989 12.4063 3.78489 12 4.19864C11.5925 3.78489 11.0988 3.31989 10.5025 2.95114C9.68505 2.44864 8.7488 2.13614 7.71755 2.02114C7.4988 1.99739 7.2763 1.98489 7.05505 1.98489C5.34505 1.98489 3.6538 2.70114 2.41505 3.95114C2.35505 4.01114 2.3138 4.07114 2.2863 4.11614C1.3063 5.19614 0.690046 6.60489 0.547546 8.09489C0.401296 9.63489 0.772546 11.1699 1.59505 12.4174C2.03255 13.0836 2.5813 13.6311 3.11255 14.1599C3.2313 14.2786 3.3513 14.3974 3.4688 14.5174L6.41255 17.5236L11.465 22.6824L12.0013 23.2299L12.5375 22.6824L17.59 17.5236L20.5338 14.5174C20.6513 14.3974 20.77 14.2786 20.89 14.1599C21.42 13.6311 21.9688 13.0836 22.4075 12.4161C23.2288 11.1699 23.6013 9.63489 23.455 8.09489C23.3138 6.60489 22.6963 5.19489 21.7163 4.11489C21.6875 4.06864 21.6463 4.00864 21.5863 3.94864C20.3488 2.70114 18.6575 1.98364 16.9475 1.98364H16.945Z" fill="#1E1E1E"/>
</svg>
