<svg width="24" height="24" viewBox="0 0 24 24" fill="none" xmlns="http://www.w3.org/2000/svg">
<path d="M16.9922 1.57031C17.7109 1.57031 18.4023 1.71094 19.0664 1.99219C19.7305 2.27344 20.3203 2.67188 20.8359 3.1875C21.3359 3.6875 21.7266 4.26953 22.0078 4.93359C22.2891 5.59766 22.4375 6.29688 22.4531 7.03125C22.4531 7.75 22.3203 8.44141 22.0547 9.10547C21.7891 9.76953 21.4062 10.3672 20.9062 10.8984L17.8828 13.8984C17.6172 14.1797 17.3164 14.4258 16.9805 14.6367C16.6445 14.8477 16.2969 15.0234 15.9375 15.1641C15.5625 15.3047 15.1797 15.4023 14.7891 15.457C14.3984 15.5117 14.0078 15.5234 13.6172 15.4922C13.2266 15.4609 12.8398 15.3906 12.457 15.2813C12.0742 15.1719 11.7109 15.0234 11.3672 14.8359C11.0234 14.6484 10.7031 14.4258 10.4062 14.168C10.1094 13.9102 9.84375 13.625 9.60938 13.3125C9.51562 13.1875 9.48047 13.0586 9.50391 12.9258C9.52734 12.793 9.59375 12.6875 9.70312 12.6094C9.8125 12.5156 9.93359 12.4805 10.0664 12.5039C10.1992 12.5273 10.3125 12.5938 10.4062 12.7031C10.5938 12.9531 10.8086 13.1875 11.0508 13.4062C11.293 13.625 11.5547 13.8047 11.8359 13.9453C12.1328 14.1016 12.4336 14.2266 12.7383 14.3203C13.043 14.4141 13.3594 14.4688 13.6875 14.4844C14 14.5156 14.3164 14.5078 14.6367 14.4609C14.957 14.4141 15.2734 14.3359 15.5859 14.2266C15.8828 14.1172 16.168 13.9727 16.4414 13.793C16.7148 13.6133 16.9609 13.4141 17.1797 13.1953L20.1797 10.1953C20.5859 9.77344 20.8984 9.28906 21.1172 8.74219C21.3359 8.19531 21.4453 7.625 21.4453 7.03125C21.4453 6.4375 21.3281 5.87109 21.0938 5.33203C20.8594 4.79297 20.5391 4.3125 20.1328 3.89062C19.7109 3.46875 19.2266 3.14453 18.6797 2.91797C18.1328 2.69141 17.5703 2.57812 16.9922 2.57812C16.3984 2.5625 15.8281 2.66406 15.2812 2.88281C14.7344 3.10156 14.25 3.41406 13.8281 3.82031L12.0938 5.53125C12 5.625 11.8828 5.67188 11.7422 5.67188C11.6016 5.67188 11.4844 5.625 11.3906 5.53125C11.2969 5.4375 11.25 5.32031 11.25 5.17969C11.25 5.03906 11.2969 4.92188 11.3906 4.82813L13.125 3.11719C13.6406 2.61719 14.2344 2.23438 14.9062 1.96875C15.5781 1.70313 16.2734 1.57031 16.9922 1.57031ZM10.3828 8.50781C10.7734 8.53906 11.1602 8.60938 11.543 8.71875C11.9258 8.82813 12.2891 8.97656 12.6328 9.16406C12.9766 9.35156 13.2969 9.57422 13.5938 9.83203C13.8906 10.0898 14.1562 10.3828 14.3906 10.7109C14.4844 10.8203 14.5195 10.9414 14.4961 11.0742C14.4727 11.207 14.4062 11.3125 14.2969 11.3906C14.1875 11.4844 14.0664 11.5195 13.9336 11.4961C13.8008 11.4727 13.6875 11.4062 13.5938 11.2969C13.4062 11.0469 13.1914 10.8164 12.9492 10.6055C12.707 10.3945 12.4453 10.2109 12.1641 10.0547C11.8672 9.89844 11.5664 9.77344 11.2617 9.67969C10.957 9.58594 10.6406 9.53125 10.3125 9.51563C10 9.48438 9.68359 9.49219 9.36328 9.53906C9.04297 9.58594 8.72656 9.66406 8.41406 9.77344C8.11719 9.89844 7.83203 10.0469 7.55859 10.2188C7.28516 10.3906 7.03906 10.5859 6.82031 10.8047L3.82031 13.8047C3.41406 14.2266 3.10156 14.7148 2.88281 15.2695C2.66406 15.8242 2.55469 16.3906 2.55469 16.9688C2.55469 17.5625 2.67188 18.1328 2.90625 18.6797C3.14062 19.2266 3.46094 19.7031 3.86719 20.1094C4.28906 20.5312 4.77344 20.8555 5.32031 21.082C5.86719 21.3086 6.42969 21.4297 7.00781 21.4453C7.60156 21.4453 8.17188 21.3359 8.71875 21.1172C9.26562 20.8984 9.75 20.5859 10.1719 20.1797L11.8828 18.4688C11.9766 18.375 12.0938 18.3281 12.2344 18.3281C12.375 18.3281 12.4922 18.375 12.5859 18.4688C12.6953 18.5625 12.75 18.6797 12.75 18.8203C12.75 18.9609 12.6953 19.0781 12.5859 19.1719L10.875 20.8828C10.3594 21.3828 9.76562 21.7695 9.09375 22.043C8.42188 22.3164 7.72656 22.4453 7.00781 22.4297C6.28906 22.4297 5.59766 22.2891 4.93359 22.0078C4.26953 21.7266 3.67969 21.3281 3.16406 20.8125C2.66406 20.3125 2.27344 19.7305 1.99219 19.0664C1.71094 18.4023 1.5625 17.7109 1.54688 16.9922C1.54688 16.2578 1.67969 15.5586 1.94531 14.8945C2.21094 14.2305 2.59375 13.6406 3.09375 13.125L6.11719 10.1016C6.38281 9.82031 6.68359 9.57422 7.01953 9.36328C7.35547 9.15234 7.71094 8.97656 8.08594 8.83594C8.44531 8.69531 8.82031 8.59766 9.21094 8.54297C9.60156 8.48828 9.99219 8.47656 10.3828 8.50781Z" fill="#1E1E1E"/>
</svg>
