<svg width="24" height="24" viewBox="0 0 24 24" fill="none" xmlns="http://www.w3.org/2000/svg">
<path d="M4.875 4.125C3.97989 4.125 3.12145 4.48058 2.48851 5.11351C1.85558 5.74645 1.5 6.60489 1.5 7.5V16.5C1.5 17.3951 1.85558 18.2535 2.48851 18.8865C3.12145 19.5194 3.97989 19.875 4.875 19.875H13.875C14.7701 19.875 15.6285 19.5194 16.2615 18.8865C16.8944 18.2535 17.25 17.3951 17.25 16.5V15.387L20.2658 17.7098C21.1785 18.4118 22.5 17.7615 22.5 16.6102V7.38975C22.5 6.2385 21.1785 5.58825 20.2658 6.29025L17.25 8.613V7.5C17.25 6.60489 16.8944 5.74645 16.2615 5.11351C15.6285 4.48058 14.7701 4.125 13.875 4.125H4.875ZM16.5 9.37125V16.5C16.5 17.1962 16.2234 17.8639 15.7312 18.3562C15.2389 18.8484 14.5712 19.125 13.875 19.125H4.875C4.17881 19.125 3.51113 18.8484 3.01884 18.3562C2.52656 17.8639 2.25 17.1962 2.25 16.5V7.5C2.25 6.80381 2.52656 6.13613 3.01884 5.64384C3.51113 5.15156 4.17881 4.875 4.875 4.875H13.875C14.5712 4.875 15.2389 5.15156 15.7312 5.64384C16.2234 6.13613 16.5 6.80381 16.5 7.5V9.37125ZM17.25 14.4405V9.5595L20.7233 6.885C20.8176 6.81228 20.9304 6.76743 21.0489 6.75555C21.1674 6.74366 21.2869 6.76522 21.3937 6.81776C21.5006 6.87031 21.5907 6.95174 21.6536 7.05284C21.7166 7.15393 21.75 7.27065 21.75 7.38975V16.6102C21.75 16.7294 21.7166 16.8461 21.6536 16.9472C21.5907 17.0483 21.5006 17.1297 21.3937 17.1822C21.2869 17.2348 21.1674 17.2563 21.0489 17.2445C20.9304 17.2326 20.8176 17.1877 20.7233 17.115L17.25 14.4405Z" fill="#393A3B"/>
</svg>
