<svg width="24" height="24" viewBox="0 0 24 24" fill="none" xmlns="http://www.w3.org/2000/svg">
<g clip-path="url(#clip0_1733_4181)">
<path d="M18 24.4922C17.8594 24.4922 17.7422 24.4453 17.6484 24.3516L5.64844 12.3516C5.55469 12.2578 5.50781 12.1406 5.50781 12C5.50781 11.8594 5.55469 11.7422 5.64844 11.6484L17.6484 -0.351562C17.7422 -0.445312 17.8594 -0.492188 18 -0.492188C18.1406 -0.492188 18.2578 -0.445312 18.3516 -0.351562C18.4453 -0.257812 18.4922 -0.140625 18.4922 0C18.4922 0.140625 18.4453 0.257812 18.3516 0.351562L6.70312 12L18.3516 23.6484C18.4453 23.7422 18.4922 23.8594 18.4922 24C18.4922 24.1406 18.4453 24.2578 18.3516 24.3516C18.2578 24.4453 18.1406 24.4922 18 24.4922Z" fill="#1E1E1E"/>
</g>
<defs>
<clipPath id="clip0_1733_4181">
<rect width="24" height="24" fill="white"/>
</clipPath>
</defs>
</svg>
