<svg width="24" height="24" viewBox="0 0 24 24" fill="none" xmlns="http://www.w3.org/2000/svg">
<path d="M20.2501 10.125H6.68069L19.5938 6.71625C19.6417 6.70364 19.6866 6.68166 19.726 6.6516C19.7653 6.62154 19.7983 6.58398 19.823 6.5411C19.8478 6.49822 19.8638 6.45086 19.8702 6.40176C19.8765 6.35265 19.8731 6.30277 19.8601 6.255L19.0951 3.4425C19.0159 3.15951 18.8285 2.91907 18.5734 2.77326C18.3182 2.62745 18.0159 2.58799 17.7319 2.66344L3.45288 6.43219C3.31065 6.46899 3.17719 6.5338 3.06032 6.62282C2.94345 6.71184 2.84552 6.82329 2.77225 6.95063C2.70011 7.07502 2.65336 7.21247 2.63469 7.35505C2.61602 7.49763 2.62582 7.64249 2.6635 7.78125L3.38257 10.4241C3.37749 10.4491 3.37498 10.4745 3.37507 10.5V18.75C3.37507 19.0484 3.49359 19.3345 3.70457 19.5455C3.91555 19.7565 4.2017 19.875 4.50007 19.875H19.5001C19.7984 19.875 20.0846 19.7565 20.2956 19.5455C20.5065 19.3345 20.6251 19.0484 20.6251 18.75V10.5C20.6251 10.4005 20.5856 10.3052 20.5152 10.2348C20.4449 10.1645 20.3495 10.125 20.2501 10.125ZM11.8126 4.99969L15.3751 7.05469L10.8826 8.24063L7.32382 6.1875L11.8126 4.99969ZM17.9213 3.38719C17.9519 3.37919 17.9834 3.37509 18.0151 3.375C18.0958 3.37271 18.175 3.39736 18.2402 3.44506C18.3054 3.49276 18.3528 3.56079 18.3751 3.63844L19.0407 6.08719L16.4063 6.78282L12.8438 4.72782L17.9213 3.38719ZM3.41819 7.32469C3.44222 7.28326 3.47423 7.24701 3.51237 7.21804C3.55051 7.18907 3.59402 7.16797 3.64038 7.15594L6.29069 6.45657L9.85319 8.51063L4.05475 10.0425L3.38725 7.58813C3.37536 7.54426 3.3723 7.49846 3.37826 7.4534C3.38421 7.40833 3.39906 7.3649 3.42194 7.32563L3.41819 7.32469ZM19.8751 18.75C19.8751 18.8495 19.8356 18.9448 19.7652 19.0152C19.6949 19.0855 19.5995 19.125 19.5001 19.125H4.50007C4.40061 19.125 4.30523 19.0855 4.2349 19.0152C4.16458 18.9448 4.12507 18.8495 4.12507 18.75V10.875H19.8751V18.75Z" fill="#1E1E1E"/>
</svg>
