<svg width="25" height="25" viewBox="0 0 25 25" fill="none" xmlns="http://www.w3.org/2000/svg">
<path d="M13.4569 2.25659C12.8085 2.25663 12.1867 2.51421 11.7283 2.97268L2.97278 11.7282C2.51437 12.1867 2.25684 12.8084 2.25684 13.4568C2.25684 14.1051 2.51437 14.7269 2.97278 15.1853L8.88502 21.0983C9.11204 21.3254 9.38157 21.5055 9.67822 21.6285C9.97488 21.7514 10.2928 21.8146 10.6139 21.8146C10.935 21.8146 11.253 21.7514 11.5497 21.6285C11.8463 21.5055 12.1158 21.3254 12.3429 21.0983L21.0984 12.3428C21.5566 11.8842 21.8139 11.2625 21.8137 10.6142V4.70122C21.8137 4.05287 21.5562 3.43106 21.0977 2.97261C20.6393 2.51415 20.0175 2.25659 19.3691 2.25659H13.4569ZM12.2601 3.50448C12.4173 3.34732 12.6039 3.22266 12.8092 3.13761C13.0145 3.05256 13.2346 3.00878 13.4569 3.00879H19.3691C19.818 3.00879 20.2484 3.1871 20.5658 3.50449C20.8832 3.82188 21.0615 4.25236 21.0615 4.70122V10.6135C21.0617 10.8358 21.0181 11.056 20.9332 11.2615C20.8483 11.4669 20.7237 11.6537 20.5666 11.811L11.8111 20.5665C11.6539 20.7237 11.4673 20.8483 11.262 20.9334C11.0567 21.0184 10.8366 21.0622 10.6143 21.0622C10.3921 21.0622 10.172 21.0184 9.96665 20.9334C9.76131 20.8483 9.57473 20.7237 9.41758 20.5665L3.50458 14.6527C3.34742 14.4956 3.22275 14.309 3.1377 14.1037C3.05265 13.8983 3.00887 13.6783 3.00887 13.456C3.00887 13.2338 3.05265 13.0137 3.1377 12.8083C3.22275 12.603 3.34742 12.4164 3.50458 12.2593L12.2601 3.50448ZM17.3006 8.27414C17.6996 8.27414 18.0822 8.11565 18.3643 7.83352C18.6465 7.55139 18.805 7.16875 18.805 6.76976C18.805 6.37077 18.6465 5.98812 18.3643 5.70599C18.0822 5.42387 17.6996 5.26537 17.3006 5.26537C16.9016 5.26537 16.5189 5.42387 16.2368 5.70599C15.9547 5.98812 15.7962 6.37077 15.7962 6.76976C15.7962 7.16875 15.9547 7.55139 16.2368 7.83352C16.5189 8.11565 16.9016 8.27414 17.3006 8.27414Z" fill="#393A3B"/>
</svg>
