<svg width="24" height="24" viewBox="0 0 24 24" fill="none" xmlns="http://www.w3.org/2000/svg">
<path d="M7.40005 13.2876C9.49183 13.2876 11.1875 11.5919 11.1875 9.50015C11.1875 7.40837 9.49183 5.71265 7.40005 5.71265C5.30827 5.71265 3.61255 7.40837 3.61255 9.50015C3.61255 11.5919 5.30827 13.2876 7.40005 13.2876Z" stroke="#1E1E1E" stroke-miterlimit="10"/>
<path d="M13.0375 22.025V18.2C13.0375 16.7375 11.85 15.55 10.3875 15.55H4.41245C2.94995 15.55 1.76245 16.7375 1.76245 18.2V22.025" stroke="#1E1E1E" stroke-miterlimit="10"/>
<path d="M22.2499 11.6625H18.9999L15.9999 14.3V11.6625H14.7749C14.2874 11.6625 13.8999 11.2625 13.8999 10.7875V3.30005C13.8999 2.81255 14.2999 2.42505 14.7749 2.42505H22.2624C22.7499 2.42505 23.1374 2.81255 23.1374 3.30005V10.7875C23.1374 11.275 22.7499 11.6625 22.2624 11.6625H22.2499Z" stroke="#1E1E1E" stroke-miterlimit="10"/>
<path d="M15.925 5.52515H21.35" stroke="#1E1E1E" stroke-miterlimit="10"/>
<path d="M15.925 8.02515H21.35" stroke="#1E1E1E" stroke-miterlimit="10"/>
</svg>
