<svg width="24" height="24" viewBox="0 0 24 24" fill="none" xmlns="http://www.w3.org/2000/svg">
<g clip-path="url(#clip0_1733_4201)">
<path d="M12.7734 1.61719L14.5781 3.42188C14.7656 3.60938 14.9883 3.75781 15.2461 3.86719C15.5039 3.97656 15.7656 4.03125 16.0312 4.03125H18.8906C19.1875 4.03125 19.4414 4.13672 19.6523 4.34766C19.8633 4.55859 19.9688 4.8125 19.9688 5.10938V7.94531C19.9688 8.22656 20.0195 8.49609 20.1211 8.75391C20.2227 9.01172 20.375 9.23438 20.5781 9.42188L22.3828 11.2266C22.6016 11.4453 22.7109 11.7031 22.7109 12C22.7109 12.2969 22.6016 12.5469 22.3828 12.75L20.5781 14.5781C20.375 14.7656 20.2227 14.9883 20.1211 15.2461C20.0195 15.5039 19.9688 15.7656 19.9688 16.0312V18.8906C19.9688 19.1875 19.8633 19.4414 19.6523 19.6523C19.4414 19.8633 19.1875 19.9688 18.8906 19.9688H16.0312C15.7656 19.9688 15.5039 20.0195 15.2461 20.1211C14.9883 20.2227 14.7656 20.375 14.5781 20.5781L12.7734 22.3828C12.5547 22.5859 12.2969 22.6875 12 22.6875C11.7031 22.6875 11.4453 22.5859 11.2266 22.3828L9.42188 20.5781C9.23438 20.375 9.01172 20.2227 8.75391 20.1211C8.49609 20.0195 8.23438 19.9688 7.96875 19.9688H5.10938C4.8125 19.9688 4.55859 19.8633 4.34766 19.6523C4.13672 19.4414 4.03125 19.1875 4.03125 18.8906V16.0312C4.03125 15.7656 3.98047 15.5039 3.87891 15.2461C3.77734 14.9883 3.625 14.7656 3.42188 14.5781L1.61719 12.75C1.39844 12.5469 1.28906 12.2969 1.28906 12C1.28906 11.7031 1.39844 11.4453 1.61719 11.2266L3.42188 9.42188C3.625 9.23438 3.77734 9.01172 3.87891 8.75391C3.98047 8.49609 4.03125 8.22656 4.03125 7.94531V5.10938C4.03125 4.8125 4.13672 4.55859 4.34766 4.34766C4.55859 4.13672 4.8125 4.03125 5.10938 4.03125H7.96875C8.23438 4.03125 8.49609 3.97656 8.75391 3.86719C9.01172 3.75781 9.23438 3.60938 9.42188 3.42188L11.2266 1.61719C11.4453 1.39844 11.7031 1.28906 12 1.28906C12.2969 1.28906 12.5547 1.39844 12.7734 1.61719ZM10.5234 0.914062L8.71875 2.71875C8.625 2.8125 8.51172 2.88672 8.37891 2.94141C8.24609 2.99609 8.10938 3.02344 7.96875 3.02344H5.10938C4.53125 3.02344 4.03906 3.22656 3.63281 3.63281C3.22656 4.03906 3.02344 4.53125 3.02344 5.10938V7.94531C3.02344 8.10156 2.99609 8.24609 2.94141 8.37891C2.88672 8.51172 2.8125 8.625 2.71875 8.71875L0.914062 10.5234C0.507812 10.9297 0.304688 11.4219 0.304688 12C0.304688 12.5781 0.507812 13.0703 0.914062 13.4766L2.71875 15.2812C2.8125 15.375 2.88672 15.4883 2.94141 15.6211C2.99609 15.7539 3.02344 15.8906 3.02344 16.0312V18.8906C3.02344 19.4688 3.22656 19.9609 3.63281 20.3672C4.03906 20.7734 4.53125 20.9766 5.10938 20.9766H7.96875C8.10938 20.9766 8.24609 21.0039 8.37891 21.0586C8.51172 21.1133 8.625 21.1875 8.71875 21.2812L10.5234 23.0859C10.9297 23.4922 11.4219 23.6953 12 23.6953C12.5781 23.6953 13.0703 23.4922 13.4766 23.0859L15.2812 21.2812C15.375 21.1875 15.4883 21.1133 15.6211 21.0586C15.7539 21.0039 15.8906 20.9766 16.0312 20.9766H18.8906C19.4688 20.9766 19.9609 20.7734 20.3672 20.3672C20.7734 19.9609 20.9766 19.4688 20.9766 18.8906V16.0312C20.9766 15.8906 21.0039 15.7539 21.0586 15.6211C21.1133 15.4883 21.1875 15.375 21.2812 15.2812L23.0859 13.4766C23.4922 13.0703 23.6953 12.5781 23.6953 12C23.6953 11.4219 23.4922 10.9297 23.0859 10.5234L21.2812 8.71875C21.1875 8.625 21.1133 8.51172 21.0586 8.37891C21.0039 8.24609 20.9766 8.10156 20.9766 7.94531V5.10938C20.9766 4.53125 20.7734 4.03906 20.3672 3.63281C19.9609 3.22656 19.4688 3.02344 18.8906 3.02344H16.0312C15.8906 3.02344 15.7539 2.99609 15.6211 2.94141C15.4883 2.88672 15.375 2.8125 15.2812 2.71875L13.4766 0.914062C13.0703 0.507812 12.5781 0.304688 12 0.304688C11.4219 0.304688 10.9297 0.507812 10.5234 0.914062ZM7.64062 15.6328L8.34375 16.3594L16.3594 8.34375L15.6562 7.64062L7.64062 15.6328ZM7.99219 8.29688V9.30469H9.60938V8.29688H7.99219ZM16.0078 15.7031V14.6953H14.3906V15.7031H16.0078Z" fill="#1E1E1E"/>
</g>
<defs>
<clipPath id="clip0_1733_4201">
<rect width="24" height="24" fill="white"/>
</clipPath>
</defs>
</svg>
