<svg width="24" height="24" viewBox="0 0 24 24" fill="none" xmlns="http://www.w3.org/2000/svg">
<g clip-path="url(#clip0_1733_4230)">
<path d="M13.2125 23.4075H10.7875C10.135 23.4075 9.60378 22.8763 9.60378 22.225V20.0513L8.00003 19.3875L6.46253 20.925C6.24003 21.1475 5.94253 21.27 5.62628 21.27C5.31003 21.27 5.01253 21.1475 4.79003 20.925L3.07628 19.2113C2.61503 18.75 2.61503 17.9988 3.07628 17.5375L4.61378 16L3.95003 14.3963H1.77628C1.12378 14.3963 0.592529 13.865 0.592529 13.2138V10.7888C0.592529 10.1363 1.12378 9.60628 1.77628 9.60628H3.95003L4.61378 8.00253L3.07628 6.46503C2.85378 6.24253 2.73128 5.94503 2.73128 5.62878C2.73128 5.31253 2.85378 5.01503 3.07628 4.79253L4.79003 3.07878C5.01253 2.85628 5.31003 2.73378 5.62628 2.73378C5.94253 2.73378 6.24003 2.85628 6.46253 3.07878L8.00003 4.61628L9.60378 3.95253V1.77628C9.60378 1.12378 10.135 0.592529 10.7875 0.592529H13.2125C13.865 0.592529 14.3963 1.12378 14.3963 1.77628V3.95003L16 4.61378L17.5375 3.07628C17.76 2.85378 18.0575 2.73128 18.3738 2.73128C18.69 2.73128 18.9875 2.85378 19.21 3.07628L20.9238 4.79003C21.1463 5.01253 21.2688 5.31003 21.2688 5.62628C21.2688 5.94253 21.1463 6.24003 20.9238 6.46253L19.3863 8.00003L20.05 9.60378H22.2238C22.8763 9.60378 23.4075 10.135 23.4075 10.7863V13.2113C23.4075 13.8638 22.8763 14.3938 22.2238 14.3938H20.05L19.3863 15.9975L20.9238 17.535C21.385 17.9963 21.385 18.7475 20.9238 19.2088L19.21 20.9225C18.9875 21.145 18.69 21.2675 18.3738 21.2675C18.0575 21.2675 17.76 21.145 17.5375 20.9225L16 19.385L14.3963 20.0488V22.2225C14.3963 22.875 13.865 23.405 13.2125 23.4075ZM7.82503 18.5013L10.3538 19.5488V22.2238C10.3538 22.4625 10.5475 22.6563 10.7875 22.6563H13.2125C13.4513 22.6563 13.6463 22.4625 13.6463 22.2238V19.5488L16.175 18.5013L18.0663 20.3925C18.2288 20.555 18.5163 20.555 18.6788 20.3925L20.3925 18.6788C20.5613 18.51 20.5613 18.235 20.3925 18.0663L18.5013 16.175L19.5488 13.645H22.2238C22.4625 13.645 22.6575 13.4513 22.6575 13.2125V10.7875C22.6575 10.5488 22.4638 10.355 22.2238 10.355H19.5488L18.5013 7.82628L20.3925 5.93503C20.4738 5.85378 20.5188 5.74503 20.5188 5.62878C20.5188 5.51253 20.4738 5.40378 20.3925 5.32253L18.6788 3.60753C18.5163 3.44503 18.2288 3.44503 18.0663 3.60753L16.175 5.49878L13.6463 4.45128V1.77628C13.6463 1.53753 13.4525 1.34253 13.2125 1.34253H10.7875C10.5488 1.34253 10.3538 1.53628 10.3538 1.77628V4.45128L7.82503 5.49878L5.93378 3.60753C5.77128 3.44503 5.48378 3.44503 5.32128 3.60753L3.60753 5.32128C3.52628 5.40253 3.48128 5.51128 3.48128 5.62753C3.48128 5.74378 3.52628 5.85253 3.60753 5.93378L5.49878 7.82503L4.45128 10.3538H1.77628C1.53753 10.3538 1.34253 10.5475 1.34253 10.7863V13.2113C1.34253 13.45 1.53628 13.6438 1.77628 13.6438H4.45128L5.49878 16.1738L3.60753 18.065C3.43878 18.2338 3.43878 18.5088 3.60753 18.6775L5.32128 20.3913C5.48378 20.5538 5.77128 20.5538 5.93378 20.3913L7.82503 18.5013Z" fill="#1E1E1E"/>
<path d="M11.8126 17.1813C8.95635 17.1813 6.63135 14.8576 6.63135 12.0001C6.63135 9.1426 8.9551 6.81885 11.8126 6.81885C14.6701 6.81885 16.9938 9.1426 16.9938 12.0001C16.9938 14.8576 14.6701 17.1813 11.8126 17.1813ZM11.8126 7.56885C9.36885 7.56885 7.38135 9.55635 7.38135 12.0001C7.38135 14.4438 9.36885 16.4313 11.8126 16.4313C14.2563 16.4313 16.2438 14.4438 16.2438 12.0001C16.2438 9.55635 14.2563 7.56885 11.8126 7.56885Z" fill="#1E1E1E"/>
</g>
<defs>
<clipPath id="clip0_1733_4230">
<rect width="24" height="24" fill="white"/>
</clipPath>
</defs>
</svg>
