<svg width="25" height="25" viewBox="0 0 25 25" fill="none" xmlns="http://www.w3.org/2000/svg">
<path d="M16.9242 10.5306C16.9242 10.6304 16.8846 10.726 16.8141 10.7966C16.7436 10.8671 16.6479 10.9067 16.5482 10.9067H9.02621C8.92646 10.9067 8.8308 10.8671 8.76027 10.7966C8.68974 10.726 8.65011 10.6304 8.65011 10.5306C8.65011 10.4309 8.68974 10.3352 8.76027 10.2647C8.8308 10.1941 8.92646 10.1545 9.02621 10.1545H16.5482C16.6479 10.1545 16.7436 10.1941 16.8141 10.2647C16.8846 10.3352 16.9242 10.4309 16.9242 10.5306ZM16.5482 13.1633H9.02621C8.92646 13.1633 8.8308 13.2029 8.76027 13.2735C8.68974 13.344 8.65011 13.4396 8.65011 13.5394C8.65011 13.6391 8.68974 13.7348 8.76027 13.8053C8.8308 13.8759 8.92646 13.9155 9.02621 13.9155H16.5482C16.6479 13.9155 16.7436 13.8759 16.8141 13.8053C16.8846 13.7348 16.9242 13.6391 16.9242 13.5394C16.9242 13.4396 16.8846 13.344 16.8141 13.2735C16.7436 13.2029 16.6479 13.1633 16.5482 13.1633ZM21.4374 6.01745V17.3004C21.4374 17.7991 21.2393 18.2774 20.8866 18.6301C20.534 18.9827 20.0557 19.1808 19.5569 19.1808H3.00866C2.51122 19.1809 2.03405 18.9838 1.68161 18.6327C1.32916 18.2817 1.13016 17.8053 1.12817 17.3079V8.27403C1.12817 8.17429 1.1678 8.07862 1.23833 8.00809C1.30886 7.93756 1.40452 7.89794 1.50427 7.89794C1.60402 7.89794 1.69968 7.93756 1.77021 8.00809C1.84074 8.07862 1.88037 8.17429 1.88037 8.27403V17.3004C1.88037 17.5996 1.99924 17.8866 2.21084 18.0982C2.42243 18.3098 2.70942 18.4287 3.00866 18.4287C3.3079 18.4287 3.59489 18.3098 3.80648 18.0982C4.01808 17.8866 4.13695 17.5996 4.13695 17.3004V6.01745C4.13695 5.71821 4.25582 5.43122 4.46742 5.21963C4.67901 5.00803 4.966 4.88916 5.26524 4.88916H20.3091C20.6084 4.88916 20.8953 5.00803 21.1069 5.21963C21.3185 5.43122 21.4374 5.71821 21.4374 6.01745ZM20.6852 6.01745C20.6852 5.9177 20.6456 5.82204 20.5751 5.75151C20.5045 5.68098 20.4089 5.64135 20.3091 5.64135H5.26524C5.16549 5.64135 5.06983 5.68098 4.9993 5.75151C4.92877 5.82204 4.88914 5.9177 4.88914 6.01745V17.3004C4.8901 17.7074 4.75803 18.1036 4.51305 18.4287H19.5569C19.8562 18.4287 20.1432 18.3098 20.3547 18.0982C20.5663 17.8866 20.6852 17.5996 20.6852 17.3004V6.01745Z" fill="#393A3B"/>
</svg>
