<svg width="24" height="24" viewBox="0 0 24 24" fill="none" xmlns="http://www.w3.org/2000/svg">
<g clip-path="url(#clip0_1733_4146)">
<path d="M9.01123 12.8237C11.0275 12.8237 12.6675 11.1837 12.6675 9.16748C12.6675 7.15123 11.0275 5.51123 9.01123 5.51123C6.99498 5.51123 5.35498 7.15123 5.35498 9.16748C5.35498 11.1837 6.99498 12.8237 9.01123 12.8237ZM9.01123 6.26123C10.6137 6.26123 11.9175 7.56498 11.9175 9.16748C11.9175 10.77 10.6137 12.0737 9.01123 12.0737C7.40873 12.0737 6.10498 10.77 6.10498 9.16748C6.10498 7.56498 7.40873 6.26123 9.01123 6.26123Z" fill="#1E1E1E"/>
<path d="M0.75 3.59253V20.4075H23.25V3.59253H0.75ZM13.5075 19.6575H4.51375V16.695C4.51375 15.6388 5.3725 14.78 6.42875 14.78H11.5925C12.6487 14.78 13.5075 15.6388 13.5075 16.695V19.6575ZM22.5 19.6575H14.2575V16.695C14.2575 15.225 13.0625 14.03 11.5925 14.03H6.42875C4.95875 14.03 3.76375 15.2263 3.76375 16.695V19.6575H1.5V4.34253H22.5V19.6575Z" fill="#1E1E1E"/>
<path d="M21.0963 7.72363H14.9775V8.47363H21.0963V7.72363Z" fill="#1E1E1E"/>
<path d="M21.0963 11.625H14.9775V12.375H21.0963V11.625Z" fill="#1E1E1E"/>
</g>
<defs>
<clipPath id="clip0_1733_4146">
<rect width="24" height="24" fill="white"/>
</clipPath>
</defs>
</svg>
