<svg width="24" height="24" viewBox="0 0 24 24" fill="none" xmlns="http://www.w3.org/2000/svg">
<g clip-path="url(#clip0_1733_4159)">
<path d="M9.86891 11.7862C6.82516 11.7862 4.34766 9.3099 4.34766 6.2649C4.34766 3.2199 6.82516 0.743652 9.86891 0.743652C12.9127 0.743652 15.3902 3.2199 15.3902 6.2649C15.3902 9.3099 12.9139 11.7862 9.86891 11.7862ZM9.86891 1.49365C7.23766 1.49365 5.09766 3.63365 5.09766 6.2649C5.09766 8.89615 7.23766 11.0362 9.86891 11.0362C12.5002 11.0362 14.6402 8.89615 14.6402 6.2649C14.6402 3.63365 12.5002 1.49365 9.86891 1.49365Z" fill="#1E1E1E"/>
<path d="M17.885 23.2563H17.135V18.0713C17.135 16.2975 15.6913 14.8538 13.9175 14.8538H5.82004C4.04629 14.8538 2.60254 16.2975 2.60254 18.0713V23.2563H1.85254V18.0713C1.85254 15.8838 3.63254 14.1038 5.82004 14.1038H13.9188C16.1063 14.1038 17.8863 15.8838 17.8863 18.0713L17.885 23.2563Z" fill="#1E1E1E"/>
<path d="M22.1476 11.4111H16.9551V12.1611H22.1476V11.4111Z" fill="#1E1E1E"/>
<path d="M19.9263 9.18994H19.1763V14.3824H19.9263V9.18994Z" fill="#1E1E1E"/>
</g>
<defs>
<clipPath id="clip0_1733_4159">
<rect width="24" height="24" fill="white"/>
</clipPath>
</defs>
</svg>
