<svg width="24" height="24" viewBox="0 0 24 24" fill="none" xmlns="http://www.w3.org/2000/svg">
<g clip-path="url(#clip0_1733_4148)">
<path d="M9.10547 4.27734C9.62891 4.80078 9.89062 5.42969 9.89062 6.16406C9.89062 6.89844 9.62891 7.52734 9.10547 8.05078C8.58203 8.57422 7.94531 8.83594 7.19531 8.83594C6.44531 8.83594 5.80859 8.57422 5.28516 8.05078C4.76172 7.52734 4.5 6.89844 4.5 6.16406C4.5 5.42969 4.76172 4.80078 5.28516 4.27734C5.80859 3.75391 6.44531 3.49219 7.19531 3.49219C7.94531 3.49219 8.58203 3.75391 9.10547 4.27734ZM3.53906 5.67188H0V6.65625H3.53906C3.66406 7.5625 4.07031 8.32031 4.75781 8.92969C5.44531 9.53906 6.25781 9.84375 7.19531 9.84375C8.13281 9.84375 8.94922 9.53906 9.64453 8.92969C10.3398 8.32031 10.75 7.5625 10.875 6.65625H24V5.67188H10.875C10.75 4.76562 10.3398 4.01172 9.64453 3.41016C8.94922 2.80859 8.13281 2.50781 7.19531 2.50781C6.25781 2.50781 5.44531 2.80859 4.75781 3.41016C4.07031 4.01172 3.66406 4.76562 3.53906 5.67188ZM18.7148 16.957C19.2383 17.4805 19.5 18.1094 19.5 18.8438C19.5 19.5781 19.2383 20.2031 18.7148 20.7188C18.1914 21.2344 17.5547 21.4922 16.8047 21.4922C16.0547 21.4922 15.418 21.2344 14.8945 20.7188C14.3711 20.2031 14.1094 19.5781 14.1094 18.8438C14.1094 18.1094 14.3711 17.4805 14.8945 16.957C15.418 16.4336 16.0547 16.1719 16.8047 16.1719C17.5547 16.1719 18.1914 16.4336 18.7148 16.957ZM13.125 18.3281H0V19.3359H13.125C13.25 20.2266 13.6602 20.9766 14.3555 21.5859C15.0508 22.1953 15.8672 22.5 16.8047 22.5C17.7422 22.5 18.5547 22.1953 19.2422 21.5859C19.9297 20.9766 20.3359 20.2266 20.4609 19.3359H24V18.3281H20.4609C20.3359 17.4375 19.9297 16.6875 19.2422 16.0781C18.5547 15.4688 17.7422 15.1641 16.8047 15.1641C15.8672 15.1641 15.0508 15.4688 14.3555 16.0781C13.6602 16.6875 13.25 17.4375 13.125 18.3281Z" fill="#1E1E1E"/>
</g>
<defs>
<clipPath id="clip0_1733_4148">
<rect width="24" height="24" fill="white"/>
</clipPath>
</defs>
</svg>
