<svg width="24" height="24" viewBox="0 0 24 24" fill="none" xmlns="http://www.w3.org/2000/svg">
<g clip-path="url(#clip0_1733_4136)">
<path d="M11.9998 11.8299C9.79979 11.8299 8.00854 10.0399 8.00854 7.83866C8.00854 5.63741 9.79854 3.84741 11.9998 3.84741C14.201 3.84741 15.991 5.63741 15.991 7.83866C15.991 10.0399 14.201 11.8299 11.9998 11.8299ZM11.9998 4.59741C10.2123 4.59741 8.75854 6.05116 8.75854 7.83866C8.75854 9.62616 10.2123 11.0799 11.9998 11.0799C13.7873 11.0799 15.241 9.62616 15.241 7.83866C15.241 6.05116 13.7873 4.59741 11.9998 4.59741Z" fill="#1E1E1E"/>
<path d="M16.7149 19.7773H15.9649V16.1348C15.9649 14.9498 15.0011 13.9861 13.8161 13.9861H10.1849C8.99988 13.9861 8.03613 14.9498 8.03613 16.1348V19.7773H7.28613V16.1348C7.28613 14.5361 8.58613 13.2361 10.1849 13.2361H13.8161C15.4149 13.2361 16.7149 14.5361 16.7149 16.1348V19.7773Z" fill="#1E1E1E"/>
<path d="M11.9999 23.4337C5.69491 23.4337 0.566162 18.3049 0.566162 11.9999C0.566162 5.69491 5.69491 0.566162 11.9999 0.566162C18.3049 0.566162 23.4337 5.69491 23.4337 11.9999C23.4337 18.3049 18.3049 23.4337 11.9999 23.4337ZM11.9999 1.31616C6.10866 1.31616 1.31616 6.10866 1.31616 11.9999C1.31616 17.8912 6.10866 22.6837 11.9999 22.6837C17.8912 22.6837 22.6837 17.8912 22.6837 11.9999C22.6837 6.10866 17.8912 1.31616 11.9999 1.31616Z" fill="#1E1E1E"/>
</g>
<defs>
<clipPath id="clip0_1733_4136">
<rect width="24" height="24" fill="white"/>
</clipPath>
</defs>
</svg>
