<svg width="24" height="24" viewBox="0 0 24 24" fill="none" xmlns="http://www.w3.org/2000/svg">
<g clip-path="url(#clip0_1733_4161)">
<path d="M23.25 1.3125V18.1172H14.8828C14.8203 18.1953 14.7539 18.2656 14.6836 18.3281C14.6133 18.3906 14.5391 18.4531 14.4609 18.5156V22.9922L12.0938 21.5625L9.53906 22.9453V18.5391C9.46094 18.4609 9.38672 18.3906 9.31641 18.3281C9.24609 18.2656 9.17969 18.1953 9.11719 18.1172H0.75V1.3125H23.25ZM13.7109 21.6562V19.0312C13.4609 19.1562 13.1914 19.2578 12.9023 19.3359C12.6133 19.4141 12.3125 19.4531 12 19.4531C11.6875 19.4531 11.3867 19.4141 11.0977 19.3359C10.8086 19.2578 10.5391 19.1562 10.2891 19.0312V21.7031L12.0938 20.6953L13.7109 21.6562ZM14.1328 17.8125C14.7266 17.2188 15.0234 16.5078 15.0234 15.6797C15.0234 14.8359 14.7266 14.1172 14.1328 13.5234C13.5391 12.9297 12.8281 12.6328 12 12.6328C11.1719 12.6328 10.4609 12.9297 9.86719 13.5234C9.27344 14.1172 8.97656 14.8359 8.97656 15.6797C8.97656 16.5078 9.27344 17.2188 9.86719 17.8125C10.4609 18.4062 11.1719 18.7031 12 18.7031C12.8281 18.7031 13.5391 18.4062 14.1328 17.8125ZM22.5 17.3672V2.03906H1.5V17.3672H8.625C8.5 17.1172 8.40234 16.8477 8.33203 16.5586C8.26172 16.2695 8.22656 15.9766 8.22656 15.6797C8.22656 14.6328 8.59375 13.7383 9.32812 12.9961C10.0625 12.2539 10.9531 11.8828 12 11.8828C13.0469 11.8828 13.9375 12.2539 14.6719 12.9961C15.4062 13.7383 15.7734 14.6328 15.7734 15.6797C15.7734 15.9766 15.7383 16.2695 15.668 16.5586C15.5977 16.8477 15.5 17.1172 15.375 17.3672H22.5ZM4.19531 6.1875H19.8047V5.4375H4.19531V6.1875ZM4.19531 10.0781H19.8047V9.32812H4.19531V10.0781Z" fill="#1E1E1E"/>
</g>
<defs>
<clipPath id="clip0_1733_4161">
<rect width="24" height="24" fill="white"/>
</clipPath>
</defs>
</svg>
