<svg width="27" height="24" viewBox="0 0 27 24" fill="none" xmlns="http://www.w3.org/2000/svg">
<g clip-path="url(#clip0_1733_4133)">
<path d="M24.102 21.091L24.2892 21.9801L24.1002 21.091H24.102ZM24.102 2.04371L24.2892 1.15462L24.1002 2.04371H24.102ZM11.7 7.93102L12.1986 7.17458C12.0631 7.08349 11.9056 7.03124 11.7431 7.02338C11.5804 7.01553 11.4187 7.0524 11.2752 7.12996C11.1317 7.20764 11.0117 7.32305 10.928 7.46411C10.8443 7.60516 10.8001 7.76651 10.8 7.93102H11.7ZM11.7 15.2037H10.8C10.8001 15.3682 10.8443 15.5294 10.928 15.6705C11.0117 15.8115 11.1317 15.9271 11.2752 16.0046C11.4187 16.0823 11.5804 16.1192 11.7431 16.1113C11.9056 16.1035 12.0631 16.0512 12.1986 15.96L11.7 15.2037ZM17.1 11.5673L17.5986 12.3237C17.7218 12.2407 17.8229 12.1282 17.8928 11.9963C17.9628 11.8643 17.9993 11.717 17.9993 11.5673C17.9993 11.4177 17.9628 11.2703 17.8928 11.1384C17.8229 11.0065 17.7218 10.8939 17.5986 10.8109L17.1 11.5673ZM3.24913e-08 4.54189V18.5928H1.80004V4.54189H3.24913e-08ZM27 18.5928V4.54189H25.2V18.5928H27ZM2.7108 21.9801C9.8226 23.52 17.1774 23.52 24.2892 21.9801L23.9112 20.2019C17.0483 21.6874 9.95166 21.6874 3.0888 20.2019L2.7108 21.9801ZM24.2892 1.15462C17.1772 -0.384873 9.82282 -0.384873 2.7108 1.15462L3.0888 2.9328C9.95166 1.44742 17.0483 1.44742 23.9112 2.9328L24.2892 1.15462ZM27 4.54189C27 2.90913 25.8696 1.4964 24.2892 1.15462L23.9112 2.9328C24.6636 3.09644 25.2 3.76549 25.2 4.54189H27ZM25.2 18.5928C25.2 18.9695 25.072 19.3347 24.8374 19.6276C24.6028 19.9205 24.2759 20.1232 23.9112 20.2019L24.2892 21.9801C25.0565 21.814 25.7443 21.3872 26.2376 20.7707C26.731 20.1542 27.0001 19.3855 27 18.5928H25.2ZM3.24913e-08 18.5928C3.24913e-08 20.2255 1.13044 21.6382 2.7108 21.9801L3.0888 20.2019C2.72408 20.1232 2.39717 19.9205 2.16259 19.6276C1.92802 19.3347 1.80004 18.9695 1.80004 18.5928H3.24913e-08ZM1.80004 4.54189C1.80004 3.76549 2.33636 3.09458 3.0888 2.9328L2.7108 1.15462C1.94346 1.32065 1.25572 1.74753 0.762372 2.364C0.269028 2.98047 -0.000107968 3.74924 3.24913e-08 4.54189H1.80004ZM10.8 7.93102V15.2037H12.6V7.93102H10.8ZM12.1986 15.96L17.5986 12.3237L16.6014 10.8109L11.2014 14.4473L12.1986 15.96ZM17.5986 10.8109L12.1986 7.17458L11.2014 8.68735L16.6014 12.3237L17.5986 10.8109Z" fill="#1E1E1E"/>
</g>
<defs>
<clipPath id="clip0_1733_4133">
<rect width="27" height="24" fill="white"/>
</clipPath>
</defs>
</svg>
