<svg width="20" height="24" viewBox="0 0 20 24" fill="none" xmlns="http://www.w3.org/2000/svg">
<g clip-path="url(#clip0_1733_4135)">
<path d="M14.1666 3.30473V1.16815L11.3839 1.16807C11.136 0.4752 10.4884 0 9.73957 0C8.99079 0 8.34314 0.4752 8.09521 1.16815L5.3125 1.16807V3.30473H0V23.7524H19.4791V3.30473H14.1666ZM6.07143 1.94087L8.70743 1.9408L8.76057 1.6176C8.84029 1.12815 9.25257 0.772727 9.73957 0.772727C10.2266 0.772727 10.6389 1.12815 10.7186 1.6176L10.7717 1.9408H13.4077V4.98153H6.07143V1.94087ZM18.7202 22.9783H0.758929V4.07745H5.3125V5.75425H14.1666V4.07745H18.7202V22.9796V22.9783Z" fill="#1E1E1E"/>
<path d="M16.7964 10.3661L16.3043 9.77881L7.99659 17L4.86094 13.5691L4.30444 14.0958L7.74109 17.8551L7.74744 17.8499L7.93337 18.0715L16.7964 10.3661Z" fill="#1E1E1E"/>
</g>
<defs>
<clipPath id="clip0_1733_4135">
<rect width="20" height="24" fill="white"/>
</clipPath>
</defs>
</svg>
