<svg width="24" height="24" viewBox="0 0 24 24" fill="none" xmlns="http://www.w3.org/2000/svg">
<g clip-path="url(#clip0_1733_4152)">
<path d="M0 12C0 13.5938 0.289062 15.0938 0.867188 16.5C1.44531 17.9062 2.23828 19.1445 3.24609 20.2148C4.25391 21.2852 5.44531 22.1562 6.82031 22.8281C8.17969 23.4844 9.64062 23.8672 11.2031 23.9766V14.3906H7.99219V12.7969H11.2031V10.4062C11.2031 9.29688 11.5938 8.35156 12.375 7.57031C13.1562 6.78906 14.1016 6.39844 15.2109 6.39844H16.0078V7.99219H15.2109C14.5391 7.99219 13.9688 8.22656 13.5 8.69531C13.0312 9.16406 12.7969 9.73438 12.7969 10.4062V12.7969H16.0078V14.3906H12.7969V23.9766C14.3594 23.8672 15.8203 23.4844 17.1797 22.8281C18.5547 22.1562 19.7461 21.2852 20.7539 20.2148C21.7617 19.1445 22.5547 17.9062 23.1328 16.5C23.7109 15.0938 24 13.5938 24 12C24 10.3438 23.6875 8.78906 23.0625 7.33594C22.4375 5.86719 21.582 4.58984 20.4961 3.50391C19.4102 2.41797 18.1328 1.5625 16.6641 0.9375C15.2109 0.3125 13.6562 0 12 0C10.3438 0 8.78906 0.3125 7.33594 0.9375C5.86719 1.5625 4.58984 2.41797 3.50391 3.50391C2.41797 4.58984 1.5625 5.86719 0.9375 7.33594C0.3125 8.78906 0 10.3438 0 12Z" fill="#1E1E1E"/>
</g>
<defs>
<clipPath id="clip0_1733_4152">
<rect width="24" height="24" fill="white"/>
</clipPath>
</defs>
</svg>
