<svg width="24" height="24" viewBox="0 0 24 24" fill="none" xmlns="http://www.w3.org/2000/svg">
<path d="M14.7891 1.45312C14.6953 1.45312 14.6016 1.47266 14.5078 1.51172C14.4141 1.55078 14.3359 1.60156 14.2734 1.66406L1.45312 14.4844V21.7969C1.45312 22 1.52734 22.1758 1.67578 22.3242C1.82422 22.4727 2 22.5469 2.20312 22.5469H9.51562L22.3359 9.72656C22.4766 9.58594 22.5469 9.41016 22.5469 9.19922C22.5469 8.98828 22.4766 8.8125 22.3359 8.67188L15.3281 1.66406C15.2656 1.60156 15.1875 1.55078 15.0938 1.51172C15 1.47266 14.8984 1.45312 14.7891 1.45312ZM2.95312 15.1172L10.5938 7.45312L16.5469 13.4062L8.88281 21.0469H2.95312V15.1172ZM14.7891 3.25781L20.7422 9.21094L17.6016 12.3281L11.6719 6.39844L14.7891 3.25781ZM22.5 21.0469H12.7031V22.5469H22.5V21.0469Z" fill="#1E1E1E"/>
</svg>
