<svg width="29" height="24" viewBox="0 0 29 24" fill="none" xmlns="http://www.w3.org/2000/svg">
<g clip-path="url(#clip0_1733_4137)">
<path d="M23.2753 6.10257H19.9498C19.9014 5.49944 19.7542 4.43447 19.3129 3.35614C18.414 1.15972 16.7472 0 14.4936 0C12.2399 0 10.5731 1.16139 9.67419 3.35614C9.23287 4.43447 9.0857 5.49944 9.03723 6.10257H5.72139C2.56567 6.10257 0 8.74101 0 11.9826V24H29V11.9826C29 8.73934 26.4327 6.10257 23.2786 6.10257H23.2753ZM14.4919 0.996835C18.1941 0.996835 18.8586 4.72195 18.9782 6.10257H10.0056C10.1252 4.72195 10.7898 0.996835 14.4919 0.996835ZM28.0267 23.0047H0.966736V11.9842C0.966736 9.29092 3.09917 7.10118 5.71818 7.10118H23.2737C25.8943 7.10118 28.0252 9.29259 28.0252 11.9842V23.0047H28.0267Z" fill="#1E1E1E"/>
</g>
<defs>
<clipPath id="clip0_1733_4137">
<rect width="29" height="24" fill="white"/>
</clipPath>
</defs>
</svg>
