<svg width="24" height="24" viewBox="0 0 24 24" fill="none" xmlns="http://www.w3.org/2000/svg">
<g clip-path="url(#clip0_1733_4185)">
<path d="M0.304688 7.19531C0.304688 8.22656 0.664062 9.10156 1.38281 9.82031C2.10156 10.5391 2.97656 10.8984 4.00781 10.8984C5.02344 10.8984 5.89453 10.5391 6.62109 9.82031C7.34766 9.10156 7.71094 8.22656 7.71094 7.19531V2.39062C7.71094 1.8125 7.50391 1.32031 7.08984 0.914062C6.67578 0.507812 6.17969 0.304688 5.60156 0.304688C5.02344 0.304688 4.52734 0.507812 4.11328 0.914062C3.69922 1.32031 3.49219 1.8125 3.49219 2.39062V7.99219H4.5V2.39062C4.5 2.09375 4.60547 1.83594 4.81641 1.61719C5.02734 1.39844 5.28906 1.28906 5.60156 1.28906C5.89844 1.28906 6.15625 1.39844 6.375 1.61719C6.59375 1.83594 6.70312 2.09375 6.70312 2.39062V7.19531C6.70312 7.94531 6.4375 8.58203 5.90625 9.10547C5.375 9.62891 4.74219 9.89062 4.00781 9.89062C3.25781 9.89062 2.61719 9.62891 2.08594 9.10547C1.55469 8.58203 1.28906 7.94531 1.28906 7.19531V0H0.304688V7.19531ZM20.7773 1.61719C20.9883 1.83594 21.0938 2.09375 21.0938 2.39062V21.6094C21.0938 21.9062 20.9883 22.1641 20.7773 22.3828C20.5664 22.6016 20.3047 22.7109 19.9922 22.7109H4.00781C3.69531 22.7109 3.43359 22.6016 3.22266 22.3828C3.01172 22.1641 2.90625 21.9062 2.90625 21.6094V12.7969H1.89844V21.6094C1.89844 22.1875 2.10547 22.6797 2.51953 23.0859C2.93359 23.4922 3.42969 23.6953 4.00781 23.6953H19.9922C20.5703 23.6953 21.0664 23.4922 21.4805 23.0859C21.8945 22.6797 22.1016 22.1875 22.1016 21.6094V2.39062C22.1016 1.8125 21.8945 1.32031 21.4805 0.914062C21.0664 0.507812 20.5703 0.304688 19.9922 0.304688H9.60938V1.28906H19.9922C20.3047 1.28906 20.5664 1.39844 20.7773 1.61719ZM11.2031 6.70312V7.71094H17.6016V6.70312H11.2031ZM11.2031 11.5078V12.4922H17.6016V11.5078H11.2031ZM6.39844 16.2891V17.2969H17.6016V16.2891H6.39844Z" fill="#1E1E1E"/>
</g>
<defs>
<clipPath id="clip0_1733_4185">
<rect width="24" height="24" fill="white"/>
</clipPath>
</defs>
</svg>
