<svg width="24" height="24" viewBox="0 0 24 24" fill="none" xmlns="http://www.w3.org/2000/svg">
<g clip-path="url(#clip0_1733_4172)">
<path d="M2.25 1.54688C2.03125 1.54688 1.81641 1.58984 1.60547 1.67578C1.39453 1.76172 1.20312 1.88281 1.03125 2.03906C0.875 2.19531 0.753906 2.37891 0.667969 2.58984C0.582031 2.80078 0.539062 3.02344 0.539062 3.25781V18.2578C0.539062 18.8047 0.644531 19.3359 0.855469 19.8516C1.06641 20.3672 1.375 20.8281 1.78125 21.2344C2.17188 21.625 2.625 21.9258 3.14062 22.1367C3.65625 22.3477 4.19531 22.4531 4.75781 22.4531H18.4922C18.8828 22.4531 19.2617 22.3789 19.6289 22.2305C19.9961 22.082 20.3203 21.8672 20.6016 21.5859C20.8672 21.3203 21.0781 21.0039 21.2344 20.6367C21.3906 20.2695 21.4688 19.8906 21.4688 19.5V5.74219C21.4688 5.52344 21.4219 5.30859 21.3281 5.09766C21.2344 4.88672 21.1094 4.70312 20.9531 4.54688C20.7969 4.39062 20.6133 4.26562 20.4023 4.17188C20.1914 4.07812 19.9766 4.03125 19.7578 4.03125H16.4531V3.25781C16.4531 3.02344 16.4102 2.80078 16.3242 2.58984C16.2383 2.37891 16.1172 2.19531 15.9609 2.03906C15.8047 1.88281 15.6211 1.76172 15.4102 1.67578C15.1992 1.58984 14.9766 1.54688 14.7422 1.54688H2.25ZM4.75781 21.5391C4.32031 21.5391 3.89844 21.457 3.49219 21.293C3.08594 21.1289 2.72656 20.8906 2.41406 20.5781C2.11719 20.2656 1.88281 19.9102 1.71094 19.5117C1.53906 19.1133 1.45312 18.6953 1.45312 18.2578V3.25781C1.45312 3.14844 1.47266 3.04688 1.51172 2.95312C1.55078 2.85938 1.60938 2.77344 1.6875 2.69531C1.76562 2.61719 1.85156 2.55859 1.94531 2.51953C2.03906 2.48047 2.14062 2.46094 2.25 2.46094H14.7422C14.8516 2.46094 14.9531 2.48047 15.0469 2.51953C15.1406 2.55859 15.2266 2.61719 15.3047 2.69531C15.3828 2.77344 15.4414 2.85938 15.4805 2.95312C15.5195 3.04688 15.5391 3.14844 15.5391 3.25781V19.5C15.5391 19.875 15.6094 20.2422 15.75 20.6016C15.8906 20.9609 16.0938 21.2734 16.3594 21.5391H4.75781ZM16.4531 19.5V4.96875H19.7578C19.8516 4.96875 19.9492 4.98828 20.0508 5.02734C20.1523 5.06641 20.2422 5.11719 20.3203 5.17969C20.3828 5.25781 20.4336 5.34766 20.4727 5.44922C20.5117 5.55078 20.5312 5.64844 20.5312 5.74219V19.5C20.5312 19.7656 20.4805 20.0234 20.3789 20.2734C20.2773 20.5234 20.1328 20.75 19.9453 20.9531C19.7578 21.1406 19.5391 21.2852 19.2891 21.3867C19.0391 21.4883 18.7734 21.5391 18.4922 21.5391C18.2266 21.5391 17.9688 21.4883 17.7188 21.3867C17.4688 21.2852 17.25 21.1406 17.0625 20.9531C16.8594 20.75 16.707 20.5234 16.6055 20.2734C16.5039 20.0234 16.4531 19.7656 16.4531 19.5ZM6 6.53906C5.875 6.53906 5.76562 6.58594 5.67188 6.67969C5.57812 6.77344 5.53125 6.88281 5.53125 7.00781C5.53125 7.13281 5.57812 7.23828 5.67188 7.32422C5.76562 7.41016 5.875 7.45312 6 7.45312H10.9922C11.1172 7.45312 11.2266 7.41016 11.3203 7.32422C11.4141 7.23828 11.4609 7.13281 11.4609 7.00781C11.4609 6.88281 11.4141 6.77344 11.3203 6.67969C11.2266 6.58594 11.1172 6.53906 10.9922 6.53906H6ZM5.53125 12C5.53125 11.875 5.57812 11.7656 5.67188 11.6719C5.76562 11.5781 5.875 11.5312 6 11.5312H10.9922C11.1172 11.5312 11.2266 11.5781 11.3203 11.6719C11.4141 11.7656 11.4609 11.875 11.4609 12C11.4609 12.125 11.4141 12.2344 11.3203 12.3281C11.2266 12.4219 11.1172 12.4688 10.9922 12.4688H6C5.875 12.4688 5.76562 12.4219 5.67188 12.3281C5.57812 12.2344 5.53125 12.125 5.53125 12ZM6 16.5469C5.875 16.5469 5.76562 16.5898 5.67188 16.6758C5.57812 16.7617 5.53125 16.8672 5.53125 16.9922C5.53125 17.1172 5.57812 17.2266 5.67188 17.3203C5.76562 17.4141 5.875 17.4609 6 17.4609H10.9922C11.1172 17.4609 11.2266 17.4141 11.3203 17.3203C11.4141 17.2266 11.4609 17.1172 11.4609 16.9922C11.4609 16.8672 11.4141 16.7617 11.3203 16.6758C11.2266 16.5898 11.1172 16.5469 10.9922 16.5469H6Z" fill="#1E1E1E"/>
</g>
<defs>
<clipPath id="clip0_1733_4172">
<rect width="24" height="24" fill="white"/>
</clipPath>
</defs>
</svg>
