<svg width="24" height="24" viewBox="0 0 24 24" fill="none" xmlns="http://www.w3.org/2000/svg">
<g clip-path="url(#clip0_1733_4202)">
<path d="M14.7698 23.2131H9.33813V24H14.7698V23.2131Z" fill="#1E1E1E"/>
<path d="M12.0345 4.33301C7.98745 4.33301 4.69385 7.65237 4.69385 11.731C4.69385 15.3874 9.72857 21.655 9.94329 21.9199L10.0539 22.0563L10.2296 22.0641C10.2934 22.0668 10.4742 22.0694 10.7228 22.0707V22.076H12.2974C12.3937 22.076 12.4899 22.076 12.5823 22.076C12.6747 22.076 12.7698 22.076 12.8582 22.076H13.3683C13.5622 22.0746 13.7027 22.0733 13.7574 22.0721L13.9344 22.0668L14.0476 21.9291C14.265 21.6641 19.3751 15.4084 19.3751 11.731C19.3751 7.65237 16.0815 4.33301 12.0345 4.33301ZM12.3637 21.2891C12.0436 21.2891 11.7066 21.2891 11.3969 21.2877L9.86265 10.8668H14.1218L12.689 21.2891H12.3637ZM13.5609 21.2877C13.5362 21.2877 13.5076 21.2877 13.4776 21.2877L15.0184 10.0799H8.95689L10.607 21.2838C10.5432 21.2838 10.4859 21.2838 10.4378 21.2825C9.69217 20.333 5.47593 14.8274 5.47593 11.7324C5.47593 8.08645 8.41817 5.12117 12.0358 5.12117C15.6534 5.12117 18.5957 8.08645 18.5957 11.7324C18.5957 14.8432 14.317 20.3422 13.5609 21.2891V21.2877Z" fill="#1E1E1E"/>
<path d="M12.3794 0H11.5986V3.2984H12.3794V0Z" fill="#1E1E1E"/>
<path d="M3.2728 12.2505H0V13.0374H3.2728V12.2505Z" fill="#1E1E1E"/>
<path d="M24.0001 12.2505H20.7273V13.0374H24.0001V12.2505Z" fill="#1E1E1E"/>
<path d="M2.61641 4.0791L2.15601 4.7147L4.94553 6.76694L5.40585 6.13142L2.61641 4.0791Z" fill="#1E1E1E"/>
<path d="M21.0936 4.01245L18.5134 6.30245L19.0295 6.89301L21.6096 4.60293L21.0936 4.01245Z" fill="#1E1E1E"/>
</g>
<defs>
<clipPath id="clip0_1733_4202">
<rect width="24" height="24" fill="white"/>
</clipPath>
</defs>
</svg>
