<svg width="24" height="24" viewBox="0 0 24 24" fill="none" xmlns="http://www.w3.org/2000/svg">
<g clip-path="url(#clip0_1733_4207)">
<path d="M23.375 23.2211H0.625V0.778564H23.375V23.2211ZM1.375 22.4711H22.625V1.52856H1.375V22.4711Z" fill="#1E1E1E"/>
<path d="M5.6675 9.19106H2.5275V8.51356H6.67375V9.01231L4.6425 11.2123C5.8175 11.0436 6.795 11.8611 6.795 13.0461C6.795 14.2961 5.855 15.1898 4.5575 15.1898C3.4575 15.1898 2.52625 14.5036 2.32 13.5348L2.95 13.3098C3.11875 14.0061 3.78625 14.5036 4.5575 14.5036C5.43125 14.5036 6.06125 13.8923 6.06125 13.0273C6.06125 11.9936 5.055 11.4661 3.97375 11.8148L3.73875 11.3448L5.6675 9.19106Z" fill="#1E1E1E"/>
<path d="M12.295 13.0086C12.295 14.2123 11.2987 15.1898 10.0763 15.1898C8.85375 15.1898 7.8675 14.2123 7.8675 13.0086C7.8675 12.5473 8.055 11.9373 8.4125 11.3636L10.1888 8.51481H10.9975L9.43625 10.9786C9.67125 10.9036 9.935 10.8561 10.17 10.8561C11.2887 10.8561 12.295 11.7873 12.295 13.0086ZM11.6088 12.9986C11.6088 12.1711 10.9038 11.4661 10.0675 11.4661C9.645 11.4661 9.25 11.5698 8.9775 11.7011C8.705 12.1523 8.555 12.6223 8.555 12.9986C8.555 13.8261 9.2325 14.5123 10.0775 14.5123C10.9225 14.5123 11.61 13.8261 11.6088 12.9986Z" fill="#1E1E1E"/>
<path d="M13.3675 11.8048C13.3675 9.71731 14.2513 8.41981 15.7463 8.41981C17.2413 8.41981 18.115 9.71731 18.115 11.8048C18.115 13.8923 17.2313 15.1898 15.7463 15.1898C14.2613 15.1898 13.3675 13.8923 13.3675 11.8048ZM17.3913 11.8048C17.3913 10.0661 16.78 9.10606 15.7463 9.10606C14.7125 9.10606 14.1012 10.0648 14.1012 11.8048C14.1012 13.5448 14.7025 14.5023 15.7463 14.5023C16.79 14.5023 17.3913 13.5436 17.3913 11.8048Z" fill="#1E1E1E"/>
<path d="M21.9788 9.85857C21.9788 10.6673 21.3587 11.2873 20.5588 11.2873C19.7588 11.2873 19.1488 10.6673 19.1488 9.85857C19.1488 9.04982 19.7687 8.42982 20.5588 8.42982C21.3488 8.42982 21.9788 9.04982 21.9788 9.85857ZM19.6 9.85857C19.6 10.4136 20.0225 10.8461 20.5588 10.8461C21.095 10.8461 21.5275 10.4136 21.5275 9.85857C21.5275 9.30357 21.105 8.86232 20.5588 8.86232C20.0125 8.86232 19.6 9.29482 19.6 9.85857Z" fill="#1E1E1E"/>
</g>
<defs>
<clipPath id="clip0_1733_4207">
<rect width="24" height="24" fill="white"/>
</clipPath>
</defs>
</svg>
