<svg width="25" height="25" viewBox="0 0 25 25" fill="none" xmlns="http://www.w3.org/2000/svg">
<g id="iconName=Facebook">
<path id="Vector" d="M12.4999 24.1666C10.9678 24.1666 9.45074 23.8648 8.03528 23.2785C6.61981 22.6922 5.33369 21.8328 4.25034 20.7495C3.16699 19.6661 2.30763 18.38 1.72132 16.9646C1.13502 15.5491 0.833252 14.032 0.833252 12.4999C0.833252 10.9678 1.13502 9.45074 1.72132 8.03528C2.30763 6.61981 3.16699 5.33369 4.25034 4.25034C5.33369 3.16699 6.61981 2.30763 8.03528 1.72132C9.45074 1.13502 10.9678 0.833252 12.4999 0.833252C15.5941 0.833252 18.5616 2.06242 20.7495 4.25034C22.9374 6.43826 24.1666 9.40573 24.1666 12.4999C24.1666 15.5941 22.9374 18.5616 20.7495 20.7495C18.5616 22.9374 15.5941 24.1666 12.4999 24.1666ZM12.4999 24.1666V10.8333C12.4999 9.9492 12.8511 9.10135 13.4762 8.47623C14.1014 7.85111 14.9492 7.49992 15.8333 7.49992H16.6666M8.33325 14.1666H16.6666" stroke="black" stroke-width="1.66667"/>
</g>
</svg>
