<svg width="24" height="24" viewBox="0 0 24 24" fill="none" xmlns="http://www.w3.org/2000/svg">
<g id="iconName=Linkedln" clip-path="url(#clip0_1733_4224)">
<path id="Vector" d="M7.19998 9.59999V17.6M16.8 17.6V13.6C16.8 12.7513 16.4628 11.9374 15.8627 11.3373C15.2626 10.7371 14.4487 10.4 13.6 10.4C12.7513 10.4 11.9374 10.7371 11.3373 11.3373C10.7371 11.9374 10.4 12.7513 10.4 13.6V17.6V9.59999M6.40002 7.19998H7.99995M2.39998 0.800049H21.6C22.0243 0.800049 22.4313 0.968529 22.7313 1.26862C23.0314 1.56872 23.2 1.97566 23.2 2.39998V21.6C23.2 22.0243 23.0314 22.4313 22.7313 22.7313C22.4313 23.0314 22.0243 23.2 21.6 23.2H2.39998C1.97566 23.2 1.56872 23.0314 1.26862 22.7313C0.968529 22.4313 0.800049 22.0243 0.800049 21.6V2.39998C0.800049 1.97566 0.968529 1.56872 1.26862 1.26862C1.56872 0.968529 1.97566 0.800049 2.39998 0.800049Z" stroke="#1E1E1E" stroke-width="2.13334"/>
</g>
<defs>
<clipPath id="clip0_1733_4224">
<rect width="24" height="24" fill="white"/>
</clipPath>
</defs>
</svg>
