<svg width="24" height="24" viewBox="0 0 24 24" fill="none" xmlns="http://www.w3.org/2000/svg">
<path d="M22.3594 5.64844C22.25 5.55469 22.1289 5.50781 21.9961 5.50781C21.8633 5.50781 21.7422 5.55469 21.6328 5.64844L8.25 19.2891L2.36719 13.2891C2.25781 13.1953 2.13672 13.1445 2.00391 13.1367C1.87109 13.1289 1.75 13.1797 1.64062 13.2891C1.54688 13.3828 1.5 13.4961 1.5 13.6289C1.5 13.7617 1.54688 13.8828 1.64062 13.9922L7.89844 20.3438C7.94531 20.3906 8 20.4297 8.0625 20.4609C8.125 20.4922 8.1875 20.5078 8.25 20.5078C8.3125 20.5078 8.375 20.4922 8.4375 20.4609C8.5 20.4297 8.55469 20.3906 8.60156 20.3438L22.3594 6.35156C22.4531 6.25781 22.5 6.14062 22.5 6C22.5 5.85938 22.4531 5.74219 22.3594 5.64844Z" fill="#1E1E1E"/>
</svg>
