<svg width="24" height="24" viewBox="0 0 24 24" fill="none" xmlns="http://www.w3.org/2000/svg">
<g clip-path="url(#clip0_1733_4217)">
<path d="M20.6953 1.82812C20.8672 1.85938 21.0352 1.92188 21.1992 2.01562C21.3633 2.10938 21.5156 2.21875 21.6562 2.34375C21.7812 2.48438 21.8906 2.63672 21.9844 2.80078C22.0781 2.96484 22.1406 3.13281 22.1719 3.30469C22.25 3.74219 22.2148 4.12109 22.0664 4.44141C21.918 4.76172 21.6875 5.03125 21.375 5.25C21.2188 5.34375 21.0508 5.41797 20.8711 5.47266C20.6914 5.52734 20.5078 5.55469 20.3203 5.55469H18.4453V3.67969C18.4453 3.49219 18.4727 3.30859 18.5273 3.12891C18.582 2.94922 18.6562 2.78125 18.75 2.625C18.8594 2.46875 18.9844 2.33203 19.125 2.21484C19.2656 2.09766 19.4219 2.00781 19.5938 1.94531C19.7656 1.86719 19.9453 1.82031 20.1328 1.80469C20.3203 1.78906 20.5078 1.79688 20.6953 1.82812ZM18.4453 6.5625H20.3203C20.6016 6.5625 20.8789 6.51953 21.1523 6.43359C21.4258 6.34766 21.6797 6.22656 21.9141 6.07031C22.3828 5.77344 22.7383 5.37109 22.9805 4.86328C23.2227 4.35547 23.2812 3.77344 23.1562 3.11719C23.0938 2.83594 22.9961 2.57031 22.8633 2.32031C22.7305 2.07031 22.5625 1.84375 22.3594 1.64062C22.1562 1.4375 21.9297 1.26953 21.6797 1.13672C21.4297 1.00391 21.1641 0.90625 20.8828 0.84375C20.6797 0.8125 20.4688 0.796875 20.25 0.796875C20.0312 0.796875 19.8203 0.828125 19.6172 0.890625C19.5703 0.859375 19.5234 0.835938 19.4766 0.820312C19.4297 0.804688 19.375 0.796875 19.3125 0.796875H7.21875C6.6875 0.796875 6.17188 0.898438 5.67188 1.10156C5.17188 1.30469 4.72656 1.60156 4.33594 1.99219C3.96094 2.36719 3.67188 2.80469 3.46875 3.30469C3.26562 3.80469 3.16406 4.32812 3.16406 4.875V17.4609H1.26562C1.125 17.4609 1.00781 17.5117 0.914062 17.6133C0.820312 17.7148 0.773438 17.8281 0.773438 17.9531V19.1484C0.773438 19.6953 0.875 20.2188 1.07812 20.7188C1.28125 21.2188 1.57812 21.6562 1.96875 22.0312C2.34375 22.4219 2.78125 22.7188 3.28125 22.9219C3.78125 23.125 4.30469 23.2266 4.85156 23.2266H15.5625C15.9375 23.2266 16.3047 23.1523 16.6641 23.0039C17.0234 22.8555 17.3359 22.6484 17.6016 22.3828C17.8672 22.1172 18.0742 21.8086 18.2227 21.457C18.3711 21.1055 18.4453 20.7344 18.4453 20.3438V6.5625ZM17.4375 3.67969V20.3438C17.4375 20.5938 17.3906 20.8359 17.2969 21.0703C17.2031 21.3047 17.0703 21.5078 16.8984 21.6797C16.7109 21.8516 16.5039 21.9844 16.2773 22.0781C16.0508 22.1719 15.8125 22.2188 15.5625 22.2188C15.3125 22.2188 15.0703 22.1719 14.8359 22.0781C14.6016 21.9844 14.3984 21.8516 14.2266 21.6797C14.0547 21.5078 13.9219 21.3047 13.8281 21.0703C13.7344 20.8359 13.6875 20.5938 13.6875 20.3438V17.9531C13.6875 17.8281 13.6367 17.7148 13.5352 17.6133C13.4336 17.5117 13.3125 17.4609 13.1719 17.4609H4.14844V4.875C4.14844 4.46875 4.22656 4.07422 4.38281 3.69141C4.53906 3.30859 4.76562 2.97656 5.0625 2.69531C5.34375 2.41406 5.67188 2.19531 6.04688 2.03906C6.42188 1.88281 6.8125 1.80469 7.21875 1.80469H18.1406C18.1094 1.83594 18.0742 1.875 18.0352 1.92188C17.9961 1.96875 17.9609 2.02344 17.9297 2.08594C17.7734 2.32031 17.6523 2.57422 17.5664 2.84766C17.4805 3.12109 17.4375 3.39844 17.4375 3.67969ZM4.85156 22.2188C4.44531 22.2188 4.05078 22.1406 3.66797 21.9844C3.28516 21.8281 2.95312 21.6094 2.67188 21.3281C2.39062 21.0469 2.17188 20.7148 2.01562 20.332C1.85938 19.9492 1.78125 19.5547 1.78125 19.1484V18.4688H12.6797V20.3438C12.6797 20.6875 12.7383 21.0234 12.8555 21.3516C12.9727 21.6797 13.1484 21.9688 13.3828 22.2188H4.85156ZM8.0625 5.70703C8.15625 5.60547 8.27344 5.55469 8.41406 5.55469H13.1719C13.3125 5.55469 13.4336 5.60547 13.5352 5.70703C13.6367 5.80859 13.6875 5.92969 13.6875 6.07031C13.6875 6.19531 13.6367 6.30859 13.5352 6.41016C13.4336 6.51172 13.3125 6.5625 13.1719 6.5625H8.41406C8.27344 6.5625 8.15625 6.51172 8.0625 6.41016C7.96875 6.30859 7.92188 6.19531 7.92188 6.07031C7.92188 5.92969 7.96875 5.80859 8.0625 5.70703ZM8.41406 10.3125C8.27344 10.3125 8.15625 10.3633 8.0625 10.4648C7.96875 10.5664 7.92188 10.6875 7.92188 10.8281C7.92188 10.9688 7.96875 11.0859 8.0625 11.1797C8.15625 11.2734 8.27344 11.3203 8.41406 11.3203H13.1719C13.3125 11.3203 13.4336 11.2734 13.5352 11.1797C13.6367 11.0859 13.6875 10.9688 13.6875 10.8281C13.6875 10.6875 13.6367 10.5664 13.5352 10.4648C13.4336 10.3633 13.3125 10.3125 13.1719 10.3125H8.41406Z" fill="#1E1E1E"/>
</g>
<defs>
<clipPath id="clip0_1733_4217">
<rect width="24" height="24" fill="white"/>
</clipPath>
</defs>
</svg>
