<svg width="24" height="24" viewBox="0 0 24 24" fill="none" xmlns="http://www.w3.org/2000/svg">
<g clip-path="url(#clip0_1733_4226)">
<path d="M3.49219 0.304688V23.2031C3.49219 23.2969 3.51953 23.3828 3.57422 23.4609C3.62891 23.5391 3.69531 23.6016 3.77344 23.6484C3.86719 23.6953 3.96094 23.7109 4.05469 23.6953C4.14844 23.6797 4.23438 23.6484 4.3125 23.6016L12 17.4375L19.6875 23.6016C19.7656 23.6484 19.8516 23.6797 19.9453 23.6953C20.0391 23.7109 20.1328 23.6953 20.2266 23.6484C20.3047 23.6016 20.3711 23.5391 20.4258 23.4609C20.4805 23.3828 20.5078 23.2969 20.5078 23.2031V0.304688H3.49219ZM19.5 1.28906V22.1484L12.3047 16.4062C12.2109 16.3281 12.1094 16.2891 12 16.2891C11.8906 16.2891 11.7891 16.3281 11.6953 16.4062L4.5 22.1484V1.28906H19.5Z" fill="#1E1E1E"/>
</g>
<defs>
<clipPath id="clip0_1733_4226">
<rect width="24" height="24" fill="white"/>
</clipPath>
</defs>
</svg>
