<svg width="24" height="24" viewBox="0 0 24 24" fill="none" xmlns="http://www.w3.org/2000/svg">
<g clip-path="url(#clip0_1733_4225)">
<path d="M23.4562 20.5051H0.543701V3.49512H23.4562V20.5051ZM1.2937 19.7551H22.7062V4.24512H1.2937V19.7551Z" fill="#1E1E1E"/>
<path d="M3.875 9.19499H3.125V6.05249H5.96V6.80249H3.875V9.19499Z" fill="#1E1E1E"/>
<path d="M6.11369 18.0025H2.97119V15.1675H3.72119V17.2525H6.11369V18.0025Z" fill="#1E1E1E"/>
<path d="M20.7212 18.0026H17.8862V17.2526H19.9712V14.8601H20.7212V18.0026Z" fill="#1E1E1E"/>
<path d="M20.8749 8.88749H20.1249V6.80249H17.7324V6.05249H20.8749V8.88749Z" fill="#1E1E1E"/>
<path d="M12.0625 15.3738C10.2012 15.3738 8.6875 13.86 8.6875 11.9988C8.6875 10.1375 10.2012 8.62378 12.0625 8.62378C13.9237 8.62378 15.4375 10.1375 15.4375 11.9988C15.4375 13.86 13.9237 15.3738 12.0625 15.3738ZM12.0625 9.37378C10.615 9.37378 9.4375 10.5513 9.4375 11.9988C9.4375 13.4463 10.615 14.6238 12.0625 14.6238C13.51 14.6238 14.6875 13.4463 14.6875 11.9988C14.6875 10.5513 13.51 9.37378 12.0625 9.37378Z" fill="#1E1E1E"/>
</g>
<defs>
<clipPath id="clip0_1733_4225">
<rect width="24" height="24" fill="white"/>
</clipPath>
</defs>
</svg>
