<svg width="24" height="24" viewBox="0 0 24 24" fill="none" xmlns="http://www.w3.org/2000/svg">
<g clip-path="url(#clip0_1733_4158)">
<path d="M12.0001 23.2526C5.79506 23.2526 0.747559 18.2051 0.747559 12.0001C0.747559 5.79506 5.79506 0.747559 12.0001 0.747559C18.2051 0.747559 23.2526 5.79506 23.2526 12.0001C23.2526 18.2051 18.2051 23.2526 12.0001 23.2526ZM12.0001 1.49756C6.20881 1.49756 1.49756 6.20881 1.49756 12.0001C1.49756 17.7913 6.20881 22.5026 12.0001 22.5026C17.7913 22.5026 22.5026 17.7913 22.5026 12.0001C22.5026 6.20881 17.7913 1.49756 12.0001 1.49756Z" fill="#1E1E1E"/>
<path d="M15.905 15.3574L12.375 12.0387V4.41992H11.625V12.3749H11.6388L15.3912 15.9037L15.905 15.3574Z" fill="#1E1E1E"/>
</g>
<defs>
<clipPath id="clip0_1733_4158">
<rect width="24" height="24" fill="white"/>
</clipPath>
</defs>
</svg>
