<?xml version="1.0" encoding="UTF-8"?>
<!-- Generator: Adobe Illustrator 25.4.1, SVG Export Plug-In . SVG Version: 6.00 Build 0) -->
<svg xmlns="http://www.w3.org/2000/svg" xmlns:xlink="http://www.w3.org/1999/xlink" version="1.1" id="Capa_1-6137164ec6bab" x="0px" y="0px" viewBox="0 0 103.76 103.96" style="enable-background:new 0 0 103.76 103.96;" xml:space="preserve" class=" svg-6137164ec29b7-0"> <style type="text/css">.svg-6137164ec29b7-0 .st0  {fill:#FF3228;} .svg-6137164ec29b7-0 .st1  {fill:#FFFFFF;}</style> <rect class="st0" width="103.76" height="103.76"/> <path class="st1" d="M82.51,55.35c-1.48,6.81-6.86,8.73-9.13,9.25c-0.96,0.22-1.94,0.33-2.9,0.33c-3.13,0-6.09-1.18-8.16-3.23 l25.82-14.92c-1.21-3.1-2.83-6.1-5.36-8.45c-4.49-4.16-11.02-6.06-17.03-4.64c-3.13,0.74-6.08,2.34-8.49,4.46 c-2.07,1.82-3.78,4.06-4.93,6.57c-0.21,0.47-0.41,0.94-0.58,1.42c-0.26,0.72-0.47,1.46-0.63,2.22V34.79h-8.06v19.95 c0,5.88-4.23,10.32-9.84,10.32c-5.65,0-9.91-4.44-9.91-10.32V34.79h-8.06v19.95c0,10.49,7.56,18.1,17.97,18.1 c9.88,0,17.16-6.91,17.83-16.63c0.59,3.19,1.89,6.31,3.87,9c3.52,4.78,9.34,7.63,15.57,7.63c1.55,0,3.12-0.18,4.65-0.52 c7.75-1.75,13.53-7.67,15.16-15.48L82.51,55.35z M58.86,55.02c-0.45-2.22-0.34-4.35,0.32-6.18c0.98-2.69,3.05-4.93,5.54-6.31 c4.25-2.36,9.92-1.82,13.16,2.06L58.96,55.52L58.86,55.02z"/> </svg>
