<svg width="24" height="24" viewBox="0 0 24 24" fill="none" xmlns="http://www.w3.org/2000/svg">
<path d="M19.875 8.99994C19.8761 7.66533 19.538 6.35233 18.8925 5.18424C18.2469 4.01615 17.3151 3.03128 16.1845 2.32213C15.0538 1.61297 13.7615 1.20279 12.4289 1.1301C11.0963 1.05741 9.76705 1.32459 8.56601 1.90657C7.36497 2.48854 6.33155 3.36621 5.56277 4.45715C4.79399 5.5481 4.31508 6.81653 4.17102 8.14334C4.02695 9.47015 4.22246 10.8118 4.73917 12.0423C5.25589 13.2729 6.07686 14.3519 7.125 15.1781V22.4999C7.125 22.5994 7.16451 22.6948 7.23483 22.7651C7.30516 22.8354 7.40054 22.8749 7.5 22.8749C7.55822 22.8749 7.61563 22.8614 7.66781 22.8356L12 20.669L16.3331 22.8356C16.3903 22.864 16.4537 22.8773 16.5175 22.8743C16.5813 22.8714 16.6432 22.8522 16.6975 22.8185C16.7517 22.7849 16.7965 22.738 16.8276 22.6823C16.8586 22.6265 16.875 22.5638 16.875 22.4999V15.1781C17.8097 14.4422 18.5654 13.5039 19.085 12.4338C19.6047 11.3636 19.8748 10.1896 19.875 8.99994ZM16.125 21.8934L12.1669 19.9143C12.1148 19.8882 12.0573 19.8747 11.9991 19.8747C11.9408 19.8747 11.8833 19.8882 11.8312 19.9143L7.875 21.8934V15.7059C9.11491 16.4708 10.5431 16.8759 12 16.8759C13.4569 16.8759 14.8851 16.4708 16.125 15.7059V21.8934ZM12 16.1249C10.5908 16.1249 9.21326 15.7071 8.04156 14.9242C6.86986 14.1413 5.95663 13.0285 5.41736 11.7266C4.87808 10.4246 4.73698 8.99204 5.0119 7.60992C5.28682 6.22781 5.96542 4.95825 6.96186 3.96181C7.95831 2.96536 9.22787 2.28677 10.61 2.01185C11.9921 1.73693 13.4247 1.87802 14.7266 2.4173C16.0285 2.95657 17.1413 3.8698 17.9242 5.0415C18.7071 6.2132 19.125 7.59075 19.125 8.99994C19.123 10.889 18.3717 12.7001 17.0359 14.0359C15.7002 15.3717 13.8891 16.123 12 16.1249ZM12 4.12494C11.0358 4.12494 10.0933 4.41085 9.29159 4.94653C8.48991 5.4822 7.86506 6.24357 7.49609 7.13436C7.12711 8.02515 7.03057 9.00535 7.21867 9.95101C7.40677 10.8967 7.87107 11.7653 8.55285 12.4471C9.23463 13.1289 10.1033 13.5932 11.0489 13.7813C11.9946 13.9694 12.9748 13.8728 13.8656 13.5039C14.7564 13.1349 15.5177 12.51 16.0534 11.7083C16.5891 10.9067 16.875 9.96412 16.875 8.99994C16.8735 7.70747 16.3594 6.46836 15.4455 5.55444C14.5316 4.64052 13.2925 4.12643 12 4.12494ZM12 13.1249C11.1842 13.1249 10.3866 12.883 9.70827 12.4298C9.02992 11.9765 8.50121 11.3323 8.189 10.5785C7.87679 9.82477 7.7951 8.99536 7.95426 8.19519C8.11342 7.39502 8.50629 6.66002 9.08318 6.08313C9.66008 5.50623 10.3951 5.11337 11.1953 4.9542C11.9954 4.79504 12.8248 4.87673 13.5786 5.18894C14.3323 5.50115 14.9766 6.02986 15.4298 6.70821C15.8831 7.38657 16.125 8.18409 16.125 8.99994C16.1238 10.0936 15.6888 11.1421 14.9154 11.9154C14.1421 12.6887 13.0936 13.1237 12 13.1249Z" fill="#393A3B"/>
</svg>
